<svg xmlns="http://www.w3.org/2000/svg" width="895.139" height="751.882" viewBox="0 0 895.139 751.882">
  <g id="Group_334" data-name="Group 334" transform="translate(-3006.361 -2426.925)">
    <g id="Group_293" data-name="Group 293" transform="translate(2424.463 2063.137)">
      <path id="Path_184" data-name="Path 184" d="M810.3,885.572c-6.489.14-7.546,2.853-7.476,7.069.1,5.889-.524,11.819-4.328,16.726-3.408,4.4-1.756,9.891-3.539,14.684-1.968,5.289-3.665,10.111-10.874,8.378-1.875-.45-3.867.31-4.308,2.223-1.755,7.612-10.137,10.06-12.869,16.9-.946,2.37-2.734,1.7-4.193.227-2.565-2.6-4.777-1.991-7.763-.173-4.784,2.913-9.666,5.979-15.733,5.825-3.466-.088-5.759,2-5.709,5.42.1,6.583-1.342,13.362,2.045,19.634,2.1,3.882-.332,5.583-3.575,6.127-2.871.482-5.87.168-8.813.251-2.866.08-5.585.794-7.148,3.37-2.479,4.082-6.226,4.633-10.568,4.97-18.9,1.469-37.767-.583-56.643-.145-7.83.183-15.645.933-23.475,1.213-5.6.2-16.073-6.824-17.8-11.842-1.017-2.956-.117-5.805,1.209-8.52,1.16-2.377,2.085-4.919,0-7.124-2.062-2.183-4.481-3.641-7.865-2.463-4.4,1.53-8.483.267-10.929-3.509-3.9-6.024-6.875-12.87-4.034-19.985,5.9-14.775,6.79-30.145,6.328-45.661a26.438,26.438,0,0,1,6.4-18.371c4.587-5.564,8.144-11.5,8.474-18.934a8.435,8.435,0,0,1,.521-2.886c4.8-11.254,5.5-23.514,8.659-35.176,3.4-12.578,5.393-13.691,17.8-8.329a38.25,38.25,0,0,1,4.144,2.228c3.8,2.237,7.493,2.172,10.918-.669a15.107,15.107,0,0,1,13.268-3.33c9.416,2.152,18.188-.8,27.1-2.548,3.182-.624,5.951-1.441,8.766.917,1.544,1.295,3.644,1.35,5.633,1.255,3.082-.148,4.832.984,4.777,4.375-.055,3.316,2.083,5.2,4.666,6.952,8.8,5.956,9.125,15.085.8,22-1.714,1.423-3.28,2.824-3.858,5.01-.634,2.4-.507,4.75,1.391,6.568a4.843,4.843,0,0,0,6.028.522c2.774-1.58,5.387-1.432,8.428-.848,7.358,1.417,18.556-5.2,21.532-12.193a23.122,23.122,0,0,1,2.8-5.126c6.483-8.383,8.146-8.16,14.3.161a50.127,50.127,0,0,1,6.705,12.732c2.748,7.375,10.161,10.018,16.768,12.6,4.24,1.656,7.754,3.8,10.427,7.2C801.813,877.256,804.456,881.606,810.3,885.572Z" transform="translate(0.515 79.528)" fill="#73b2db"/>
      <path id="Path_185" data-name="Path 185" d="M1167.192,796.881c5.789,8.483,5.789,8.483,15.532,5.106,7.955-2.758,9.374-4.959,8.008-13.536-.536-3.366.642-3.982,3.733-3.916,8.3.178,9.419-2.349,5.567-9.861-3.937-7.675-7.006-15.742-6.085-24.694.424-4.127,1.712-7.168,6.378-8.665,5.977-1.915,11.19-5.717,15.99-9.7,7.122-5.914,8.853-14.34,5.394-22.826-.29-.71-.741-1.849-1.227-1.911-5.93-.745-6.962-7.577-11.912-9.456-1.706-.647-1.366-2.153-1.552-3.464-.283-1.978-1.442-3.439-3.389-3.494-5.959-.172-6.157-5.221-5.648-8.451a88.912,88.912,0,0,0-.723-30.343c-.706-3.792,2.438-4.954,3.289-7.392,1.523-4.373,4.409-2.817,6.816-2.248,17.624,4.174,35.826,6.005,52.057,15.453,9.745,5.671,21.219,4.381,32.147,4.03,2.13-.067,4.09-.6,6.278.278,9.907,4,19.833,6.334,30.742,3.178,4.512-1.305,9.561-.959,14.28-2.587,2.911-1,5.705,1.119,7.929,3.057a19.67,19.67,0,0,0,12.2,5.051c6.976.439,8.815,2.77,8.811,9.726,0,3.2-.412,6.52-2.059,9.072-5.114,7.923-6.278,17.1-6.913,25.841-.854,11.746-1.715,23.671,2.7,35.441,3.263,8.689,5.034,17.96,8.634,26.656,2.424,5.858-.462,10.728-4.947,14.486-6.689,5.6-14.986,8.469-22.532,12.6-2.365,1.3-5.451.641-8.025-.515-11.1-4.982-21.265-2.905-29.967,4.928-5.717,5.146-13.081,8.318-17.157,15.675-1.639,2.957-7.189,2.553-10.858,2.436a61.521,61.521,0,0,0-26.9,4.99c-6.213,2.689-13.1,2.979-19.626,3.077-24.259.363-48.6,1.236-72.56-4.137-5.554-1.245-8.622-6.791-5.777-11.965C1159.757,811.647,1164.176,804.751,1167.192,796.881Z" transform="translate(101.984 49.404)" fill="#72b2da"/>
      <path id="Path_187" data-name="Path 187" d="M691.575,570.052c3.144-.184,5.547,1.713,8.207,2.9a171.453,171.453,0,0,0,20.782,8.028c11.78,3.531,18.615,12.182,12.64,25.55a11.381,11.381,0,0,0-.12,10.109c2.984,6.595,5.524,13.406,7.946,20.235,1.511,4.262,4.092,6.937,8.479,8.11a85.441,85.441,0,0,1,10.034,3.334c5.169,2.1,10.159,3.231,15.04-1.712.444,8.3-3.741,14.593-6.136,21.193-3.458,9.528-7.537,18.865-10.877,28.459a497.953,497.953,0,0,0-15.121,50.44c-1.01,4.332-2.621,4.2-5.5,2.45-1.838-1.116-3.506-2.513-5.24-3.8-2.542-1.883-5.269-2.647-8.26-1.2-3.7,1.781-7.583,1.368-11.515,1.482-5.208.151-9.268-1.052-12.973-5.076-3.421-3.716-9.076-4.759-13.15-2.658-9.812,5.06-20.609,5.821-30.859,8.827-10.463,3.07-20.846,5.895-31.656,7.943-11.049,2.093-21.034.29-31.345-1.1-10.362-1.4-12.028-5.52-7.562-14.913,2.986-6.281,5.381-12.694,2.578-19.78a2.942,2.942,0,0,1-.053-2.29c4.432-6.749,2.469-14.41,3.188-21.676.683-6.9.125-13.378-3.2-19.911-10.457-20.537-3.873-27.448,13.749-39.978,2.7-1.921,6.052-1.388,9.176-1.361,6.278.052,11.095-2.007,13.121-8.531,1.154-3.717,3.05-5.936,7.308-3.388,2.645,1.582,3.594-.124,3.6-2.5a27.382,27.382,0,0,0-.512-6.42,22.1,22.1,0,0,1,.521-12.742,24.486,24.486,0,0,0,1.174-10.437,17.436,17.436,0,0,1,2.138-10.654c2.313-4.118,2.383-9.023,2.5-13.746.06-2.347-.191-4.8,1.2-6.861,1.409-2.092,2.313-3.547,5.79-1.554,6.583,3.772,13.814,6.625,21.814,5.9,3.672-.332,6.9,1.164,10.113,2.662a8.88,8.88,0,0,1,1.629,5.493c.045,8.736.084,17.471-.014,25.1C683.564,588.017,686.7,578.651,691.575,570.052Z" transform="translate(0 34.198)" fill="#74b3db"/>
      <path id="Path_188" data-name="Path 188" d="M1031.211,402.934a53.327,53.327,0,0,1-.9,9.343c-1.683,8.317-.422,15.587,2.92,24.053,4.663,11.81,7.6,25.11,5.81,38.522-1.446,10.849-4.008,21.595-3.244,32.66.244,3.525-1.015,4.249-4.012,2.4a117.725,117.725,0,0,0-16.834-8.32c-.536-.223-1.392-.359-1.536-.746-3.932-10.606-13.5-5.379-20.5-7.232-3.425-.908-5.428,1.255-6.422,4.519-1.591,5.235-4.528,6.5-9.328,3.293-4.382-2.926-6.989-2.086-8.258,2.7-1.091,4.115-4.589,2.682-6.783,2.839-2.981.211-1.959-3.031-1.687-4.56,1.173-6.611-2.858-9.266-7.988-11.066a38.882,38.882,0,0,0-16.2-2.228c-5.686.483-11.19-1.811-16.874-.787a1.825,1.825,0,0,1-1.553-.51c-4.52-7.731-11.97-5.986-18.885-5.85a7.239,7.239,0,0,1-5.867-2.078c-2.9-3.038-5.088-3.937-9.9-1.5-4.093,2.068-8.231,2.382-9.031,7.843-.178,1.209-1.455.769-2.446.683-6.123-.531-11.9-1.053-18.225,1.388-3.753,1.447-9.679-1.5-14.14-3.541-3.253-1.486-4.472-2.461-7.558.986-2.386,2.665-5.439,8.194-11.7,4.661-3.184-1.8-5.453,2.264-7.948,3.94-2.17,1.458-3.873,1.917-3.607-1.371.324-4-3.908-6.6-2.726-10.832.774-2.773,1.487-5.254,4.554-6.255,5.223-1.707,15.513-14.915,15.781-20.17.174-3.454-1.751-6.1-3.853-8.337-4.458-4.742-6.149-10.59-6.515-16.65-.564-9.363-.746-18.718,1.827-28.023,2.325-8.406,1.772-17.425,5.724-25.62,2.911-6.035,4-6.763,7.949-1.41,4.089,5.543,8.383,1.518,11.412.027,5.951-2.931,11.883-3.664,18.205-3.373a24.879,24.879,0,0,0,15.125-3.933c6.981-4.564,14.908-4.4,22.715-4.6,4.793-.126,5.706,4.941,8.135,7.566a13.348,13.348,0,0,0,9.489,4.6c9.892.968,19.275,5.759,29.457,4.433,9.3-1.212,17.951.541,27.035,2.668,10.368,2.427,21.477,1.808,32.073-.813C1021.646,378.1,1031.334,385.612,1031.211,402.934Z" transform="translate(39.822 0)" fill="#7ab8dd"/>
      <path id="Path_189" data-name="Path 189" d="M710.285,871.052c4.831-4.259,6.827-9.854,9.232-15.321,2.984-6.783,2.78-9.7-3.123-14.2-3.88-2.952-8.265-5.213-8.275-11.062,0-.955-1.106-2.6-1.918-2.752-6.888-1.266-13.014-5.763-20.594-4.273-9.289,1.826-18.4,4.895-28.252,2.85a16.77,16.77,0,0,0-14.847,3.984c-1.808,1.617-4.038,2.287-5.922.884-4.964-3.7-10.831-4.359-16.569-5.425-3.167-.589-3.507-2.363-4.087-5.233-2.4-11.882-2.062-23.862-2.665-35.84-.257-5.094-3.991-9.951-3.349-15.724.395-3.553.73-7.032,2.486-10.168,3.625-6.476,4.321-13.248,2.859-20.481-1.4-6.939-.491-7.978,6.688-7.788a31.88,31.88,0,0,0,14.353-2.443c12.019-5.494,25.346-6.234,37.675-10.553,2.027-.71,3.918-1.8,5.929-2.57,4.547-1.735,9.052-1.744,12.51,2.054,7.159,7.862,16.251,5.751,24.636,4.235,3.96-.716,6.816-.913,9.482,1.753,4.3,4.3,11.066,3.679,15.353,7.979a2.786,2.786,0,0,0,3.353-.021c2.909-1.921,4.656-.694,6.943,1.5,3.845,3.691,8.4,1.891,9.515-3.428.358-1.713.118-3.552.478-5.263,1.411-6.685,3.429-7.461,8.484-3.026,3.054,2.68,6.915,2.574,10.407,3.661,12.408,3.863,14.639,7.165,12.944,19.983-.427,3.233.439,6.679,3.534,7.27,9.035,1.721,8.437,9.039,9.147,15.168.546,4.7-.018,9.456-3.9,13.51-5.686,5.938-5.867,16.041-1.311,23.4,2.149,3.468,5.926,7.059,5.807,10.484-.121,3.486-6.02,4.239-8.888,6.831a14.984,14.984,0,0,1-8.854,3.937c-3.981.448-7.147,3.192-10.1,5.739-7.682,6.618-16.675,10.982-25.734,15.187a27.571,27.571,0,0,0-14.493,14.635c-2.7,6.328-11.6,11.334-18.2,9.677C717.269,869.26,714.212,870.448,710.285,871.052Z" transform="translate(4.975 62.316)" fill="#75b3dc"/>
      <path id="Path_190" data-name="Path 190" d="M1086.431,708.181c-2.666,7.369-.949,14.209-1.351,20.984-.156,2.636.649,5.193,3.369,5.384,5.2.366,10.6,1.7,15.628-.583,3.115-1.417,5.87-1.189,9.058-.352,17.4,4.571,33.369,12.612,48.87,21.3,6.126,3.436,12.321,7.146,18.15,11.016,10.263,6.813,12.432,13.013,7.486,23.9a62.027,62.027,0,0,1-5.942,10.793c-3.211,4.434-4.552,8.962-3.154,14.312.894,3.422-1.647,3.432-3.85,3.435-4.942.008-9.773.419-14.354,2.536-5.44,2.513-5.833,4.244-1.732,8.533,1.182,1.234,2.717,2.029,3.013,4.114.953,6.7-.532,8.619-7.433,8.5-4.1-.071-8.2-.789-12.3-.762-8.906.059-11.657,3.727-9.115,12.015.9,2.953.6,4.614-2.941,4.368-4.67-.324-7.831,2.03-10.087,5.842-2.367,4-6.67,5.921-9.776,9.174-2.373,2.484-4.769-.335-6.346-2.116-3.619-4.084-8.049-5.116-13.248-4.805-4.82.289-8.041,2.5-8.556,7.213a6.673,6.673,0,0,1-5.115,6.3c-10.448,3.348-17.109,10.073-18.781,21.133-.483,3.188-1.878,2.818-3.935,1.574-4.672-2.828-9.047-3.344-13.246,1.13-1.762,1.878-9.765-.641-9.841-3.086-.185-5.9-4.276-7.976-8.722-9.8-3.075-1.258-6.246-2.3-9.414-3.31-4.54-1.455-8.76-3.4-12.11-6.936-1.238-1.305-2.264-3.028.3-3.255,3.912-.349,5.044-3.089,6.689-5.774,4.288-7,9.992-13.063,13.616-20.5,1.127-2.312,2.414-2.043,4.149-.823a23.637,23.637,0,0,1,5.8,6.584,9.415,9.415,0,0,0,7.1,4.6c7.021.769,8.94-.762,8.792-7.847-.117-5.6,1.341-9.3,5.795-13.938,6.168-6.425,9.543-15.966,9.167-25.729-.085-2.217-1.687-3.819-4.2-4.289-3.1-.578-6.129-1.216-9.311-.523a27.634,27.634,0,0,1-5.247.538c-16.781.366-17.528-.326-17.192-16.673.089-4.356-.078-8.687-1.587-12.758-1.092-2.946.078-3.48,2.559-3.4,1.765.06,3.549-.062,5.294.152,7.485.922,7.9.773,7.617-6.982-.349-9.378-.13-18.847-2.35-28.042-.582-2.408.161-2.972,2.029-3.749,11.38-4.734,21.931-11.244,33.475-15.656,3.289-1.257,4.928-4.338,6.8-7.107C1081.514,712.511,1082.575,709.651,1086.431,708.181Z" transform="translate(74.322 61.313)" fill="#7cb9de"/>
      <path id="Path_191" data-name="Path 191" d="M1176.184,931.564c.72-1.375.7-3.373-.483-3.688-5.332-1.422-6.086-7.276-10.1-9.868-5.307-3.43-7.02-8.639-7.181-14.606-.032-1.176-.039-2.357-.145-3.528-1.223-13.468-2.131-14.318-15.442-14.531-7.685-.124-11.827-4.574-11.459-12.171.143-2.933.511-5.977-.081-8.791-.615-2.918-.8-5.017,1.835-7.14,3.14-2.532,2.824-5.206-.708-7.511-4.1-2.677-8.057-5.573-12.085-8.361a7.545,7.545,0,0,1-3.119-3.313c-3.09-7.292-1.88-9.167,6.075-8.752,3.318.174,6.628.769,9.941.77,4.5,0,9.387.152,11.717-4.813,2.182-4.651.318-12.365-3.839-16.395,9.258-4.039,18.759-3.507,27.764-1.687,24.066,4.863,48.343,4.277,72.6,3.853,8.917-.156,17.959-1.447,26.314-5.358,5.858-2.742,12.17-2.983,18.454-2.468,3.805.312,7.684-2.808,10.887-.945,3.613,2.1,1.233,6.787,1.892,10.264,2.281,12.039,7.933,22.977,9.656,35.363,1.838,13.2-4.124,22.141-11.779,30.36-6.6,7.088-11.533,15.23-17.475,22.571-10.9,13.47-25.316,22.473-43.89,19.7-8.283-1.237-14.745-.26-18.912,7.668-.642,1.22-1.714,2.374-3.255,2.165-7.319-.992-13.83,1.16-20.2,4.537-1.824.966-4.186.134-6.268-.7-3.455-1.376-6.966-2.675-10.777-2.691Z" transform="translate(95.025 77.956)" fill="#78b7dd"/>
      <path id="Path_192" data-name="Path 192" d="M1212.55,643.613c-8.462,3.609-6.253,9.633-5.179,14.685a60.3,60.3,0,0,1,.287,23.847c-1.237,6.73,1.5,11.544,7.365,15.432,2.58,1.712,4.573,4.753,6.242,7.049,3.112,4.285,8.713,5.7,10.7,11.159,2.228,6.107-.06,10.433-4.048,14.175-4.292,4.027-9.205,7.768-14.808,9.374-7.386,2.116-9.051,7.268-9.633,13.674-.946,10.407,3.659,19.37,7.488,28.514-1.217,1.317-2.626.483-3.892.5-6.1.092-7.974,2.427-6.791,8.571,1.178,6.112-5.143,13.266-10.535,10.812-3.681-1.675-6.441-6.467-8.477-10.447-4.513-8.827-9.57-16.623-20.323-18.421a5.808,5.808,0,0,1-2.6-1.318c-17.481-14.661-38.479-21.935-59.8-28.546-2.509-.777-5.1-1.054-7.439.273-3.5,1.981-7.223,1.255-10.91,1.424-2.845.131-3.525-.991-3.807-3.71-.76-7.3,1-14.38,1.322-21.573.025-.551.747-1.271.569-1.6-4.3-7.974,1.911-16.113-.132-23.722-1.788-6.663-2.515-13.252-3.474-19.981-1.509-10.6,5.837-13.938,12.666-16.926,7.26-3.176,14.014-6.492,19.958-11.909,4.249-3.873,10-4.468,15.737-2.87,10.165,2.83,18.509-.488,25.806-7.6,6.292-6.131,14.588-8.055,22.011-3.681,11.461,6.75,24.038,9.035,36.751,11.271C1208.738,642.275,1209.811,642.75,1212.55,643.613Z" transform="translate(87.696 47.115)" fill="#7cbade"/>
      <path id="Path_193" data-name="Path 193" d="M787.389,558.964a3.593,3.593,0,0,0-.119-.958,12.7,12.7,0,0,1-1.822-6.079c-.335-16.5-.148-32.974,1.773-49.39,1.511-6.672,3.039-13.341,4.513-20.022.219-.988.337-2.044,1.465-2.287,4.564-.979,7.092-4.712,10.311-7.5,2.354-2.04,3.657-2,3.868,1.56.137,2.318.82,4.6,1.111,6.917.219,1.751,0,3.819,2.136,4.369,1.906.49,3.248-.977,4.525-2.221,1.547-1.506,3.086-3.02,4.686-4.468.719-.651,2.005-1.811,2.3-1.616,4.743,3.076,8.675.246,13.144-.9,2.416-.621,3.9-.1,5.679-2.841,1.642-2.528,5.62-.484,8.469.152a34.329,34.329,0,0,1,5.415,2.1c3.528,1.462,6.411,2.87,8-2.295.577-1.87,2.692-1.321,4.166-1.127,3.1.408,6.178.993,9.245,1.609,2.986.6,4.9-.516,6.033-3.3.647-1.583-.2-4.224,1.749-4.68,2.9-.679,7.174-1.792,8.827-.363,6,5.187,13.438,1.114,19.564,4.052.662.317,1.9-.132,2.268.294,7.9,9.215,18.72,4,28.11,5.741,1.713.318,3.547-.062,5.286.174,8.667,1.185,10.792,3.4,11.117,12.108.184,4.947,2.59,6.822,7.177,5.789,3.875-.873,9.06.9,10.654-5.115.476-1.8,1.99-.264,2.942-.046,9.609,2.2,10.231,1.934,14.736-6.672.259-.495.551-1.2.981-1.343,3.163-1.047,6.1.325,9.16.819,2.781.45,6.323-1.725,7.258,3.132.316,1.642,1.89,2.318,3.446,2.881,7.215,2.615,13.679,6.78,20.572,10.049,4.4,2.085,4.307,6.386,5.229,9.865,1.184,4.459,1.044,9.269,1.475,13.928a27.423,27.423,0,0,1-15.489,4.118c-4.77-.174-9.189.481-13.415,3.039-4.105,2.487-8.589,3.542-13.379,1.339-4-1.841-4.534.447-4.511,3.859.075,10.824-1.169,12.838-9.127,15.977-2.017.424-3.817-.251-5.658-.99-14.69-5.889-21.442-3.876-30.484,9.02a16.421,16.421,0,0,1-1.788,2.323c-7.2,3.5-12.541,1.308-16.864-6.9-1.073-9.726.029-19.518-1.149-29.287-.76,5-.485,10.058-.663,15.091-.225,6.366-1,7.157-7.245,6.8a28.025,28.025,0,0,0-19.274,5.591,7.122,7.122,0,0,1-3.886,1.053c-5.287-.214-8.267,2.38-9.7,7.339-1.383,4.778-3.447,8.783-9.765,7.052-1.6-.441-3.156,1.538-5.017.852-4.215-7.807-5.96-16.552-9.349-24.68-1.431-3.433-2.284-7.1-3.767-10.525-.894-2.064-1.021-5.143-4.016-5.174-3.023-.032-3.253,2.985-4.019,5.112-2.459,6.828-4.345,13.859-7.213,20.542-1.19,2.771-2.455,5.534-6.333,4.817-2.752-.99-4.031-3.608-6.023-5.443-5.115-4.705-10.616-4.316-14.324,1.508-2.29,3.6-4.97,5.676-9.228,6.279-3.1.441-5.785,2.3-8.306,4.206-6.191,4.672-9.309,4.206-13.847-2.1A34.331,34.331,0,0,1,787.389,558.964Z" transform="translate(36.214 18.005)" fill="#7ab7dc"/>
      <path id="Path_194" data-name="Path 194" d="M1187.292,924.93a13.661,13.661,0,0,1-3.839,10.7c-4.352,4.845-6.748,10.411-5.875,17.184,1.464,11.359-3.212,21.946-4.412,32.977-.208,1.913-.957,3.361-2.914,1.912-8.759-6.486-14.8-.629-21.228,4.306-6.718,5.157-17.969,3.149-22.675-4.058-2.344-3.591-6.473-4.267-9.5-6.662-5.212-4.118-10.175-8.68-17.41-8.761-.19,0-.388-.16-.567-.135-7.883,1.089-14.614-1.089-21.127-5.819-3.811-2.767-9.9-.836-13.551-5.653-1.467-1.932-3-3.24-2.785-5.868.272-3.349.494-6.783-3.336-8.631-1.6-.774-.527-1.967-.334-3.023,1.46-8.032,4.4-15.729,3.611-24.26-.37-4.009,1.929-8.26,3.005-12.4.812-3.124.052-5.8-3.343-6.3-4.629-.675-3.747-3.082-2.266-5.748a13.352,13.352,0,0,0,1.012-10.256c-.271-1.04-1.547-1.779-2.031-2.811-1.074-2.292-5.093.8-4.813-2.077.429-4.4,1.367-8.981,4.608-12.451a23.9,23.9,0,0,1,9.414-5.821c5.07-1.9,9.615-4.054,10.094-10.742.265-3.7,7.175-4.8,11.426-1.987,3.5,2.316,5.76,6.745,10.73,6.5,4.885-.24,6.42-5.487,10.368-7.264a9.786,9.786,0,0,0,3-2.778c6.285-7.4,12.749-8.378,20.844-3.1.986.643,1.965,1.3,2.962,1.924,2.813,1.766,6.3,3.337,1.308,6.7a3.1,3.1,0,0,0-1.019,3.755c2.3,5.133,1.024,10.435,1.1,15.678.091,5.792,7.073,12.678,12.931,12.883,13.432.472,13.427.472,14.168,13.828.417,7.515,2.366,14.179,9.155,18.7,3.726,2.481,4.017,8.421,9.5,9.576a16.277,16.277,0,0,0,3.857.051Z" transform="translate(83.852 84.527)" fill="#74b2db"/>
      <path id="Path_195" data-name="Path 195" d="M784.574,561.672c-4-.769-7.973-1.663-11.994-2.272-4.05-.613-7.291.058-9.972,4.087-2.116,3.177-5.109,6.487-9.785,6.5-4.32-7.67-6.743-16.19-10.9-24.143-1.667.254-1.475,1.924-1.937,3-6.244,14.57-12.094,29.308-18.7,43.721-.78,1.7-.746,4.494-3.8,4.368-10.98-3.441-21.85-7.157-31.935-12.825-1.557-2.327-.529-4.5.379-6.692,10.124-24.481,20.449-48.876,30.562-73.362.3-.726.6-1.453.884-2.184,2.5-6.414,2.2-6.877-4.836-6.9q-16.78-.049-33.561,0c-7.652.024-8.044.383-8.057,7.918q-.056,32.973-.019,65.945a29.418,29.418,0,0,1-.329,6.456c-.443,1.978-1,4.016-3.849,2.918a20.926,20.926,0,0,0-9.2-1.44,21.785,21.785,0,0,1-7.524-.921c-11.962-3.76-11.995-3.78-7.993-15.32,1.7-4.891-1.976-9.215-1.635-14.061.127-1.818-1.09-3.852-.134-5.7,2.712-5.248,1.05-9.612-2-14.156-4.938-7.365-4.52-14.731,1.085-21.6a13.548,13.548,0,0,0,3.059-8.528c.4-7.843,2.321-14.874,10.536-18.7,6.619-3.082,10.858-10.263,18.887-11.241,1.63-.2,2.163-2.037,2.329-3.723.249-2.514.633-5.014,1.139-8.9,4.619,5.084,10.553,6.406,15.086,9.831,5.307,4.008,10.38,3.931,15.9,1.425,6.416-2.91,12.638-6.289,19.177-8.879,14.265-5.649,28.924-6.684,43.588-1.751,7.695,2.589,15.769,2.614,23.55,4.5,5.349,1.295,10.646,2.6,15.534,5.181,8.172,4.312,10.355,11.663,6.357,20.1-1.319,2.784-1.851,5.942-2.742,8.93-2.3,2.05-5.139,1.62-7.84,1.632-11.554.051-23.108-.035-34.661.047-5.239.037-5.781.593-3.781,5.4,6.919,16.629,13.435,33.424,20.676,49.919a29.307,29.307,0,0,1,2.7,7.731C789.283,561.331,788.194,562.972,784.574,561.672Z" transform="translate(9.42 15.593)" fill="#73b1da"/>
      <path id="Path_196" data-name="Path 196" d="M884.906,593.36c.468,5.725-3.748,10.791-2.264,16.693a29.962,29.962,0,0,1,.065,13.276c-1.354,6.954,2.413,12.78,5.838,18.262,1.636,2.619,2.331,4.518,1.432,7.44a27.468,27.468,0,0,0-1.339,10.436c.223,2.632.608,5.692,2.512,7.04,9.245,6.545,13.37,16.876,18.745,25.948,7.375,12.444,12.246,26.229,13.2,41,.035.557.063,1.338-.26,1.662-7.936,7.962-10.907,19.235-20.578,26.714-7.081,5.477-13.126,5.968-20.606,5.819-7.26-.145-14.53-.2-21.789-.008-3.31.086-4.474-.871-4.274-4.326.269-4.6.889-9.266-1.963-13.657-.987-1.517-.421-4.239-.141-6.354,1.86-14.034.834-28.2,2.03-42.254,1.332-15.661-5.995-26.107-19.1-33.443-4.06-2.274-7.948-4.852-12.247-7.5,6.712-2.406,8.755-9.173,6.313-17.231-3.121-10.3-6.77-20.024-13.328-29-4.052-5.545-2.823-14.04-2.5-21.095.421-9.139-2.7-16.389-8.139-23.14a42.169,42.169,0,0,1-4.793-5.063c-4.844-5.893-4.386-9.05,1.935-13.272a9.151,9.151,0,0,1,3.078-1.643c6.1-1.2,10.967-3.588,14.339-9.481,2.3-4.012,6.732-2.569,9.675.1a74.444,74.444,0,0,1,9.256,9.54c-.964,9.059-5.174,17.158-7.678,25.765-.542,1.862-1.554,3.579-1.506,5.67,3.376-4.363,4.455-9.753,6.175-14.816,3.4-10.006,3.3-10.038,14.08-10.026,4.7.006,9.4.008,14.1-.036,3.449.08,6.373,1.078,7.888,4.52,1.13,5.362,3.148,10.467,4.654,15.72,1.1,3.827,3.062,6.662,6.648,8.372A10.625,10.625,0,0,1,884.906,593.36Z" transform="translate(38.555 30.962)" fill="#82bee1"/>
      <path id="Path_197" data-name="Path 197" d="M1037.037,557.127c.963.918,1.808,4.763,2.985.107a41.1,41.1,0,0,1,1.572-5.612c2.694-6.535,4.734-7.112,11.919-6.589,5.538.4,10.8-2.591,16.623-2.329,5.574.252,10.9-.192,14.742,5.011a6.351,6.351,0,0,0,4.1,2.019c10.709,1.117,20.62,6.109,31.484,6.429.514.015,1.012.535,1.517.819,6.863,8.5,4.052,19.43-6.083,23.38a25.651,25.651,0,0,1-17.238.563c-1.744-.53-3.362-1.97-6.294-.985a27.338,27.338,0,0,0,25.109,1.67c7.093-2.867,9.773-8.988,10.026-16.488.08-2.382-1.215-6.535,3.95-5.8,9.282,3.359,9.282,3.359,9.264,12.7-.007,4.123,0,8.245-.032,12.367-.013,1.546.176,3.1-.931,4.491s-5.246.772-3.131,4.191c1.8,2.911,1.93,7.279,7.745,6.633,5.557-.615,5.7,4.855,4.464,8.009-2.788,7.115-1.217,13.953.419,20.577,1.944,7.866.3,15.113-1.319,22.581-.555,2.557-2.049,3.143-4.22,2.9-2.912-.328-5.944-.37-8.688-1.263-8.684-2.826-15.37,1-21.176,6.513A32.436,32.436,0,0,1,1101.4,666.4c-1.667.556-3.644.918-4.835,2.049-6.9,6.551-12.981,4.843-21.214,1.023-17.193-7.978-34.675-15.341-51.651-23.849-5.189-2.6-11.028-3.933-16.62-5.686-5.03-1.577-4.29-4.13-1.251-6.937,5.145-4.751,10.109-9.711,15.2-14.472,4.412-4.129,5.447-8.432,4.66-13.548-.931-6.044-1.1-11.35,5.821-14a4.5,4.5,0,0,0,2.145-1.959c3.924-7.382,7.856-14.781,8.01-23.452.028-1.542.378-3.4-1.915-3.588-2.7-.221-2.619,1.913-2.592,3.635a17.053,17.053,0,0,1-3.623,11.508c-2.6,3.565-5.263,1.62-7.473-.258-5.159-4.383-6.52-10.471-6.712-16.887a3.74,3.74,0,0,1,3.422-4.11C1027.588,555.313,1032.492,554.368,1037.037,557.127Z" transform="translate(75.046 31.85)" fill="#7ab8dd"/>
      <path id="Path_198" data-name="Path 198" d="M736.9,743.1c-4.184-3.5-7.156-6.712-12.222-3.969-2.468,1.336-3.109-.935-2.938-3.3.511-7.108,3.124-13.719,4.963-20.474,4.765-17.5,11.121-34.506,17.233-51.574a43.843,43.843,0,0,1,3.012-6.375c.763-1.38,1.05-3.7,3.68-2.609,2.368.986,6.358.053,6.59,3.665.5,7.78,6.385,9.458,11.983,10.851,8.7,2.164,17.89,1.18,26.628,3.639,2.394.674,4.537-.276,5.49-3.125,1.242-3.711,4.327-5.971,7.261-8.278,3.654-2.873,8.032-5.193,7-11.119-.3-1.731,1.453-1.957,2.8-2.354,2.919-.858,5.421-2.341,6.56-5.379,1.812-4.831,5.533-2.7,6.576-.594,2.945,5.94,9.193,6.6,13.742,9.829,4.931,3.5,10.135,6.394,14.235,11.147a18.749,18.749,0,0,1,4.8,12.233,388.95,388.95,0,0,1-1.666,48.113c-.443,4.408-.669,8.613,1.47,13.109,1.862,3.915.888,8.835-.489,13.239-.706,2.254-2.662,3.554-4.414,3.042-4.122-1.206-7.572.37-11.318,1.352-3.783.992-7.185-.791-10.644-2.361-3.518-1.6-7.517-4.391-10.383,1.466-.835,1.706-3.267,1.967-5.273,2.083-7.75.443-12.657,4.149-14.71,11.893-1.8,6.771-11.731,10.554-14.787,5.123-3.341-5.938-7.437-9.256-12.745-12.269-.448-.253-.524-1.419-.524-2.162.021-18.1-1.948-21.021-18.614-25.527a19.688,19.688,0,0,1-9.063-4.8c-4.276-4.078-7.968-3.188-10.869,2.027C738.153,733.446,737.254,737.6,736.9,743.1Z" transform="translate(24.892 49.133)" fill="#7ebbdf"/>
      <path id="Path_199" data-name="Path 199" d="M917.524,1017.836c-2.052.093-6.2-.866-10.235.444-2.857.928-3.831-.356-3.124-2.847,2.977-10.488,3.3-21.506,7.253-31.865,4.813-12.627,6.531-26.158,9.759-39.257a4.069,4.069,0,0,0-.236-2.267c-5.8-15.326-4.3-31.209-3.217-46.958.591-8.57,1.179-8.191,9.82-8.208,5.424-.012,10.828.452,16.26.41,5.666-.045,10.578,3.571,15.577,6.155,1.734.9,3.211,2.751,4.985,3.032,11.984,1.906,16.065,11.99,21.069,20.649,10.456,18.092,21.452,35.9,29.792,55.174a114.935,114.935,0,0,0,11.742,20.239c3.674,5.215-.573,8.8-1.508,12.967-.783,3.494-3.813,5.408-7.629,5.176-3.039-.184-5.9.111-8.283,2.2-2.609,2.285-5.219.82-7.751-.015-7.06-2.329-12.78-3.205-19.825,2.712-5.8,4.87-15.131,6.539-23.464,3.415-8.776-3.289-17.642-3.2-26.626-1.682C927.777,1018,923.683,1017.87,917.524,1017.836Z" transform="translate(57.334 93.127)" fill="#75b4dd"/>
      <path id="Path_200" data-name="Path 200" d="M714.834,956.585c-1.113-4.253.425-7.431,7.14-7.1,2.075.1,4.243-1.8,6.374-2.768,3.937-1.794,7.3-3.71,12.3-1.266,6.346,3.1,8.108-3.984,10.5-7.537,1.726-2.566,2.672-4.951,6.1-5.194.709-.05,1.926-.623,1.979-1.068.82-6.75,6.77-5.258,10.658-7.453,5.835-3.294,6.724-10.732,7.7-17.081.519-3.383,1.164-6.456,3.021-9.33,3.095-4.791,3.767-10.294,3.867-15.781.069-3.865,1.67-4.365,4.742-3.2,1.087.412,2.428.63,3.172,1.4,8.118,8.417,19.567,9.42,29.663,13.4a11.316,11.316,0,0,0,4.62.567c8.574-.448,10.9.759,14.1,9.462,2.562,6.965,4.661,13.988,8.549,20.488,3.19,5.336,9.231,8.577,10.656,15.1.124.569,1.138,1.066,1.838,1.363,3.309,1.4,7.376,1.8,6.344,7.314-.664,3.557-.323,6.933-2.6,10.472-5.666,8.814-11.984,17.255-19.673,24.033-8.383,7.39-17.516,14.285-29.02,17.12-8.659,2.135-17.531,3.609-25.7,7.852-3.455,1.794-7.177-1.589-10-3.872-9.8-7.916-17.58-18.385-29.914-23.094-2.085-.8-4.416-2.288-6.03-.812-4.481,4.1-6.552,1.374-8.9-2.261-1.744-2.693-3.687-3.129-6.765-.927-5.137,3.674-9.307,2.157-11.588-3.536a47.678,47.678,0,0,1-2.566-7.727C714.912,962.877,715.054,960.468,714.834,956.585Z" transform="translate(23.608 91.591)" fill="#74b2db"/>
      <path id="Path_201" data-name="Path 201" d="M742.272,557.448c3.6-2.913,7.992-4.9,10.565-9.007,1.322-2.111,3.433-1.709,5.26-1.434,4.2.633,8.358,1.566,12.533,2.377,7.22-.644,9.923,3.773,12.267,9.776q7.066,18.093,14.669,35.988a15.1,15.1,0,0,1,1.305,6.04c-.578-15.27-.508-30.553-.3-45.836a5.2,5.2,0,0,1,1.423-3.76,2.634,2.634,0,0,1,3.275.092c5.847,5.016,12.506,9.388,14.506,17.583,8.919,10.7,7.252,23.843,8.057,36.3.305,4.712.84,8.789,4.214,12.325,8.009,8.4,9.846,19.294,11.354,30.106.693,4.971-3.344,7.5-7.861,5.035-5.693-3.109-9.133-2.037-11.321,4.039-1.006,2.8-3.855,3.382-6.319,3.62-3.275.316-4.9,1.692-3.831,4.824,1.225,3.581-.62,5.532-3.008,7.463-3.791,3.064-8.118,5.593-10.155,10.391-.818,1.922-2.649,1.765-4.055,1.25-6.225-2.281-12.7-2.117-19.154-2.339-3.184-.11-5.969-1.686-8.887-2.84-3.691-1.46-2.972-4.559-3.516-7.35-.794-4.063-4.653-4.008-7.477-4.535-4.7-.879-5-3.051-2.762-6.439,2.619-3.969,2.99-8.509,3.129-12.956.145-4.611-3.141-7.036-6.175-4.414-5.918,5.113-11.189,1.7-16.938.494-7.374-1.542-11.7-5.52-13.182-12.968-.563-2.831-2.047-5.491-3.2-8.191-2.468-5.773-5.26-11.35-.772-17.622,1.561-2.182,1.142-5.578.278-8.058-2.656-7.63.988-12.769,6.056-17.562,5.593-2.658,6.907-2.311,9.679,2.987a109.212,109.212,0,0,1,6.451,15.741c1.423,4.214,3.961,5.782,8.29,5.759,15.571-.082,12.716.534,8.111-11.592-3.614-9.517-8.186-18.631-11.829-28.136C742.062,562.282,740.4,560.032,742.272,557.448Z" transform="translate(23.436 32.579)" fill="#7ab8dd"/>
      <path id="Path_202" data-name="Path 202" d="M1007.3,669.873c12.6-.3,13.894.853,14.5,13.533.313,6.569,1.686,11.932,7.06,17.05,3.83,3.647,8.82,8.152,9.113,14.748a4.918,4.918,0,0,0,1.153,3.263c9.521,8.011,3.427,16.965,1.286,25.367-2.257,8.862-3.011,8.7-11.572,13.494a16.961,16.961,0,0,1-8.91,2.042c-3.281-.014-6.507-.36-9.527,1.918-1.872,1.411-4.658.932-6.826.048a23.3,23.3,0,0,0-13.229-1.587c-3.168.584-3.794-.972-3.8-3.506-.009-2.942-.395-5.938.039-8.813.878-5.812-2.173-7.954-7.16-7.8a16.433,16.433,0,0,1-12.649-4.991c-3.322-3.2-8.511-3.172-12.044-5.921-8.094-6.3-18.19-8.3-26.954-13.133-4.022-2.217-8.569-3.139-13.064-1.505-3.721,1.352-5.045.031-5.254-3.541-.726-12.406-6.72-23.184-10.737-34.575-.587-1.666-2.881-3.371-.55-5.177,2.257-1.748,4.358-3.982,7.8-3.243a156.165,156.165,0,0,0,29.553,3.429c2.653.054,4.912,1.193,7.358,1.809,5.047,1.271,8.524-1.669,8.065-6.842a5.529,5.529,0,0,0-.534-2.269c-4.424-7.515-.641-15.091-.176-22.624.152-2.48,1.95-3.78,4.34-4.037,2.846-.305,2.244,1.941,2.573,3.573a5.215,5.215,0,0,0,1.166,2.569c1.494,1.5,14.8,1.557,16.6.015,3.619-3.1,7.258-3.831,11.769-1.654,4.824,2.328,10.1,2.774,15.5,2.5,4.971-.251,6.135,1.93,4.024,6.537-1.888,4.121-3.822,8.048-8.26,10.239a5.931,5.931,0,0,0-3.07,7.031c.826,3.366,3.867,1.733,5.957,1.993A52.524,52.524,0,0,0,1007.3,669.873Z" transform="translate(56.125 48.637)" fill="#8ac2e3"/>
      <path id="Path_203" data-name="Path 203" d="M872.916,1016.7c-12.55,0-25.1.048-37.648-.014-10.6-.053-20.936,2.489-31.558,2.742-9.165.219-14.8-5.662-21.248-9.951-3.535-2.351,1.07-3.936,2.646-4.451a176.5,176.5,0,0,1,19.757-5.483c13.042-2.636,23.244-10.331,32.62-18.819,8.379-7.585,15.159-16.84,21.4-26.381,3.7-5.662,2.639-12,1.559-17.608a89.082,89.082,0,0,1-.7-29.513c.284-2.047.446-3.223,3.1-2.751,22.5,4,45.392,2.954,68.04,5.122,2.195.21,3.144.838,3.255,3.072.271,5.473.8,10.936,1.036,16.41.134,3.157.107,6.287,2.04,9,1.425,2,.874,4.149.342,6.22-3.5,13.615-5.883,27.462-10.673,40.819-3.183,8.88-4.161,18.607-5.57,28.037-.521,3.487-1.9,4-4.872,3.978-14.506-.1-29.014-.047-43.521-.047Z" transform="translate(35.475 96.24)" fill="#75b4dd"/>
      <path id="Path_204" data-name="Path 204" d="M968.675,596.036c-2.754,7.81-3.422,16.031-4.711,24.126a7.509,7.509,0,0,1-3.5,5.75c-8.67,5.452-10.446,10.417-8,20.616,1.65,6.882-.993,13.168-3.789,19.109-1.262,2.679-1.655,4.554-.172,6.976.808,1.319,1.83,2.741,1.965,4.19.236,2.526,2.488,5.377.965,7.336-1.919,2.468-4.494-.814-6.851-.782-8.254.115-16.344-1.395-24.5-2.256-2.327-.246-4.64-.075-6.873-1.153-4.231-2.045-7.7.092-10.672,2.718-2.841,2.509-4.524,1.82-5.551-1.352-1.835-5.669-7.453-9.1-8.754-15.078a2.716,2.716,0,0,0-1.652-1.566c-7.326-2.336-5.74-8.051-4.6-13.082,1.258-5.533,1.365-9.753-2.449-15.1-3.07-4.308-6.847-10.6-3.525-17.257a7.358,7.358,0,0,0,.14-5.2c-1.4-5.4-1.987-10.688.921-15.92,1.2-2.151.618-4.594-.61-6.761-1.718-1.761-1.635-4.037-1.177-6.068,2.15-9.536-1.669-17.236-7.4-24.247-2.381-2.912-2.79-4.629,1.463-5.432,4.49-.847,6.211-4.313,7.65-8.057.759-1.97,1.1-4.233,3.5-5.087,4.032.653,2.321,3.525,1.728,5.382a38.232,38.232,0,0,0-1.58,13.9,23.552,23.552,0,0,0,32.9,20.143c3.037-1.335,3.761-3.675,3.783-6.6.052-7.04-.061-14.081.063-21.119.045-2.47-.39-5.192,2.164-6.923,4.613-.077,8.515,2.272,12.682,3.727,1.928,2.812,1.138,6.049,1.376,9.116,1.107,14.248,11.042,24.329,23.289,23.568,2.894-.18,5.753-1.371,8.706-.333C970.55,587.136,971.174,589.727,968.675,596.036Z" transform="translate(50.599 31.809)" fill="#84bee0"/>
      <path id="Path_205" data-name="Path 205" d="M874.7,890.536a11.411,11.411,0,0,1-4.6,10.75,14.485,14.485,0,0,0-5.6,9.346c-1.682,11.5-3.942,22.981-2.238,34.71.238,1.642,1.38,3.926-.88,4.577-2.33.673-2.764-1.818-3.017-3.435-.574-3.672-4.451-4.229-6.066-6.869-3.862-6.315-8.43-12.16-9.752-19.872-.82-4.785-3.479-9.167-6.5-13.05A12.152,12.152,0,0,0,825.78,902c-14.833.073-27.866-4.56-38.032-15.731-4.722-5.188-9.677-10.166-13.794-15.929-2.522-3.531-6.536-5.322-10.58-7.083-7.332-3.191-15.4-5.487-16.5-15.915-.47-4.443-5.664-7.251-7.867-11.5-1.315-2.536-2.025-3.992,1.111-5.252,8.651-3.474,15.178-10.662,23.33-14.439a216.208,216.208,0,0,0,23.541-12.6c1.949-1.213,2.816-.011,3.775,1.334,9.95,13.942,23.144,24.813,34.972,36.978a12.023,12.023,0,0,0,7.654,3.7c3.035.385,7.665-.345,7.382,5.2,5.811.474,8.457,5.584,12.674,8.306a6.249,6.249,0,0,0,9.067-2.391c.806-1.55,3.454-2.155,5.335-1.435,1.8.687,1.014,2.747,1.015,4.2a64.639,64.639,0,0,0,3.82,20.686C873.816,883.486,875.027,886.8,874.7,890.536Z" transform="translate(27.772 78.202)" fill="#7ab7dc"/>
      <path id="Path_206" data-name="Path 206" d="M1009.1,887.684c4.626-.647,8.481.81,12.031,3.694,2.157,1.752,4.587,2.8,7.624,1.635,5.207-2,10.215-3.486,16.286-3.159,4.886.263,9.41.615,13.955,2.27,2.938,1.07,5.938,1.991,8.952,2.831,7.286,2.031,8.207,3.459,4.813,10.013-1.662,3.21-1.519,6.01-1.245,9.423.548,6.875-2.177,13.394-3.82,20-.478,1.925-1.8,4.7-.117,5.418,5.406,2.317,3.8,6.84,4.318,10.786.471,3.626,3.849,4.809,6.206,6.657,2.284,1.792,2.7,3.315,1.444,5.84-3.026,6.079-4.989,12.76-11.658,16.38-3.1,1.68-2.89,4.831-1.617,7.823,1.169,2.751.614,4.333-2.66,4.9a41.609,41.609,0,0,0-7.208,2.37,9.514,9.514,0,0,1-8.968-.755c-8.1-5.119-16.66-7.861-26.089-3.989-2.432,1-2.726-.766-3.388-1.967-6.225-11.3-12.266-22.654-17.853-34.317-7.072-14.764-16.2-28.54-24.456-42.739-1.57-2.7-2.8-5.71-4.837-8-4.212-4.739-1.217-6.583,2.786-8.3C984.95,889.619,997.111,889.01,1009.1,887.684Z" transform="translate(68.876 93.243)" fill="#77b6dc"/>
      <path id="Path_207" data-name="Path 207" d="M986.525,817.934c-.227,1.5-.73,3.2.472,4.05,9.771,6.876,11.552,18.282,15.572,28.2,4.679,11.542,12,19.465,23.955,23.076a94.443,94.443,0,0,1,9.9,3.633c2.629,1.127,4.5,2.831,4.242,6.254-.261,3.49,1.632,5.541,5.289,5.55a5.225,5.225,0,0,1,3.771,1.281c2.725,2.483,5.307,2.2,7.512-.686,3.063-4,6.55-3.732,10.247-1.109,2.8,1.984,5.715,3.647,9.257,2.757,2.81-.707,2.911.906,2.884,2.834-.1,7.051-3.65,9.875-10.062,7.486-10.592-3.946-21.037-4.386-31.446.356-2.017.919-3.869,1-5.435-.488-5.632-5.355-12.694-5.289-19.4-4.21-13.362,2.15-27.5,1.827-38.973,11.025-2.719,2.181-5.739.165-8.272-1.13-5.745-2.937-11.262-6.26-17.149-9-6.153-2.863-12.536-1.06-18.673-2.368-.347-.074-.755.186-1.141.238-10.52,1.421-12.409-.17-10.892-10.476,1.765-11.983,3.909-23.918,6.236-35.805a15.207,15.207,0,0,0-.5-8.575c-1.763-4.8-1.078-9.534.027-14.4,1.219-5.375,4.481-5.967,8.643-4.134,6.761,2.977,13.266,4.387,20.064-.016,1.45-.939,3.817-.365,5.713-.73,7.093-1.37,13.9-3.466,18.657-9.381a2.383,2.383,0,0,1,3.513-.693C983.068,813.093,986.841,813.757,986.525,817.934Z" transform="translate(59.787 79.614)" fill="#7bb9de"/>
      <path id="Path_208" data-name="Path 208" d="M1034.26,766.5c-10.071.019-10.634.621-7.654,9.582,2.252,6.772.935,13.62,1.03,20.436.1,7.324,1.513,9.384,8.6,10.986a49.828,49.828,0,0,0,19.819.594c7.675-1.343,9.383.319,6.942,7.488-2.258,6.63-3.613,13.925-10.555,18.158-4.307,2.627-3.368,7.5-3.512,11.8-.064,1.911,1.325,4.652-1.715,5.514-2.878.816-4.793-.814-6.293-3.18a24.262,24.262,0,0,0-9.3-8.775c-3.1-1.614-5.476-1.26-7.118,2.322-3.858,8.417-9.92,15.444-15.053,23.051-3.381,5.009-7.518,4.438-9.762-.954-2.932-7.043-6.072-14.009-8.719-21.159-2.105-5.684-7.456-9.351-8.43-16.048-.474-3.256-5.861-5.7-9.9-6.414-3.593-.64-4.464-2.58-3.515-5.19,2.73-7.516-1.1-13.219-4.674-19.036-1.986-3.23-3.538-5.9,1.427-8.188,2.947-1.356,2.526-4.842,1.814-7.431a30.357,30.357,0,0,1,.783-18.456,11.955,11.955,0,0,0,.5-2.879c.81-9.67,7.578-14.5,17.332-11.777,6.147,1.716,11.6,1.507,18.064.163a198.967,198.967,0,0,0,20.671-5.064c3.217-1.034,6.171-1.833,8.778-4.186,3.211-2.9,6.094-1.945,6.542,2.361a178.181,178.181,0,0,1,1.322,23.427C1041.521,769.241,1036.331,765.115,1034.26,766.5Z" transform="translate(67.769 66.3)" fill="#81bce0"/>
      <path id="Path_209" data-name="Path 209" d="M985.968,666.778c5.478-3.8,7.065-9.74,9.9-14.787.706-1.257,1.169-2.752.483-3.95-4.69-8.2,3.154-12.857,5.426-19.026.774-2.1,3.385-1.164,5.283-.564,15.509,4.9,30.125,11.843,44.465,19.414,9.713,5.128,20.639,7.387,30.193,12.977,3.163,1.852,4.254,3.827,4.366,7.391.266,8.495-1.513,17.2,3,25.357,1.151,2.08.871,5.631-.034,8.022-1.59,4.2-2.787,8.084-.72,12.418.8,1.677.049,3.134-1.686,3.787-4.217,1.592-6.343,5.111-8.175,8.832-3.579,7.263-11.412,7.933-17.526,10.859-9.3,4.452-18.131,10.067-28.21,12.861-1.236.343-2.385,1.878-3.675.6-1.1-1.093-.68-2.632,0-3.847,2.785-5.018,1.522-11.165,4.849-16.159,1.7-2.553-.319-5.328-2.307-7.323a18.637,18.637,0,0,1-5.829-11.244c-.781-6.879-6.227-10.753-10.506-15.046a13.515,13.515,0,0,1-4.442-9.05c-.029-.39-.015-.784-.035-1.176-.98-18.951-2.692-20.581-21.353-20.348C988.275,666.79,987.121,666.778,985.968,666.778Z" transform="translate(71.937 46.987)" fill="#84bfe1"/>
      <path id="Path_210" data-name="Path 210" d="M880.61,808.973c3.349,5.758,8.316,7.552,13.827,8.637a15.629,15.629,0,0,1,6.623,3.687c1.335,1.1,3.564,3.017,4.334,2.6,6.869-3.7,10.173,2.724,14.947,4.85a45.436,45.436,0,0,0,5.96,2.484c3.07.869,3.533,2.762,4.373,5.772,3.9,13.99-1.574,27.012-3.538,40.305-1.945,13.155-4.254,26.25-4.825,39.545-.16,3.719-1.078,5.663-4.968,5.107-9.1-1.3-18.343-.368-27.425-2.016-4.787-.869-9.549-1.642-14.549-.617-8.494,1.741-16.588-1.348-24.8-2.866-1.485-.274-2.7-.661-2.1-2.625,1.022-3.327,1.3-6.911,4.378-9.365,7.682-6.128,8.28-14.174,5.749-22.88-2.294-7.889-4.769-15.675-4.787-24.072-.009-4.246,1.484-5.664,5.457-5.166,1.159.145,2.351.007,3.527.044,8.212.259,8.41.212,6.246-8.158-1.209-4.677-.595-9.354-1.061-14-.307-3.066,2.33-3.778,3.525-5.627C874.64,819.76,879,815.654,880.61,808.973Z" transform="translate(47.431 79.257)" fill="#7cb9de"/>
      <path id="Path_211" data-name="Path 211" d="M985.339,742.812c.816,4-.012,8.021-4.175,11.959-3.831,3.622-1.278,9.738-2.727,14.672-1.243,4.229-2.982,6.216-7.007,8.539-8.911,5.142-18.806,6.162-28.239,8.829-8.958,2.534-18.4,3.406-27.668,4.762-2.972.435-5.9-.33-7.628-3.267-4.648-7.907-12.2-8.23-19.591-6.334-4.5,1.156-4.5-.234-4.333-3.529.226-4.474-.814-8.985.571-13.434.978-3.139-1.372-4.122-3.625-4.994-4.236-1.642-4.594-3.949-1.852-7.511,3.646-4.733,8.038-9.039,9.6-15.14a3.583,3.583,0,0,1,1.694-2.317c8.38-2.788,11.314-10.428,15.248-17.08,8.006-13.534,14.287-14.517,28.563-8.185,9.4,4.168,18.175,9.508,27.7,13.291a31.461,31.461,0,0,1,8.467,5.207c2.516,2.087,5.373,3.766,8.5,3.447,5.785-.59,7.247,2.049,6.516,7.108A35.475,35.475,0,0,0,985.339,742.812Z" transform="translate(52.593 60.928)" fill="#85c0e2"/>
      <path id="Path_212" data-name="Path 212" d="M773.9,782.035c.29-1.628-.673-4.322,1.678-5.445,2.307-1.1,3.869,1.205,5.646,2.276a7.737,7.737,0,0,1,2.436,1.6c5.622,7.973,13.731,5.343,21.323,5.226,4.559-.072,9.35-.531,11.82,4.982,1.318,2.944,4.374,3.181,7.178,2.7a84.563,84.563,0,0,0,19.471-6.251,34.964,34.964,0,0,1,23.726-1.588c5.635,1.508,11.486,3.613,17.568,3.478,2.661-.06,3.633.595,2.388,3.367-1.923,4.28-3.512,8.56-7.339,11.82-4.93,4.2-4.127,6.689,2.184,8.679,7.683,2.421,7.775,2.487,3.079,9.093-1.873,2.636-3.076,6.059-6.786,6.98-2.165.537-1.821,2.378-1.7,3.842.449,5.457-.7,10.989.888,16.4.836,2.839.034,4.439-3.373,4.349-8.06-.213-15.975.323-22.817,5.454-1.33,1-2.755.581-2.967-1.322-.445-4.008-3.09-5.081-6.563-5.263-.742-.039-2.067-.279-2.116-.584-1.011-6.472-6.69-5.226-10.548-5.792-5.922-.869-9.748-4.614-12.79-8.655-6.434-8.544-15.675-14.175-22.1-22.7-6.47-8.587-13.172-16.99-19.038-26.017C773.888,786.723,773.739,784.641,773.9,782.035Z" transform="translate(34.173 73.44)" fill="#7cb9de"/>
      <path id="Path_213" data-name="Path 213" d="M897.873,736.84c-2.806,4.067-4.6,7.1-6.826,9.793-3.349,4.056-2.479,7.229,1.753,9.593,3.412,1.9,4.058,4.532,3.979,8.218-.121,5.642-.331,11.313.841,16.963.892,4.294-4.92,10.508-9.342,10.746-7.157.385-13.738-2.606-20.378-4.265-9.384-2.344-17.986-1.205-26.6,1.61-3.827,1.251-7.264,3.99-11.3,4.805-4.433.9-9.1,3.461-12.654-2.737-1.622-2.834-6.566-4.054-9.555-3.533-5.725,1-11.127-1.475-16.692-.323-2.87.594-3.5-2.665-5.506-3.583-5.765-2.639-8.375-6.517-5.268-12.795a4.453,4.453,0,0,0,.148-1.16c1.54-8.8,1.546-8.9,10.333-8.476,4.987.238,8.086-2.3,9.053-6.685,1.728-7.825,5.721-11.273,14-13.16,6.7-1.527,12.349-3.642,18.951-.369,1.838.911,4.611.057,6.939-.163,10.669-1.01,20.8-5.327,31.817-4.591C879.933,737.288,888.364,736.84,897.873,736.84Z" transform="translate(35.091 66.38)" fill="#81bde1"/>
      <path id="Path_214" data-name="Path 214" d="M866.66,809.388c1.765-2.442,3.888-4.283,4.607-6.566,3.115-9.873,11.261-16.319,16.436-24.781,3.456-5.651,13.791-5.151,17.732.806,3.767,5.693,8.623,6.748,14.689,5.5,12.01-2.473,24.25-3.322,36.2-6.767,6.212-1.791,12.209-3.369,17.771-6.652,1.615-.954,3.839-2.258,4.837.551.831,2.341,3.154,5.432-.449,7.252-5.5,2.781-4.61,6.484-2.267,10.7a8.07,8.07,0,0,0,.781,1.574c6.9,7.586,4.366,16.754,4.308,25.5-.006.974-.087,2.464-1.074,2.442-3.97-.092-6.35,4.5-9.007,4.416-9.614-.306-18.4,8.118-28.763,1.627-5.888-3.687-10.828-.662-13.391,6.146-1,2.645-2.08,4.037-5.047,2.459-2.744-1.461-6.033-2.184-8.336-4.12-3.561-2.992-6.21-7.645-11.733-3.368a1.136,1.136,0,0,1-1.1-.029c-5.852-6.96-17.2-4.626-22.172-13.2-1.377-2.377-4.107-2.758-6.782-2.718C871.6,810.2,869.243,810.658,866.66,809.388Z" transform="translate(50.697 72.279)" fill="#82bde1"/>
      <path id="Path_215" data-name="Path 215" d="M1031.291,588.058c.206,2.929.206,5.89.666,8.779.748,4.705-.041,8.171-3.922,11.86-11.3,10.747-22.5,21.8-28.531,36.685-1.246,3.073-3.138,3.754-6.2,3.978-6.321.462-11.995-1.432-17.607-3.827-2.672-1.14-4.874-1.78-7.293.982-3.255,3.713-9.22,5.09-11.873,2.189-3.692-4.041-8.509-5.437-12.2-8.508-4.17-3.473-1.157-13.87,3.859-16.485a11.974,11.974,0,0,0,6.848-9.556c1.018-7.142,2.262-14.252,3.409-21.375,1.617-3.707-2.06-7.638.471-11.3,1.222-1.389,1.984-.432,2.669.581.626.925.877,2.256,2.559,1.544,4.945-2.093,9.2.565,13.272,2.508,9.592,4.581,18.482,3.646,27.028-2.3,5.089-3.54,17.656-3.236,22.785-.049C1029.165,584.963,1028.185,588.408,1031.291,588.058Z" transform="translate(64.175 38.632)" fill="#7ab8dd"/>
      <path id="Path_216" data-name="Path 216" d="M1029.366,599.947c-.554,1.16-1.107,2.322-1.888,3.962-.11-6.625-4-7.938-9.409-8.932-6.773-1.246-11.857-.068-17.785,3.826-7.96,5.229-16.933,5.216-26.108.384-3.147-1.656-8.412-7.049-12.877-.359-.891,1.335-2.063.494-2.341-1-.313-1.683.412-3.58-1.053-5.023a6.9,6.9,0,0,1-2.826-11.307c7.37-10.473,7.334-21.562,2.88-33.049a6.755,6.755,0,0,1-.677-4,3.35,3.35,0,0,1,1.448-1.788c6.2-2.51,8.187-7.442,8.979-13.725.722-5.732,2.292-6.1,7.167-3.032,1.276,2.58.955,5.364.963,8.085.034,15.084-.014,30.167.028,45.251.022,8.181,1.29,9.186,9.6,9.574,23,1.074,31.081-20.412,27.136-35.318-3.2-12.1-12.373-18.1-24.762-16.371-10.747,1.5-11.461.794-10.133-9.97,4.289-5.955,10.525-8.6,17.458-8.807,6.4-.188,12.322-1.334,17.918-4.348,4.1,2.247,8.78.558,13.07,2.038,5.546,1.912,10.712,9.562,9.546,15.193-.4,1.915.283,3.4,1,4.977,1.063,2.006-.168,3.354-1.406,4.627-8.926,9.193-10.585,20.065-7.677,32.121a20.292,20.292,0,0,0,7.36,11.679c1.663,1.305,3.685,2.349,4.247,4.679-.952,3.217-4.008,4.241-6.38,5.872C1031.033,596.436,1029.5,597.6,1029.366,599.947Z" transform="translate(66.1 26.744)" fill="#7ab8dd"/>
      <path id="Path_217" data-name="Path 217" d="M661.9,571.9c3.594-.661,2.448-3.54,2.454-5.649.067-24.128.234-48.26-.1-72.385-.08-5.827,1.74-7.194,7.284-7.031,13.524.4,27.071.292,40.6.028,4.578-.09,5.444,1.25,3.756,5.269-9.165,21.814-18.377,43.61-27.307,65.52-2.718,6.669-6.224,13.051-7.865,20.148Q671.315,574.848,661.9,571.9Z" transform="translate(14.244 21.903)" fill="#73b1da"/>
      <path id="Path_218" data-name="Path 218" d="M765.374,555.35c3,.135,3.78-1.066,2.607-3.886-3.97-9.546-7.842-19.131-11.739-28.706-4.2-10.308-8.117-20.736-12.674-30.88-2.195-4.885-.217-5.022,3.7-4.991,15.086.119,30.174.041,45.261.038-.791,6.959-2.866,13.711-4.2,20.539-.925,4.713-2.857,9.7-4.344,14.579-2.64,8.666-1.907,16.8,1.284,25.124,2.435,6.355.724,8.075-6,7.109-2.733-.393-5.465-.445-8.009.98C769.329,556.336,767.366,557.3,765.374,555.35Z" transform="translate(28.62 21.915)" fill="#73b1da"/>
      <path id="Path_219" data-name="Path 219" d="M983.659,587.24c1.172,2.006,3.448,3.276,3.858,5.79-.634,3.932.893,8.117-1.377,11.859.157-2.388-.649-3.87-3.354-3.566-.4-4.206,1.346-9.084-3.7-11.835a11.7,11.7,0,0,1-5.953-6.165c-1.9-3.615-1.341-7.113.246-10.712,1.4-3.172-1.823-14.641-4.431-16.716-1.23-.98-2.582-.62-3.933-.511a80.849,80.849,0,0,0-12.8,1.613c-2.064.088-4.222,1.315-6.132-.488-4.4.379-8.15-1.339-11.711-3.657-3.078-.664-4.613-3.713-7.429-4.783-1.821-.869-3.848-1.6-5.547-.28-5.687,4.422-11.767,2.772-17.872,1.516-3.119-.179-6.053-1.979-9.3-1.026-.821,2.393-1.476,4.858-2.5,7.16-2.026,4.557-4.679,8.391-11.75,6.536a39.335,39.335,0,0,1,11.489,19.6c1.417,5.225-1.971,9.976-.9,15.066l-3.6,1.164c-1.928-2.522-.677-5.5-1.171-8.221-.315-5.6-.879-11.068-3.7-16.171-1.894-3.423-6.221-4-7.853-7.511-1.371-3.025-3.891-3.859-6.959-3.645-4.607-.767-9.325-.249-13.911-1.1-4.829-.9-9.639-1.986-12.082-7.045a19.215,19.215,0,0,1-7.331-6.334c-4.52-5.98-9.229-5.538-12.329,1.232-1.55,3.386-3.584,4.971-7.047,4.9-2.7-.055-4.938,1.149-7.139,2.373-7.019,3.9-7.36,5.756-2.265,11.736a15.249,15.249,0,0,1,3.4,6.079c-1.445-.091-3.509-2.106-3.862,1.235-4.279-7.032-10.314-12.44-16.43-17.773-.948-.4-1.84-.84-1.285-2.144l.106-4.958c.888.755,1.826,1.461,2.658,2.275,6.035,5.9,6.013,5.889,12.983.816a14.667,14.667,0,0,1,3.6-1.92c5.883-2.126,11.479-3.948,14.882-10.39,2.224-4.211,10.3-2.9,14.522,1.489,1.615,1.681,2.926,3.654,4.376,5.494,2.938.839,6.208.879,8.423,3.472,5.614,2.223,11.58,2.8,17.462,3.777,3.078,1.282,7.169-.307,9.425,3.3,2.49-.944,4.3-5.2,7.8-1.372.909,1,2.17-.049,2.8-1.174a34.2,34.2,0,0,0,1.9-3.647c4.1-10.063,4.09-10.069,14.531-10.142a12.455,12.455,0,0,1,5.733.12,12.287,12.287,0,0,0,9.435-1.434c6.226-3.407,10.934-2.2,15.483,3.613,3.932,5,8.16,9.244,15.316,5.95,2.277-2.261,5.477-1.24,8.093-2.29,7.093-1.1,14.848.814,20.987-4.623a19.933,19.933,0,0,1,8.595-3.711c7.808-3.985,8.882-6.078,8.079-15.743-.529-6.365.807-7.465,6.61-4.574,5.427,2.7,10.038.51,14.2-2.169,2.5-1.61,4.785-2.686,7.516-2.248,6.973,1.117,13.3-2.322,20.055-2.565q.06.733.121,1.471c-2.936,5.63-8.512,5.922-13.527,5.585-8.145-.548-14.4,3.142-20.73,7.2-2.023,1.66-3.3.091-4.669-1.079-2.774-1.074-5.312-1.91-4.967,2.792.093,1.273-1.006,2.667-.821,3.895.867,5.74-2.193,8.516-7.074,10.224a21.275,21.275,0,0,0-3.5,2.012c-.888,2.185-2.813,3.323-4.612,4.593-6.37,4.122-6.85,5.272-2.852,11.5,2.906,4.527,3.66,8.847,1.13,13.658a6.768,6.768,0,0,0-.737,5.6C981.448,582.548,983.367,584.513,983.659,587.24Z" transform="translate(36.486 26.521)" fill="#fff"/>
      <path id="Path_220" data-name="Path 220" d="M740.955,555.836c2.585,10.1,7.78,19.156,11.522,28.793,1.912,4.922,3.937,9.809,6.155,14.6,1.541,3.329,1.484,5.3-2.9,4.98a5.448,5.448,0,0,0-.589,0c-16.241.49-16.245.491-22.491-14.436-.906-2.166-1.87-4.319-2.61-6.543-1.513-4.533-4.163-6.8-9.106-5a96.812,96.812,0,0,0,8.869-15.709C731.728,557.979,736.634,557.091,740.955,555.836Z" transform="translate(24.753 34.191)" fill="#7ab8dd"/>
      <path id="Path_221" data-name="Path 221" d="M704.993,583.468c8.917-17.828,15.66-36.616,24.411-56.461,3.268,11.114,9.508,19.336,10.926,29.513-8.4,2.543-12.221,9.173-15.631,16.59-2.07,4.5-5.547,8.342-8.236,12.579-2.413,3.8-4.812,4.677-7.921.719A21.218,21.218,0,0,0,704.993,583.468Z" transform="translate(21.915 29.058)" fill="#73b1da"/>
      <path id="Path_222" data-name="Path 222" d="M791.433,549.384l1.285,2.145c-2,1.676-1.246,3.982-1.255,6.035-.059,14.844-.032,29.689-1.024,44.95-2.758-6.372-5.583-12.716-8.255-19.122-3.3-7.906-6.781-15.755-9.583-23.837-1.888-5.444-4.191-9.749-10.6-10.138,5.779.411,11.489-2.552,17.343-.307a3.2,3.2,0,0,0,2.746-.59C785.609,545.21,788.555,546.6,791.433,549.384Z" transform="translate(32.064 32.545)" fill="#7ab8dd"/>
      <path id="Path_223" data-name="Path 223" d="M1028.415,585.965c-19.106-7.749-18.254-39.911-4.058-50.072a4.133,4.133,0,0,0,1.535-3.033c1.422,1.727,1.741,3.878,2.284,5.943-.653,3.236-3.982,4.77-4.967,7.764-.614,1.87-2.659,4.385.2,5.526,2.49,1,5.814,1.7,7.745-1.616.663-1.137.54-2.7,1.834-3.526,2.321,3.684-.182,8.253,2.193,11.926-4.279-.011-8.556-.012-12.835-.039-1.912-.013-3.832.306-3.5,2.718.809,5.938,1.443,12.045,6.58,16.232,1.83,1.49,3.8,2.873,6.255,1.083C1030.835,581.348,1031,584.287,1028.415,585.965Z" transform="translate(76.904 30.1)" fill="#7ab8dd"/>
      <path id="Path_224" data-name="Path 224" d="M1118.37,557.165c-2.83.364-2.6,2.514-2.475,4.45,1.185,18.261-14.419,23.649-29.239,21a46.632,46.632,0,0,1-7.221-2.371,3.387,3.387,0,0,1-2.232-4.711c1.1-2.88,2.937-.6,4.215-.055,5.858,2.5,11.64,3.917,18.13,2.112,10.269-2.856,14.106-10.067,10.094-19.969a22.181,22.181,0,0,1-.741-2.8C1112.185,555.084,1115.453,555.416,1118.37,557.165Z" transform="translate(88.127 34.01)" fill="#7ab8dd"/>
      <path id="Path_225" data-name="Path 225" d="M676.962,568.614c-.554,8.031-5.579,14.42-8.066,21.752-1.026,3.025-1.692,6.4-4.918,9.676V563.954C668.208,565.779,673.105,565.748,676.962,568.614Z" transform="translate(14.613 35.636)" fill="#74b3db"/>
      <path id="Path_226" data-name="Path 226" d="M788.087,496.853q.025,27.734.051,55.469c-6.868-6.811-7.909-15.478-7.658-24.487.212-7.6,4.362-14.141,6.047-21.374C787.271,503.263,785.926,499.769,788.087,496.853Z" transform="translate(35.348 23.69)" fill="#7ab8dd"/>
      <path id="Path_227" data-name="Path 227" d="M1032.062,546.052c-.358,6.833-4.162,9.235-11.01,7.137-2.5-.766-2.123-2.395-1.676-4.151,1.2-4.713,3.571-8.611,7.877-11.134Z" transform="translate(77.827 30.998)" fill="#7ab8dd"/>
      <path id="Path_228" data-name="Path 228" d="M839.16,552.271c-1.653-2.619-4.74-3.039-7.074-4.616,2.881.365,4.044-1.072,4.918-3.751,2.727-8.356,5.877-16.573,8.686-24.9.742-2.2,1.766-3.266,4.15-3.092,1.85.134,3.655.244,4.26,2.34,3.9,13.5,10.092,26.234,13.3,39.96-2.869-2.119-6.711.054-9.555-2.171,1.7-2.349,1.16-4.73.295-7.234-2.556-7.385-5.65-14.575-8.046-23.167-3.84,7.086-4.745,14.236-7.584,20.628C841.571,548.37,841.375,550.88,839.16,552.271Z" transform="translate(44.541 27.079)" fill="#7ab7dc"/>
      <path id="Path_229" data-name="Path 229" d="M915.65,545.029c-5.38-3.347-10.349-6.383-16.832-1.19-4.142,3.318-9.265.406-13.819-1.11,5.7-7.141,13.724-7.688,21.725-6.807,3.838.423,4.3-.547,4.232-3.721-.135-5.849-.046-11.7-.025-17.557.007-1.8-.031-3.761,2.609-3.562,2.224.166,2.079,1.972,2.084,3.513Q915.665,529.811,915.65,545.029Z" transform="translate(53.961 26.22)" fill="#7ab8dd"/>
      <path id="Path_230" data-name="Path 230" d="M961.694,536.647l-7.174,4.506c-4.828-2.328-9.7-4.169-15.149-2.031-3.417,1.342-6.267,3.157-6.953,7.126-2.618,1.832-5.606.622-8.4,1.023,5.877-14.271,19.044-19.23,32.835-12.215C958.447,535.866,959.843,536.817,961.694,536.647Z" transform="translate(60.908 29.93)" fill="#7ab8dd"/>
      <path id="Path_231" data-name="Path 231" d="M834.824,547.857c5.87,5.069,13.15,6.12,20.432,7.144,1.868.263,3.909-.459,5.56,1-6.081.054-12.186.445-18.239.054-4.739-.306-6.549,1.827-7.72,5.964-1.7,5.994-3.978,11.819-5.834,17.772-.759,2.436-2.075,4.183-4.572,3.139-2.519-1.051-.5-3.26,0-4.526C828.424,568.395,831.567,558.108,834.824,547.857Z" transform="translate(42.961 32.77)" fill="#82bee1"/>
      <path id="Path_232" data-name="Path 232" d="M861.041,557.867c10.7,5.521,15.277,14.889,11.555,23.682-3.5.415-5.421-1.039-6.252-4.561C864.825,570.552,861.235,564.682,861.041,557.867Z" transform="translate(49.696 34.552)" fill="#82bee1"/>
      <path id="Path_233" data-name="Path 233" d="M912.271,542.076c2.535,1.313,4.277,3.483,6.065,5.605-2.666,3.949-.946,8.355-1.19,12.532a123.478,123.478,0,0,0,.026,16.441c.32,4.229-1.719,6.21-5.216,7.186-9.669,2.7-18.816,2.7-26.807-4.793-8.6-8.065-9.3-17.847-7.322-28.591.428-2.32,4.094-4.764.366-7.347,3.149-2.04,6.344-1.342,9.547-.159-2.806,6.046-5.145,12.108-4.277,19.073,1.354,10.866,9.234,17.767,20,17.053,5.863-.389,7.138-1.633,7.213-7.5.094-7.425-.033-14.851.057-22.277C910.762,546.821,910.266,544.163,912.271,542.076Z" transform="translate(52.521 31.694)" fill="#84bee0"/>
      <path id="Path_234" data-name="Path 234" d="M950.465,577.012q2.281,3.009,4.564,6.02c-5.17.12-10.085,1.84-15.563.316-12.2-3.394-16.625-15.347-17.4-24.5-.246-2.911-.038-5.862-.036-8.794l5.918-1.013c.99,5.9-.335,11.992,2.53,17.789C934.63,575.224,941.224,578.907,950.465,577.012Z" transform="translate(60.539 32.98)" fill="#84bee0"/>
      <path id="Path_235" data-name="Path 235" d="M971,523.939l4.669,1.08c.009.2,0,.393.03.587.395,3.081-1.367,7.088.867,9.031,1.967,1.709,5.42-.808,8.259-1.2,14.069-1.956,25.629,6.844,27.195,21.841,1.469,14.061-4.937,29.129-20.981,32.844-4.672,1.081-9.383.786-14.029.353-4.147-.385-6.2-2.6-6.126-7.439C971.189,562.006,971.005,542.971,971,523.939Z" transform="translate(69.252 28.512)" fill="#7ab8dd"/>
      <path id="Path_236" data-name="Path 236" d="M954.614,582.39l-4.628-5.944c8.888-10.287,7.839-21.588,3.388-33.234q2.493-1.606,4.989-3.21c6.649,13.091,7.022,25.9-1.7,38.311C955.777,579.573,954.64,580.7,954.614,582.39Z" transform="translate(65.531 31.372)" fill="#7ab8dd"/>
      <path id="Path_237" data-name="Path 237" d="M911.6,542.415c.027,10.784-.1,21.571.165,32.349.091,3.677-1.2,5.058-4.7,5.856-9.523,2.168-19.381-1.567-23.261-9.255-5.142-10.184-3.75-22.16,3.263-28.077,6.3.692,12.646,2.818,18.254-2.746C907.189,538.682,909.562,541.42,911.6,542.415Z" transform="translate(53.197 31.355)" fill="#84bee0"/>
      <path id="Path_238" data-name="Path 238" d="M949.76,577.36c-3.21,3.5-9.1,3.2-14.446-.654-7.43-5.365-11.758-17.986-8.071-27.321q7.492-1.051,14.984-2.1c1.159-.163,2.746-.537,3.268.527,1.618,3.3,2.251,7.271,4.447,10.049,3.021,3.823,1.807,6.7-.274,9.986C947.66,571.011,948.554,574.2,949.76,577.36Z" transform="translate(61.244 32.632)" fill="#84bee0"/>
      <path id="Path_239" data-name="Path 239" d="M838.091,551.267c3.262-9.925,6.524-19.849,9.749-29.664,2.12-.431,1.894,1.205,2.221,2.131,3.164,8.977,6.141,18.02,9.461,26.937,1.171,3.148.524,4.387-2.748,4.361A51.248,51.248,0,0,1,838.091,551.267Z" transform="translate(45.61 28.083)" fill="#7ab8dd"/>
      <path id="Path_240" data-name="Path 240" d="M953.924,542.727c8.167,8.391,6.073,28.941-3.388,33.233-1.864-2.519-.872-4.879.554-7.082,2.653-4.1,2.553-7.737-.434-11.859C944.962,549.16,945.488,547.606,953.924,542.727Z" transform="translate(64.981 31.857)" fill="#7eb7d9"/>
      <path id="Path_241" data-name="Path 241" d="M931.4,545.544c-.587-.378-1.732-.972-1.681-1.1,1.948-5.053,6.1-7.583,11.082-8.249,4.705-.628,9.735-.9,12.7,4.259C947.176,546.656,939,544.831,931.4,545.544Z" transform="translate(61.923 30.634)" fill="#7ab7dc"/>
      <path id="Path_242" data-name="Path 242" d="M975.032,559.15c0-5.676.066-11.353-.032-17.026-.053-3.009,1.006-4.452,4.168-5.186,8.734-2.029,16.8-1.82,22.988,5.67,5.273,6.383,5.609,20.571.969,28.279-4.769,7.922-14.262,12.387-22.962,10.867-3.512-.613-5.5-2.049-5.218-6.171C975.315,570.13,975.036,564.631,975.032,559.15Z" transform="translate(69.97 30.631)" fill="#7ab8dd"/>
    </g>
    <text id="ELECTRONIC_CITY" data-name="ELECTRONIC
CITY" transform="translate(3626 3079)" fill="#e6e6fa" font-size="15" font-family="Montserrat-Bold, Montserrat" font-weight="700"><tspan x="-50.52" y="0">ELECTRONIC</tspan><tspan x="-17.565" y="19">CITY</tspan></text>
    <text id="HSR_LAYOUT" data-name="HSR
LAYOUT" transform="translate(3603 2925)" fill="#e6e6fa" font-size="15" font-family="Montserrat-Bold, Montserrat" font-weight="700"><tspan x="-16.357" y="0">HSR</tspan><tspan x="-31.627" y="19">LAYOUT</tspan></text>
    <text id="BTM_LAYOUT" data-name="BTM
LAYOUT" transform="translate(3445 3000)" fill="#e6e6fa" font-size="15" font-family="Montserrat-Bold, Montserrat" font-weight="700"><tspan x="-17.46" y="0">BTM</tspan><tspan x="-31.627" y="19">LAYOUT</tspan></text>
    <text id="BELLANDUR" transform="translate(3658 2827)" fill="#e6e6fa" font-size="15" font-family="Montserrat-Bold, Montserrat" font-weight="700"><tspan x="-49.298" y="0">BELLANDUR</tspan></text>
    <text id="JAYANAGAR" transform="translate(3303 2906)" fill="#e6e6fa" font-size="15" font-family="Montserrat-Bold, Montserrat" font-weight="700"><tspan x="-48.63" y="0">JAYANAGAR</tspan></text>
    <text id="J.P_NAGAR" data-name="J.P NAGAR" transform="translate(3277 3019)" fill="#e6e6fa" font-size="15" font-family="Montserrat-Bold, Montserrat" font-weight="700"><tspan x="-42.353" y="0">J.P NAGAR</tspan></text>
    <text id="BANASHANKARI" transform="translate(3141 2911)" fill="#e6e6fa" font-size="15" font-family="Montserrat-Bold, Montserrat" font-weight="700"><tspan x="-64.973" y="0">BANASHANKARI</tspan></text>
    <text id="INDIRANAGAR" transform="translate(3445 2799)" fill="#e6e6fa" font-size="15" font-family="Montserrat-Bold, Montserrat" font-weight="700"><tspan x="-57.202" y="0">INDIRANAGAR</tspan></text>
    <text id="WHITEFIELD" transform="translate(3809 2867)" fill="#e6e6fa" font-size="15" font-family="Montserrat-Bold, Montserrat" font-weight="700"><tspan x="-49.807" y="0">WHITEFIELD</tspan></text>
    <text id="HOODI" transform="translate(3582 2705)" fill="#e6e6fa" font-size="15" font-family="Montserrat-Bold, Montserrat" font-weight="700"><tspan x="-27.375" y="0">HOODI</tspan></text>
    <text id="YELAHANKA" transform="translate(3389 2512)" fill="#e6e6fa" font-size="15" font-family="Montserrat-Bold, Montserrat" font-weight="700"><tspan x="-49.298" y="0">YELAHANKA</tspan></text>
  </g>
</svg>
