<svg id="Layer_1" data-name="Layer 1" xmlns="http://www.w3.org/2000/svg" viewBox="0 0 74.95 78.55"><defs><style>.cls-1{fill:#98c1d9;}.cls-2,.cls-5{fill:#a4e4ff;}.cls-2,.cls-4,.cls-5{stroke:#3d5a80;stroke-linejoin:round;}.cls-2,.cls-4{stroke-width:2px;}.cls-3{fill:#3d5a80;}.cls-4{fill:#fff;}</style></defs><title>chat icon</title><circle class="cls-1" cx="34.49" cy="34.49" r="34.49"/><circle class="cls-1" cx="66.26" cy="71.04" r="7.51"/><path class="cls-2" d="M970.1,548.91H946.24a4.28,4.28,0,0,1-4.28-4.27v-17.1a4.28,4.28,0,0,1,4.28-4.27H970.1a4.28,4.28,0,0,1,4.28,4.27v17.1A4.28,4.28,0,0,1,970.1,548.91Z" transform="translate(-922.16 -500.71)"/><polyline class="cls-2" points="45.1 48.2 52.22 55.33 52.22 44.46"/><rect class="cls-3" x="27.64" y="30.04" width="16.74" height="1.42" rx="0.71"/><rect class="cls-3" x="27.64" y="34.67" width="16.74" height="1.42" rx="0.71"/><rect class="cls-3" x="27.64" y="39.3" width="13.18" height="1.42" rx="0.63"/><path class="cls-4" d="M968,531.82h23.87a4.28,4.28,0,0,0,4.27-4.28V510.45a4.27,4.27,0,0,0-4.27-4.28H968a4.27,4.27,0,0,0-4.27,4.28v17.09A4.28,4.28,0,0,0,968,531.82Z" transform="translate(-922.16 -500.71)"/><polyline class="cls-4" points="48.66 31.11 41.53 38.23 41.53 27.36"/><circle class="cls-5" cx="49.46" cy="16.95" r="1.87"/><circle class="cls-5" cx="57.65" cy="16.95" r="1.87"/><circle class="cls-5" cx="66.02" cy="16.95" r="1.87"/></svg>