<svg width="87" height="19" viewBox="0 0 87 19" fill="none" xmlns="http://www.w3.org/2000/svg">
<path d="M14.8203 12.2227C14.7656 13.4102 14.4453 14.4609 13.8594 15.375C13.2734 16.2812 12.4492 16.9844 11.3867 17.4844C10.332 17.9844 9.125 18.2344 7.76562 18.2344C5.52344 18.2344 3.75781 17.5039 2.46875 16.043C1.17969 14.582 0.535156 12.5195 0.535156 9.85547V9.01172C0.535156 7.33984 0.824219 5.87891 1.40234 4.62891C1.98828 3.37109 2.82812 2.40234 3.92188 1.72266C5.01562 1.03516 6.28125 0.691406 7.71875 0.691406C9.78906 0.691406 11.4531 1.23828 12.7109 2.33203C13.9688 3.41797 14.6836 4.91797 14.8555 6.83203H10.7539C10.7227 5.79297 10.4609 5.04688 9.96875 4.59375C9.47656 4.14062 8.72656 3.91406 7.71875 3.91406C6.69531 3.91406 5.94531 4.29688 5.46875 5.0625C4.99219 5.82812 4.74219 7.05078 4.71875 8.73047V9.9375C4.71875 11.7578 4.94531 13.0586 5.39844 13.8398C5.85938 14.6211 6.64844 15.0117 7.76562 15.0117C8.71094 15.0117 9.43359 14.7891 9.93359 14.3438C10.4336 13.8984 10.6992 13.1914 10.7305 12.2227H14.8203ZM31.0273 18H26.9375V10.875H20.8789V18H16.7656V0.9375H20.8789V7.71094H26.9375V0.9375H31.0273V18ZM44.2227 10.7695H37.7539V14.8359H45.3945V18H33.6406V0.9375H45.418V4.11328H37.7539V7.71094H44.2227V10.7695ZM57.8164 11.2031H51.1836V18H47.0703V0.9375H58.4844V4.11328H51.1836V8.03906H57.8164V11.2031ZM70.4375 9.53906H61.8828V17.3672H71.6328V18H61.25V0.9375H71.6328V1.57031H61.8828V8.90625H70.4375V9.53906ZM74.9141 18V0.9375H79.6367C80.957 0.9375 82.1523 1.25 83.2227 1.875C84.293 2.5 85.1328 3.37891 85.7422 4.51172C86.3516 5.63672 86.6641 6.89844 86.6797 8.29688V10.5117C86.6797 11.9336 86.3789 13.2148 85.7773 14.3555C85.1836 15.4961 84.3516 16.3867 83.2812 17.0273C82.2109 17.668 81.0156 17.9922 79.6953 18H74.9141ZM75.5469 1.57031V17.3672H79.6367C80.832 17.3672 81.918 17.0781 82.8945 16.5C83.8789 15.9141 84.6484 15.1016 85.2031 14.0625C85.7578 13.0156 86.0391 11.8555 86.0469 10.582V8.39062C86.0469 7.11719 85.7734 5.96094 85.2266 4.92188C84.6875 3.88281 83.9297 3.07031 82.9531 2.48438C81.9844 1.89062 80.9102 1.58594 79.7305 1.57031H75.5469Z" fill="#E8505B"/>
</svg>
