<svg xmlns="http://www.w3.org/2000/svg" viewBox="0 0 337.79 318.92"><defs><style>.cls-1{isolation:isolate;}.cls-2{fill:#92e4f7;}.cls-3{opacity:0.3;mix-blend-mode:multiply;}.cls-4{fill:#ffb745;}.cls-5{fill:#dd9226;}.cls-6{fill:#ffbf94;}.cls-7{fill:#3c2b34;}.cls-8{fill:#fd5457;}.cls-9{fill:#fff;}.cls-10{fill:#ff7b82;}.cls-11{fill:#b9eade;}.cls-12{fill:#e04149;}.cls-13{fill:#afa84f;}.cls-14{fill:#928f41;}.cls-15{fill:#827d37;}.cls-16{fill:#ffdc48;}.cls-17{fill:#3d5a80;}</style></defs><title>custom price illustration</title><g class="cls-1"><g id="OBJECTS"><path class="cls-2" d="M644.44,141.4c-35.06,27.2-78.23,39.22-119.48,53.54-21.18,7.35-42.36,15.44-61.7,26.93a133.3,133.3,0,0,0-46.08,46.05c-23,38.32-25.13,84.62-10.83,126.44,6,17.43,14.75,33.33,25.13,48.22H663.86V123.65A162.37,162.37,0,0,1,644.44,141.4Z" transform="translate(-326.07 -123.65)"/><g class="cls-3"><path class="cls-2" d="M645.88,219.57c-30.77,2.73-66.08-.21-87.77,26.25-13.24,16.15-16,36.43-19.35,56.34s-8.49,39-16.74,57.3c-14.13,31.37-34.93,61.5-69.37,72.17a140.36,140.36,0,0,1-25.27,4.87c1.34,2,2.7,4.07,4.1,6.08H663.86V216A82.68,82.68,0,0,1,645.88,219.57Z" transform="translate(-326.07 -123.65)"/></g><g class="cls-3"><path class="cls-2" d="M631.36,330.78c-25.89,2.16-46.23,16.3-59.17,38.64-13.09,22.6-16.85,47.85-14.47,73.16H663.86V325.33A170.54,170.54,0,0,1,631.36,330.78Z" transform="translate(-326.07 -123.65)"/></g><path class="cls-4" d="M524.23,236.56s-31.65,7.39-48,74,37.53,68.79,37.53,68.79l32.84,6.29h62S623.48,259.46,537.2,234.9Z" transform="translate(-326.07 -123.65)"/><path class="cls-5" d="M609.55,367.71l-48.63-6.3-29.8-7.56-7.46,4.76S564.13,384.3,608.84,381Z" transform="translate(-326.07 -123.65)"/><path class="cls-6" d="M523.66,358.61l1.77-11.68s-19.45-6.19-23.61,3.45S523.66,358.61,523.66,358.61Z" transform="translate(-326.07 -123.65)"/><path class="cls-5" d="M541.32,272.61l-4.05,1.76S550.9,318.34,573,346l-47.53.89L592,365.27l15.19-20.85-31.66-57.78Z" transform="translate(-326.07 -123.65)"/><path class="cls-7" d="M490.27,205s-9.24-14-3.4-31,29.21-29.38,52.61-18.33,20.95,34.46,20.95,34.46,10.17,2.4,7.87,21.5c-2.44,20.29-29.37,33.17-40.24,18.72S490.27,205,490.27,205Z" transform="translate(-326.07 -123.65)"/><path class="cls-8" d="M510.37,153.05s26.81-3,27.45,40.25l7.95,1.35s-.28-32.28-20.91-41.49A15.94,15.94,0,0,0,510.37,153.05Z" transform="translate(-326.07 -123.65)"/><path class="cls-6" d="M505.31,172.13s-21.18,8.69-17,36,30.45,24,30.45,24l1.68,5.55s-9.39,4.14-6.06,12.35S534,246.21,537.2,234.9a77.24,77.24,0,0,1-4.71-9.74s8.61-13.07,7.27-28C539.76,197.16,511.19,193.05,505.31,172.13Z" transform="translate(-326.07 -123.65)"/><path class="cls-9" d="M498.11,215l14-.43s.55,11.46-3.57,11.46C502.62,226,498.11,215,498.11,215Z" transform="translate(-326.07 -123.65)"/><path class="cls-7" d="M540.41,207.5l-1-.26c0,.11-3,11-16,13.83a2.06,2.06,0,1,0,.14,1C537.22,219.19,540.38,207.62,540.41,207.5Z" transform="translate(-326.07 -123.65)"/><ellipse class="cls-4" cx="541.86" cy="202.5" rx="15.56" ry="12.73" transform="translate(-22.99 605.73) rotate(-86.11)"/><ellipse class="cls-8" cx="543.04" cy="202.58" rx="12.33" ry="9.37" transform="translate(-21.97 606.98) rotate(-86.11)"/><path class="cls-4" d="M604.92,303.93c-5.54-12.26-21.4-44.87-30.8-54.62-12.57-13-28.46-11.5-34.41-.79-17.11,25,25.37,81.89,46,103.29-34-2.66-51.36-4.16-60.29-4.88l-1.77,11.68c7.36,3.29,19.94,6.5,39.12,11.57,16.37,4.32,40.39,8.75,51.27-7.5C625.67,345.33,612.41,320.49,604.92,303.93Z" transform="translate(-326.07 -123.65)"/><polygon class="cls-8" points="186.98 253.59 67.77 253.59 50.82 173.36 170.03 173.36 186.98 253.59"/><polygon class="cls-10" points="181.42 253.59 62.22 253.59 45.27 173.36 164.47 173.36 181.42 253.59"/><ellipse class="cls-11" cx="436.05" cy="339.78" rx="10.19" ry="16.05" transform="translate(-358.49 -77.35) rotate(-5.86)"/><rect class="cls-8" x="62.22" y="253.59" width="119.2" height="8.44"/><rect class="cls-12" x="181.37" y="253.59" width="39.12" height="8.44"/><rect class="cls-13" y="261.47" width="337.79" height="22.37"/><rect class="cls-14" x="40.02" y="283.84" width="297.77" height="35.08"/><rect class="cls-15" x="40.02" y="283.84" width="297.77" height="8.72"/><circle class="cls-2" cx="300.24" cy="139.34" r="26.44"/><circle class="cls-9" cx="300.24" cy="139.34" r="21.29"/><rect class="cls-16" x="285.9" y="130.04" width="28.68" height="19.18"/><polygon class="cls-4" points="314.58 149.22 285.9 149.22 285.9 130.04 300.24 139.93 314.58 130.04 314.58 149.22"/><circle class="cls-2" cx="113.34" cy="112.9" r="26.44"/><circle class="cls-9" cx="113.34" cy="112.9" r="21.29"/><path class="cls-13" d="M439.32,223.93c4.55,0,7.47,2.17,7.47,6.12,0,5.47-5.51,6-5.51,10.42h-4.13c0-5.59,4.59-5.8,4.59-9.53,0-1.71-1.1-2.49-2.92-2.49s-3.06,1.1-3.16,3.34l-4.23,0C431.53,226.81,434.48,223.93,439.32,223.93Zm2.56,22.4a2.74,2.74,0,1,1-5.48,0,2.74,2.74,0,1,1,5.48,0Z" transform="translate(-326.07 -123.65)"/><circle class="cls-2" cx="592.73" cy="166.95" r="26.44" transform="translate(-345.31 111.85) rotate(-22.12)"/><circle class="cls-9" cx="266.65" cy="43.29" r="21.29"/><path class="cls-10" d="M602.3,160.37H583.16v-4.66H602.3Zm0,4.25H583.16v4.66H602.3Zm0,8.9H583.16v4.67H602.3Z" transform="translate(-326.07 -123.65)"/><polygon class="cls-17" points="103.56 223.23 103.56 217.08 109.63 213.47 115.77 216.87 115.77 223.52 112.08 223.52 112.08 218.82 109.63 217.37 107.31 218.75 107.17 223.52 103.56 223.52 103.56 223.23"/><polygon class="cls-17" points="112.08 208.63 112.08 213.47 115.77 215.57 115.77 208.63 112.08 208.63"/><polygon class="cls-17" points="103.56 208.63 103.56 215.57 107.31 213.47 107.31 208.63 103.56 208.63"/></g></g></svg>