<svg id="Layer_1" data-name="Layer 1" xmlns="http://www.w3.org/2000/svg" viewBox="0 0 392.37 392.37"><defs><style>.cls-1,.cls-3{fill:#e0fbfc;}.cls-2{fill:#98c1d9;}.cls-3{stroke:#1a2e35;stroke-miterlimit:10;}.cls-11,.cls-4{fill:#4d4d4d;}.cls-5{fill:#fff;}.cls-6{fill:#252727;}.cls-7{fill:#fff0e7;}.cls-8{fill:#424242;}.cls-9{fill:#ff7d6f;}.cls-10{fill:#3d5a80;}.cls-11{opacity:0.8;}.cls-12{fill:#1a2e35;}.cls-13{fill:#f5f5f5;}.cls-14{fill:#e8505b;}.cls-15{fill:none;}.cls-16{fill:#1a1a1a;}</style></defs><title>hygenic</title><circle class="cls-1" cx="196.19" cy="196.19" r="195.4"/><path class="cls-2" d="M622,474.38c-23.87-4-40.74-41.88,5.23-57,0,0,32.36-51.65,74.91-7.81,0,0,32.76-17.81,42.63,33.36,0,0,24.53,27-20.39,37.31Z" transform="translate(-476.72 -378.02)"/><path class="cls-3" d="M699.47,563.1c6.41-.34,11.27-4.92,13.94-8.83a20.06,20.06,0,0,0,1.46-2.48c2-4.11,3.21-18.61-1.32-22.21-3.17-2.51-5.72.8-7,3h0a16.22,16.22,0,0,0-.83,1.68Z" transform="translate(-476.72 -378.02)"/><path class="cls-4" d="M702.86,557.65l.21-.14c.14-.09.36-.22.62-.42a9.42,9.42,0,0,0,1.91-2,10.66,10.66,0,0,0,1.67-3.81,10.08,10.08,0,0,0-.23-5.14,4.57,4.57,0,0,0-.24-.65l-.06-.16v0h0s0,0,0,0l.06-.14.14-.27.28-.53a22.63,22.63,0,0,1,1.2-2c.42-.61.84-1.16,1.26-1.67a12.37,12.37,0,0,1,1.23-1.32,2.31,2.31,0,0,1,1.22-.61,1.52,1.52,0,0,1,1,.26,1.19,1.19,0,0,1,.43.54,2.12,2.12,0,0,1,.05.25,1.71,1.71,0,0,0,0-.26,1.19,1.19,0,0,0-.35-.68,1.74,1.74,0,0,0-1.14-.52,2.73,2.73,0,0,0-1.6.5,10.32,10.32,0,0,0-1.49,1.23,19.88,19.88,0,0,0-1.49,1.62,18,18,0,0,0-1.4,2c-.11.18-.22.37-.32.56l-.16.28-.2.41-.14.28a1.82,1.82,0,0,0,.11.3l.17.42a4.77,4.77,0,0,1,.2.57,10.52,10.52,0,0,1,.38,4.55,11.59,11.59,0,0,1-1.14,3.66,10.73,10.73,0,0,1-1.49,2.18c-.21.24-.4.4-.51.53Z" transform="translate(-476.72 -378.02)"/><path class="cls-3" d="M639.27,561.91c-6.38-.59-11.06-5.37-13.57-9.37a20.2,20.2,0,0,1-1.36-2.54c-1.85-4.18-2.48-18.73,2.19-22.14,3.27-2.39,5.69,1,6.84,3.29h0a14.17,14.17,0,0,1,.76,1.71Z" transform="translate(-476.72 -378.02)"/><path class="cls-4" d="M636.11,556.33l-.21-.15c-.14-.1-.35-.23-.6-.44a9.72,9.72,0,0,1-1.83-2.07A10.58,10.58,0,0,1,632,549.8a10.19,10.19,0,0,1,.42-5.13,5.11,5.11,0,0,1,.27-.64l.07-.16v0h0s0,0,0,0l-.06-.14-.13-.28c-.08-.18-.17-.36-.26-.54a22.21,22.21,0,0,0-1.12-2c-.39-.62-.79-1.2-1.19-1.72a12,12,0,0,0-1.17-1.36,2.34,2.34,0,0,0-1.2-.66,1.5,1.5,0,0,0-1,.22,1.15,1.15,0,0,0-.45.52,1.56,1.56,0,0,0-.06.24,1.26,1.26,0,0,1,0-.26,1.15,1.15,0,0,1,.37-.66,1.8,1.8,0,0,1,1.16-.47,2.7,2.7,0,0,1,1.58.56,10,10,0,0,1,1.44,1.29,17.49,17.49,0,0,1,1.43,1.67,19.52,19.52,0,0,1,1.32,2l.3.57.14.29.19.41.13.29a2.52,2.52,0,0,1-.12.29l-.19.42a4.66,4.66,0,0,0-.22.56,10.62,10.62,0,0,0-.56,4.54,11.42,11.42,0,0,0,1,3.69,10.57,10.57,0,0,0,1.41,2.24c.19.25.37.42.48.55Z" transform="translate(-476.72 -378.02)"/><path class="cls-2" d="M692.91,609.58c-6.24,5-12.8,10.45-21,10.91-1.13.07-2.2.09-3.24.09-18.22,0-22-9.17-24.28-12a39.41,39.41,0,0,0,4.79-3.91l.05-.05c.82-.54,1.41-3.31,1.78-6.9.92-8.49.83-21.71.83-21.71l34.79.35s.24,10.65.57,19.1c.17,4.52.37,8.44.56,9.71a2,2,0,0,0,.09.37C688.17,606.49,690.06,607.91,692.91,609.58Z" transform="translate(-476.72 -378.02)"/><path class="cls-2" d="M651,597.74a43,43,0,0,0,36.18-2.27c-.32-8.45-.55-19.1-.55-19.1L651.8,576S651.9,589.25,651,597.74Z" transform="translate(-476.72 -378.02)"/><path class="cls-3" d="M635.37,536.62a162.57,162.57,0,0,0,3.82,19.32c2.8,10.71,6.68,22.18,17.76,26.34s25.75,3.76,34.43-5.19c5.58-5.76,7.29-14.06,9.54-21.53,7.85-25.93,13.77-66.59-16.15-80.54-10.65-5-24.45-6.22-34.75.32-9,5.72-13.21,15.67-14.72,26.05A127.53,127.53,0,0,0,635.37,536.62Z" transform="translate(-476.72 -378.02)"/><path class="cls-5" d="M651.57,556.19s14.21-3.16,36.14,3.9c0,0-7.25,15-20.26,12.8S651.57,556.19,651.57,556.19Z" transform="translate(-476.72 -378.02)"/><path class="cls-6" d="M692.32,530c-.15,3.77-2.18,6.75-4.53,6.65s-4.13-3.23-4-7,2.19-6.75,4.53-6.66S692.48,526.2,692.32,530Z" transform="translate(-476.72 -378.02)"/><path class="cls-7" d="M692.2,527.81a9.75,9.75,0,0,1,5.32-.18,9.78,9.78,0,0,1-4.23,3.22" transform="translate(-476.72 -378.02)"/><path class="cls-6" d="M647.73,529.09c0,3.77,1.92,6.83,4.27,6.82s4.25-3.07,4.24-6.84-1.92-6.83-4.27-6.83S647.72,525.31,647.73,529.09Z" transform="translate(-476.72 -378.02)"/><path class="cls-7" d="M652,530.33" transform="translate(-476.72 -378.02)"/><path class="cls-7" d="M642.63,526.54" transform="translate(-476.72 -378.02)"/><path class="cls-8" d="M701.13,516.87s-13.5-13.34-19.6-10.76c-3.56,1.51-1.3,3.46-1.3,3.46Z" transform="translate(-476.72 -378.02)"/><path class="cls-8" d="M639.87,509.17s18.63-3.64,22.29,1.88c2.13,3.23-.83,3.61-.83,3.61Z" transform="translate(-476.72 -378.02)"/><path class="cls-9" d="M675.73,548l-1.93-3.86a16,16,0,0,1-9.35-3.8,12,12,0,0,0-.53,3.29,4.61,4.61,0,0,0,1.11,3.08,5.82,5.82,0,0,0,2.72,1.43A14.35,14.35,0,0,0,675.73,548Z" transform="translate(-476.72 -378.02)"/><path class="cls-4" d="M664.46,546.56a10.53,10.53,0,0,0,1.21.86,12.71,12.71,0,0,0,3.79,1.55,13.21,13.21,0,0,0,2.87.34,12.84,12.84,0,0,0,4.13-.64l.37-.1c.06,0,.16,0,.17-.06l-.08-.15-.35-.61-.73-1.29a4.76,4.76,0,0,1-.27-.5l-.19-.39-.39-.77c-.47-1.08-1-2.19-1.33-3.37A33,33,0,0,1,672,528.81a31.09,31.09,0,0,1,.47-3.94c.19-.91.29-1.44.29-1.44l-.6,1.35a24.45,24.45,0,0,0-1.17,3.89,25.57,25.57,0,0,0,2.28,17l.85,1.47c0,.09.29.32.23.35a7.32,7.32,0,0,1-2.06.44,13.07,13.07,0,0,1-2.64,0,14.14,14.14,0,0,1-3.81-.82C664.93,546.8,664.46,546.56,664.46,546.56Z" transform="translate(-476.72 -378.02)"/><path class="cls-10" d="M630.88,484.59c1,11.78,44.06,15.62,44.06,15.62-5.42-2.22-7.45-10.75-7.57-11.28,4.48,6.86,36.55,14.66,36.55,14.66,3,3.84,3.05,30.41,3.05,30.41l5.35-4.84s4.43-18.6,5-31.65c.2-5-.17-9.26-1.61-11.24-5.17-7.08-23-17-40.48-20.74-14.43-3.08-35.85,3.88-42.36,13A9.14,9.14,0,0,0,630.88,484.59Z" transform="translate(-476.72 -378.02)"/><path class="cls-10" d="M633.88,484.85s-4.56,7.49-4.84,11.07-.63,31.61-.63,31.61l5.72,5.34s5.08-39.52,7.26-43.47S633.88,484.85,633.88,484.85Z" transform="translate(-476.72 -378.02)"/><path class="cls-2" d="M629,495.92s39.54-16,88,4.8L723,463.2s-52.26-24.22-96.92-3.73Z" transform="translate(-476.72 -378.02)"/><path class="cls-11" d="M627.82,476,624,454.87s52.78-18.06,97.81,1.74l-.87,2.25s-40.38-18.4-93.83-2.25l.72,19.37Z" transform="translate(-476.72 -378.02)"/><path class="cls-11" d="M737,449a17.61,17.61,0,0,1-4.58,1.91,47.17,47.17,0,0,1-5.16,1.7,1.63,1.63,0,0,1-2.06-1.88A53.24,53.24,0,0,1,730,438.28a1.1,1.1,0,0,1,2,1,93.26,93.26,0,0,0-3,9.12l1.85-.7a19,19,0,0,1,5.14-1.6C737.7,446,738.19,448.16,737,449Z" transform="translate(-476.72 -378.02)"/><path class="cls-11" d="M674.33,421.12a17.36,17.36,0,0,1,.41,4.94,49.36,49.36,0,0,1,0,5.44,1.64,1.64,0,0,1-2.43,1.38A53,53,0,0,1,662,424.36a1.1,1.1,0,0,1,1.55-1.55,90.18,90.18,0,0,0,7.76,5.64l-.09-2a19,19,0,0,1,.06-5.38C671.62,419.45,673.88,419.67,674.33,421.12Z" transform="translate(-476.72 -378.02)"/><path class="cls-12" d="M641.41,546.17a64.22,64.22,0,0,1-4.08-6.75,65.48,65.48,0,0,1-3.66-7,65.07,65.07,0,0,1,4.08,6.76A68.29,68.29,0,0,1,641.41,546.17Z" transform="translate(-476.72 -378.02)"/><path class="cls-12" d="M643.87,562.06a17.55,17.55,0,0,1-4.17-.19,18.15,18.15,0,0,1-4.13-.66,18.21,18.21,0,0,1,4.17.19A18.83,18.83,0,0,1,643.87,562.06Z" transform="translate(-476.72 -378.02)"/><path class="cls-12" d="M698.7,546a65.68,65.68,0,0,0,4.4-6.55,66.82,66.82,0,0,0,4-6.81A131.15,131.15,0,0,0,698.7,546Z" transform="translate(-476.72 -378.02)"/><path class="cls-12" d="M695.34,564.12a19.2,19.2,0,0,0,4.09-.9,18.58,18.58,0,0,0,4-1.37,18.89,18.89,0,0,0-4.09.91A18.26,18.26,0,0,0,695.34,564.12Z" transform="translate(-476.72 -378.02)"/><path class="cls-13" d="M702.38,566.54" transform="translate(-476.72 -378.02)"/><path class="cls-14" d="M638.84,540.67h0a24.59,24.59,0,0,0,3.06,25.46,47.19,47.19,0,0,0,8.57,8.81,33.82,33.82,0,0,0,30.92,4.59s15.38-3.14,19.84-20.73a43.12,43.12,0,0,0,1.15-12.52s-16.91-5.66-24-6.31-22.8,3.71-28.78,2.9A84,84,0,0,1,638.84,540.67Z" transform="translate(-476.72 -378.02)"/><path d="M692.24,570.6a3.44,3.44,0,0,1-.51.29l-1.52.75A39.16,39.16,0,0,1,675.29,575a40.12,40.12,0,0,1-16.69-3.21,49.76,49.76,0,0,1-4.9-2.47c-3-1.73-5.68-3.48-7.91-4.89s-4.06-2.53-5.34-3.25L639,560.3a2.22,2.22,0,0,1-.51-.32,4.14,4.14,0,0,1,.55.23c.35.16.87.41,1.52.75,1.31.68,3.17,1.74,5.42,3.13s4.91,3.09,7.94,4.79a52.62,52.62,0,0,0,4.87,2.43,42.15,42.15,0,0,0,5.49,1.87,40.82,40.82,0,0,0,20,.17,42.68,42.68,0,0,0,5.85-1.89l1.55-.66A2,2,0,0,1,692.24,570.6Z" transform="translate(-476.72 -378.02)"/><path class="cls-12" d="M697.2,554.94a2.29,2.29,0,0,1-.56.15l-1.61.32c-1.4.27-3.43.63-5.95,1A125.54,125.54,0,0,1,669.2,558a73.2,73.2,0,0,1-19.73-2.74,54.22,54.22,0,0,1-5.7-2c-.66-.27-1.16-.52-1.5-.67a2.7,2.7,0,0,1-.51-.27,2.52,2.52,0,0,1,.55.18c.35.13.86.35,1.53.59,1.33.51,3.27,1.18,5.72,1.86a77.3,77.3,0,0,0,19.65,2.59A138.17,138.17,0,0,0,689,556.09l6-.86,1.63-.24A4.76,4.76,0,0,1,697.2,554.94Z" transform="translate(-476.72 -378.02)"/><path class="cls-12" d="M696.18,550.11a2.21,2.21,0,0,1-.58-.11l-1.63-.4c-1.41-.36-3.44-.91-6-1.5a80.52,80.52,0,0,0-9-1.61,65.83,65.83,0,0,0-11.14-.18c-4,.21-7.75.48-11.2.43a40,40,0,0,1-9.11-1,24.64,24.64,0,0,1-5.79-2.15c-.64-.36-1.13-.64-1.45-.87a2.7,2.7,0,0,1-.47-.34s.7.4,2,1a26.38,26.38,0,0,0,5.79,2,41.53,41.53,0,0,0,9,.93c3.43,0,7.2-.26,11.17-.47a63.56,63.56,0,0,1,11.22.23,70.62,70.62,0,0,1,9,1.72c2.53.63,4.55,1.22,5.94,1.64l1.61.49A4.47,4.47,0,0,1,696.18,550.11Z" transform="translate(-476.72 -378.02)"/><path class="cls-12" d="M686.75,563.08a12.15,12.15,0,0,1-2.6.8,38.31,38.31,0,0,1-13,.76,11.05,11.05,0,0,1-2.67-.49,23.46,23.46,0,0,1,2.7.16,52.84,52.84,0,0,0,6.5,0,53.79,53.79,0,0,0,6.44-.79A20.72,20.72,0,0,1,686.75,563.08Z" transform="translate(-476.72 -378.02)"/><path class="cls-15" d="M747.32,739c-.13,3.65-.24,7.29-.35,10.93q-.09,3-.2,6a194.91,194.91,0,0,0,26.89-13.43l-25.6-29.1C747.82,721.86,747.58,730.46,747.32,739Z" transform="translate(-476.72 -378.02)"/><path class="cls-15" d="M595.83,617.41a.71.71,0,0,1,.22-.21c2-.91,8.69-2.28,16.68-3.68,5-.87,10.45-1.74,15.59-2.52l2.46-.39c2.7-.42,5.27-.81,7.57-1.13,0-.22,0-.46,0-.7.3.15.63.35,1,.54.41-.06.82-.13,1.22-.17,1.41-.22,2.67-.39,3.78-.55a39.41,39.41,0,0,0,4.79-3.91l.05-.05c.82-.54,1.41-3.31,1.78-6.9.45-4.14.65-9.39.75-13.69,0-1.73.06-3.29.07-4.58-4.09-3-6.84-7.31-8.88-12.07-.34-.42-.69-.84-1-1.27a24.61,24.61,0,0,1-2.7-4.23,13.56,13.56,0,0,1-1.82-.31,5.77,5.77,0,0,1-1.81-.38s.1-.05.26-.06c-4.64-1.62-8.1-5.37-10.13-8.61a20.2,20.2,0,0,1-1.36-2.54c-1.85-4.18-2.48-18.73,2.19-22.14a4,4,0,0,1,1.89-.79c0-3.59.35-27.83.62-31.15l-1.73-21.24-5.28-.3c-23.87-4-40.74-41.88,5.23-57,0,0,32.36-51.65,74.91-7.81,0,0,32.76-17.81,42.63,33.36,0,0,24.53,27-20.39,37.31l-4.06-.23-3.27,20.72c-.93,11.74-4.21,26.1-4.7,28.19a4.52,4.52,0,0,1,1.17.69c4.53,3.6,3.34,18.1,1.32,22.21a20.06,20.06,0,0,1-1.46,2.48c-2.6,3.8-7.27,8.22-13.41,8.78l-.18.05a28.92,28.92,0,0,1-3.26,5.93,26.73,26.73,0,0,1-5.18,8.06,22.83,22.83,0,0,1-4.67,3.67c0,1.12.06,2.41.1,3.79.1,3.39.22,7.35.36,10.93.17,4.52.37,8.44.56,9.71a2,2,0,0,0,.09.37c.35.93,2.23,2.34,5.06,4h0c1.61.28,4,.65,6.86,1.07h0l4.94.67,6.06.83c8.48,1.16,18.05,2.47,25.33,3.71,25.81.08,63.45,44.52,85.3,86.58a195.46,195.46,0,0,0,47.69-128.21C869.09,465.86,781.25,378,672.9,378S476.72,465.86,476.72,574.21a195.28,195.28,0,0,0,42.12,121.46C539.88,658.28,572,621.35,595.83,617.41Z" transform="translate(-476.72 -378.02)"/><path class="cls-15" d="M588.93,735.9c.22-7.92.46-15.83.7-23.58,0-.67,0-1.33.07-2s0-1.43.07-2.15l-1.91,6.5L566.45,739a196.44,196.44,0,0,0,22.07,12.34c0-1.5.07-3,.11-4.51C588.74,743.22,588.85,739.56,588.93,735.9Z" transform="translate(-476.72 -378.02)"/><path class="cls-2" d="M747.32,739c.26-8.58.5-17.18.74-25.58L732,658.5l4-42.67h.08c-7.28-1.24-16.85-2.55-25.33-3.71l-6.06-.83-4.94-.67h0c-2.87-.42-5.25-.79-6.86-1.07h0l0,0c-6.24,5-12.8,10.45-21,10.91-1.13.07-2.2.09-3.24.09-18.22,0-22-9.17-24.28-12-1.11.16-2.37.33-3.78.55,0,.87,0,1.72,0,2.57,0,4.7,0,9.4,0,14.11,0,27.12-.33,54.16.32,81.46.49,20.36,1.43,40.63,2.54,60.9A197.06,197.06,0,0,0,746.77,756q.11-3,.2-6C747.08,746.33,747.19,742.69,747.32,739ZM646,675.85a3.24,3.24,0,1,1,3.24,3.24A3.24,3.24,0,0,1,646,675.85Zm4.3,66.5a3.24,3.24,0,1,1,3.24-3.24A3.24,3.24,0,0,1,650.25,742.35Zm35.21-66.5a3.24,3.24,0,1,1,3.24,3.24A3.24,3.24,0,0,1,685.46,675.85Zm4.3,66.5a3.24,3.24,0,1,1,3.24-3.24A3.24,3.24,0,0,1,689.76,742.35Z" transform="translate(-476.72 -378.02)"/><path class="cls-2" d="M637.77,623.5q.22-7.07.58-14c-2.3.32-4.87.71-7.57,1.13l-2.46.39c-5.14.78-10.63,1.65-15.59,2.52-8,1.4-14.67,2.77-16.68,3.68a.71.71,0,0,0-.22.21,25,25,0,0,1,4.07-.36l4,42.67-14.16,48.45c0,.72,0,1.43-.07,2.15s-.05,1.33-.07,2c-.24,7.75-.48,15.66-.7,23.58-.08,3.66-.19,7.32-.3,11,0,1.51-.08,3-.11,4.51a194.58,194.58,0,0,0,51.86,16.33c-1.15-21-1.87-42.07-2.37-62.9C637.35,677.84,636.92,650.27,637.77,623.5Z" transform="translate(-476.72 -378.02)"/><path class="cls-16" d="M640.6,625.83c0-4.71,0-9.41,0-14.11,0-.85,0-1.7,0-2.57-.4,0-.81.11-1.22.17-.33-.19-.66-.39-1-.54,0,.24,0,.48,0,.7q-.35,6.94-.58,14c-.85,26.77-.42,54.34.24,81.29.5,20.83,1.22,41.9,2.37,62.9,1,.18,2,.35,3.08.5-1.11-20.27-2.05-40.54-2.54-60.9C640.27,680,640.58,653,640.6,625.83Z" transform="translate(-476.72 -378.02)"/><path class="cls-2" d="M664.81,610.87l3.83,9.71,3.5-10,15.59-5.44c-.19-1.27-.39-5.19-.56-9.71-.14-3.58-.26-7.54-.36-10.93.09,3.39.21,7.35.35,10.92A43,43,0,0,1,651,597.74c.45-4.14.66-9.39.75-13.69-.1,4.3-.3,9.55-.75,13.69-.37,3.59-1,6.36-1.78,6.9Z" transform="translate(-476.72 -378.02)"/><path class="cls-16" d="M668.64,620.58l-3.83-9.71-15.61-6.23-.05.05a39.41,39.41,0,0,1-4.79,3.91C646.65,611.41,650.42,620.56,668.64,620.58Z" transform="translate(-476.72 -378.02)"/><path class="cls-16" d="M672.14,610.63l-3.5,10c1,0,2.11,0,3.24-.09,8.23-.46,14.79-5.9,21-10.91l0,0c-2.83-1.66-4.71-3.07-5.06-4a2,2,0,0,1-.09-.37Z" transform="translate(-476.72 -378.02)"/><path class="cls-16" d="M652.43,675.85a3.24,3.24,0,1,0-3.24,3.24A3.24,3.24,0,0,0,652.43,675.85Z" transform="translate(-476.72 -378.02)"/><path class="cls-16" d="M691.94,675.85a3.24,3.24,0,1,0-3.24,3.24A3.24,3.24,0,0,0,691.94,675.85Z" transform="translate(-476.72 -378.02)"/><path class="cls-16" d="M650.25,735.87a3.24,3.24,0,1,0,3.24,3.24A3.24,3.24,0,0,0,650.25,735.87Z" transform="translate(-476.72 -378.02)"/><path class="cls-16" d="M689.76,735.87a3.24,3.24,0,1,0,3.24,3.24A3.24,3.24,0,0,0,689.76,735.87Z" transform="translate(-476.72 -378.02)"/><path class="cls-2" d="M736.1,615.84H736l-4,42.67,16.07,55,25.6,29.1a197.13,197.13,0,0,0,47.74-40.14C799.55,660.36,761.91,615.92,736.1,615.84Z" transform="translate(-476.72 -378.02)"/><path class="cls-2" d="M589.77,708.17l14.16-48.45-4-42.67a25,25,0,0,0-4.07.36c-23.88,3.94-56,40.87-77,78.26A197.21,197.21,0,0,0,566.45,739l21.41-24.35Z" transform="translate(-476.72 -378.02)"/></svg>