<svg id="Layer_1" data-name="Layer 1" xmlns="http://www.w3.org/2000/svg" viewBox="0 0 393.37 392.37"><defs><style>.cls-1{fill:#fff;}.cls-2{fill:none;}.cls-3{fill:#98c1d9;}.cls-4{fill:#1a1a1a;}.cls-5{fill:#e0fbfc;stroke:#1a2e35;stroke-miterlimit:10;}.cls-12,.cls-6{fill:#4d4d4d;}.cls-7{fill:#252727;}.cls-8{fill:#fff0e7;}.cls-9{fill:#424242;}.cls-10{fill:#ff7d6f;}.cls-11{fill:#3d5a80;}.cls-12{opacity:0.8;}.cls-13{fill:#1a2e35;}.cls-14{fill:#f5f5f5;}.cls-15{fill:#e8505b;}</style></defs><title>Untitled-2</title><path class="cls-1" d="M916.74,644.38a.54.54,0,0,1,.22-.21c2-.92,8.69-2.29,16.68-3.68,5-.87,10.45-1.74,15.58-2.53l2.46-.39c2.7-.41,5.27-.8,7.58-1.13,0-.22,0-.46,0-.7.31.16.64.35,1,.55l1.22-.18,3.79-.54a38.3,38.3,0,0,0,4.79-3.92l0,0c.83-.55,1.42-3.31,1.79-6.9.44-4.14.65-9.4.75-13.7,0-1.72.05-3.29.06-4.57-4.08-3-6.84-7.31-8.87-12.08-.35-.41-.69-.84-1-1.26a24.55,24.55,0,0,1-2.69-4.23,15.53,15.53,0,0,1-1.83-.31,5.92,5.92,0,0,1-1.81-.39s.11,0,.26,0c-4.63-1.62-8.09-5.37-10.13-8.62a20.83,20.83,0,0,1-1.36-2.54c-1.85-4.18-2.47-18.72,2.2-22.14a3.87,3.87,0,0,1,1.88-.78c0-3.59.36-27.84.62-31.15l-1.73-21.25-5.28-.3c-23.86-4-40.74-41.88,5.24-57,0,0,32.36-51.65,74.91-7.82,0,0,32.76-17.81,42.63,33.36,0,0,24.53,27-20.39,37.32l-4.07-.24L1038,527.67c-.93,11.73-4.21,26.09-4.7,28.19a4.52,4.52,0,0,1,1.17.69c4.53,3.59,3.33,18.1,1.32,22.21a20.83,20.83,0,0,1-1.46,2.48c-2.6,3.79-7.27,8.22-13.42,8.78l-.18.05a28.63,28.63,0,0,1-3.26,5.92,26.39,26.39,0,0,1-5.17,8.06,23,23,0,0,1-4.67,3.67c0,1.13.06,2.42.1,3.8.09,3.39.21,7.35.35,10.92.18,4.53.37,8.45.57,9.71a1.79,1.79,0,0,0,.08.37c.35.93,2.23,2.34,5.06,4h0c1.61.28,4,.65,6.86,1.06h0l4.94.68,6.05.83c8.49,1.15,18,2.47,25.33,3.7,25.81.09,63.44,44.51,85.29,86.56a194.59,194.59,0,0,0,45.94-125.85c0-107.91-87.48-195.39-195.4-195.39-102.34,0-186.3,78.69-194.69,178.86q-.51,7-.52,14.19a195.39,195.39,0,0,0,42.12,121.47C860.78,685.25,892.86,648.32,916.74,644.38Z" transform="translate(-797.62 -405.99)"/><path class="cls-2" d="M993.83,409.12c107.92,0,195.4,87.48,195.4,195.39a194.59,194.59,0,0,1-45.94,125.85v0A195.38,195.38,0,0,0,1191,602.17C1191,493.82,1103.16,406,994.81,406c-103.58,0-188.4,80.27-195.67,182C807.53,487.81,891.49,409.12,993.83,409.12Z" transform="translate(-797.62 -405.99)"/><path class="cls-1" d="M910.84,763.87c.22-7.93.46-15.83.7-23.58,0-.68,0-1.33.06-2s0-1.43.07-2.14l-1.9,6.5L888.36,767a196.23,196.23,0,0,0,22.06,12.33c0-1.5.08-3,.11-4.5C910.64,771.18,910.75,767.52,910.84,763.87Z" transform="translate(-797.62 -405.99)"/><path class="cls-1" d="M1069.23,767c-.13,3.66-.24,7.29-.35,10.93q-.11,3-.2,6a196,196,0,0,0,26.89-13.43L1070,741.42C1069.73,749.82,1069.49,758.42,1069.23,767Z" transform="translate(-797.62 -405.99)"/><path class="cls-3" d="M959.67,651.46q.23-7.05.59-14c-2.31.33-4.88.72-7.58,1.13l-2.46.39c-5.13.79-10.62,1.66-15.58,2.53-8,1.39-14.68,2.76-16.68,3.68a.54.54,0,0,0-.22.21,24.8,24.8,0,0,1,4.07-.36l4,42.67-14.17,48.45c0,.71,0,1.43-.07,2.14s0,1.33-.06,2c-.24,7.75-.48,15.65-.7,23.58-.09,3.65-.2,7.31-.31,11,0,1.5-.07,3-.11,4.5a194.67,194.67,0,0,0,51.87,16.34c-1.15-21-1.88-42.07-2.38-62.9C959.26,705.8,958.82,678.24,959.67,651.46Z" transform="translate(-797.62 -405.99)"/><path class="cls-3" d="M1069.23,767c.26-8.58.5-17.18.74-25.58l-16.07-54.95,4-42.67h.07c-7.28-1.23-16.84-2.55-25.33-3.7l-6.05-.83-4.94-.68h0c-2.88-.41-5.25-.78-6.86-1.06h0l0,0c-6.25,5-12.8,10.45-21,10.91-1.13.06-2.2.08-3.25.08-18.22,0-22-9.16-24.27-12l-3.79.54c0,.87,0,1.72,0,2.57,0,4.71,0,9.41,0,14.11,0,27.13-.32,54.17.33,81.47.49,20.36,1.43,40.62,2.53,60.9a198.6,198.6,0,0,0,29.45,2.2,195.75,195.75,0,0,0,73.87-14.4q.09-3,.2-6C1069,774.29,1069.1,770.66,1069.23,767ZM967.85,703.82a3.24,3.24,0,1,1,3.24,3.24A3.24,3.24,0,0,1,967.85,703.82Zm4.31,66.5a3.25,3.25,0,1,1,3.24-3.25A3.26,3.26,0,0,1,972.16,770.32Zm35.2-66.5a3.24,3.24,0,1,1,3.24,3.24A3.24,3.24,0,0,1,1007.36,703.82Zm4.31,66.5a3.25,3.25,0,1,1,3.24-3.25A3.26,3.26,0,0,1,1011.67,770.32Z" transform="translate(-797.62 -405.99)"/><path class="cls-4" d="M962.5,653.79c0-4.7,0-9.4,0-14.11,0-.85,0-1.7,0-2.57l-1.22.18c-.32-.2-.65-.39-1-.55,0,.24,0,.48,0,.7q-.36,7-.59,14c-.85,26.78-.41,54.34.24,81.3.5,20.83,1.23,41.9,2.38,62.9l3.07.5c-1.1-20.28-2-40.54-2.53-60.9C962.18,708,962.48,680.92,962.5,653.79Z" transform="translate(-797.62 -405.99)"/><path class="cls-3" d="M1009.64,633.15c-.2-1.26-.39-5.18-.57-9.71-.14-3.57-.26-7.53-.35-10.92.09,3.38.21,7.34.34,10.91a42.9,42.9,0,0,1-36.17,2.28c.45-4.14.65-9.4.75-13.7-.1,4.3-.31,9.56-.75,13.7-.37,3.59-1,6.35-1.79,6.9l15.61,6.22,3.83,9.71,3.51-9.95Z" transform="translate(-797.62 -405.99)"/><path class="cls-3" d="M1009.06,623.43c-.13-3.57-.25-7.53-.34-10.91,0-1.38-.08-2.67-.1-3.8-8.72,5.26-20.59,5-29.76,1.53a21.65,21.65,0,0,1-5.16-2.81c0,1.28,0,2.85-.06,4.57-.1,4.3-.3,9.56-.75,13.7A42.9,42.9,0,0,0,1009.06,623.43Z" transform="translate(-797.62 -405.99)"/><path class="cls-4" d="M971.1,632.61l0,0a38.3,38.3,0,0,1-4.79,3.92c2.29,2.81,6.05,11.95,24.27,12l-3.83-9.71Z" transform="translate(-797.62 -405.99)"/><path class="cls-4" d="M1009.72,633.52a1.79,1.79,0,0,1-.08-.37l-15.59,5.44-3.51,9.95c1.05,0,2.12,0,3.25-.08,8.23-.46,14.78-5.9,21-10.91l0,0C1012,635.86,1010.07,634.45,1009.72,633.52Z" transform="translate(-797.62 -405.99)"/><path class="cls-4" d="M974.33,703.82a3.24,3.24,0,1,0-3.24,3.24A3.24,3.24,0,0,0,974.33,703.82Z" transform="translate(-797.62 -405.99)"/><path class="cls-4" d="M1013.84,703.82a3.24,3.24,0,1,0-3.24,3.24A3.24,3.24,0,0,0,1013.84,703.82Z" transform="translate(-797.62 -405.99)"/><path class="cls-4" d="M972.16,763.83a3.25,3.25,0,1,0,3.24,3.24A3.25,3.25,0,0,0,972.16,763.83Z" transform="translate(-797.62 -405.99)"/><path class="cls-4" d="M1011.67,763.83a3.25,3.25,0,1,0,3.24,3.24A3.25,3.25,0,0,0,1011.67,763.83Z" transform="translate(-797.62 -405.99)"/><path class="cls-3" d="M1058,643.8h-.07l-4,42.67L1070,741.42l25.6,29.11a197.34,197.34,0,0,0,47.73-40.15v0C1121.44,688.31,1083.81,643.89,1058,643.8Z" transform="translate(-797.62 -405.99)"/><path class="cls-3" d="M911.67,736.14l14.17-48.45-4-42.67a24.8,24.8,0,0,0-4.07.36c-23.88,3.94-56,40.87-77,78.26A197.46,197.46,0,0,0,888.36,767l21.41-24.35Z" transform="translate(-797.62 -405.99)"/><path class="cls-3" d="M943.93,502.34c-23.86-4-40.74-41.88,5.24-57,0,0,32.36-51.65,74.91-7.82,0,0,32.76-17.81,42.63,33.36,0,0,24.53,27-20.39,37.32Z" transform="translate(-797.62 -405.99)"/><path class="cls-5" d="M1021.38,591.07c6.4-.34,11.27-4.93,13.94-8.83a20.83,20.83,0,0,0,1.46-2.48c2-4.11,3.21-18.62-1.32-22.21-3.18-2.52-5.73.8-7,3h0a15.39,15.39,0,0,0-.82,1.69Z" transform="translate(-797.62 -405.99)"/><path class="cls-6" d="M1024.76,585.62l.22-.14c.14-.1.36-.22.61-.42a9.28,9.28,0,0,0,1.91-2,10.69,10.69,0,0,0,1.67-3.8,10.22,10.22,0,0,0-.22-5.15,5.07,5.07,0,0,0-.24-.65l-.07-.16s0,0,0,0h0v0l.07-.14.14-.27c.09-.18.18-.36.28-.53a21.71,21.71,0,0,1,1.2-2c.41-.6.84-1.16,1.26-1.66a11.51,11.51,0,0,1,1.22-1.32,2.31,2.31,0,0,1,1.22-.61,1.54,1.54,0,0,1,1,.26,1.12,1.12,0,0,1,.42.53.6.6,0,0,1,0,.25.66.66,0,0,0,0-.26,1.22,1.22,0,0,0-.35-.68,1.79,1.79,0,0,0-1.14-.52,2.76,2.76,0,0,0-1.6.5,11.13,11.13,0,0,0-1.49,1.24,17.06,17.06,0,0,0-2.89,3.61l-.33.55-.15.29-.21.4-.14.29c0,.09.08.19.11.29l.17.42a3.85,3.85,0,0,1,.2.57,10.58,10.58,0,0,1,.39,4.56,11.7,11.7,0,0,1-1.14,3.65,10.82,10.82,0,0,1-1.5,2.19c-.2.24-.39.4-.5.52Z" transform="translate(-797.62 -405.99)"/><path class="cls-5" d="M961.18,589.88c-6.39-.6-11.06-5.37-13.58-9.38a20.83,20.83,0,0,1-1.36-2.54c-1.85-4.18-2.47-18.72,2.2-22.14,3.27-2.38,5.69,1,6.84,3.3h0a15.52,15.52,0,0,1,.75,1.72Z" transform="translate(-797.62 -405.99)"/><path class="cls-6" d="M958,584.3l-.21-.15c-.13-.1-.35-.24-.59-.45a9.22,9.22,0,0,1-1.83-2.07,10.53,10.53,0,0,1-1.52-3.86,10.07,10.07,0,0,1,.43-5.13,6.29,6.29,0,0,1,.26-.65l.08-.15s0,0,0,0h0v0l-.06-.14-.13-.28c-.09-.18-.17-.37-.26-.54a21.11,21.11,0,0,0-1.12-2c-.39-.62-.8-1.19-1.2-1.71a11.22,11.22,0,0,0-1.17-1.37,2.35,2.35,0,0,0-1.19-.66,1.54,1.54,0,0,0-1,.22,1.09,1.09,0,0,0-.45.52.8.8,0,0,0-.06.25.74.74,0,0,1,0-.26,1.17,1.17,0,0,1,.37-.67,1.8,1.8,0,0,1,1.16-.47,2.77,2.77,0,0,1,1.58.56,11.4,11.4,0,0,1,1.44,1.29,17.4,17.4,0,0,1,1.42,1.68,16,16,0,0,1,1.32,2,5.12,5.12,0,0,1,.3.57l.15.29.19.41.13.29a2.38,2.38,0,0,1-.13.29l-.18.41a5.48,5.48,0,0,0-.23.56,10.64,10.64,0,0,0-.56,4.54,11.4,11.4,0,0,0,1,3.7,10.87,10.87,0,0,0,1.4,2.24c.2.25.38.42.49.55Z" transform="translate(-797.62 -405.99)"/><path class="cls-5" d="M957.28,564.58a159.82,159.82,0,0,0,3.82,19.32c2.8,10.71,6.67,22.18,17.76,26.35,10.94,4.11,25.75,3.76,34.43-5.2,5.58-5.75,7.28-14.06,9.54-21.53,7.84-25.92,13.76-66.58-16.16-80.53-10.64-5-24.44-6.22-34.75.31-9,5.73-13.2,15.68-14.72,26.05A127.53,127.53,0,0,0,957.28,564.58Z" transform="translate(-797.62 -405.99)"/><path class="cls-1" d="M973.48,584.16s14.2-3.16,36.13,3.9c0,0-7.25,15-20.25,12.8S973.48,584.16,973.48,584.16Z" transform="translate(-797.62 -405.99)"/><path class="cls-7" d="M1014.23,557.93c-.16,3.77-2.19,6.75-4.54,6.66s-4.12-3.24-4-7,2.18-6.75,4.53-6.65S1014.39,554.16,1014.23,557.93Z" transform="translate(-797.62 -405.99)"/><path class="cls-8" d="M1014.11,555.78a9.77,9.77,0,0,1,5.31-.19,9.69,9.69,0,0,1-4.23,3.23" transform="translate(-797.62 -405.99)"/><path class="cls-7" d="M969.64,557.05c0,3.77,1.91,6.83,4.26,6.83s4.25-3.07,4.25-6.85-1.92-6.83-4.27-6.82S969.63,553.28,969.64,557.05Z" transform="translate(-797.62 -405.99)"/><path class="cls-8" d="M973.94,558.29" transform="translate(-797.62 -405.99)"/><path class="cls-8" d="M964.54,554.51" transform="translate(-797.62 -405.99)"/><path class="cls-9" d="M1023,544.84s-13.5-13.34-19.6-10.76c-3.57,1.5-1.31,3.46-1.31,3.46Z" transform="translate(-797.62 -405.99)"/><path class="cls-9" d="M961.78,537.14s18.62-3.65,22.28,1.88c2.14,3.23-.83,3.6-.83,3.6Z" transform="translate(-797.62 -405.99)"/><path class="cls-10" d="M997.64,576l-1.93-3.86a16,16,0,0,1-9.36-3.8,12.35,12.35,0,0,0-.52,3.3,4.54,4.54,0,0,0,1.1,3.07,5.64,5.64,0,0,0,2.72,1.43A14.2,14.2,0,0,0,997.64,576Z" transform="translate(-797.62 -405.99)"/><path class="cls-6" d="M986.37,574.53a10.92,10.92,0,0,0,1.21.86,12.6,12.6,0,0,0,3.79,1.55,13.76,13.76,0,0,0,2.86.34,12.81,12.81,0,0,0,4.13-.64l.38-.1s.15,0,.17-.06l-.09-.15-.35-.62-.72-1.28a3.86,3.86,0,0,1-.27-.51l-.19-.38-.39-.78a35.29,35.29,0,0,1-1.34-3.37,33.2,33.2,0,0,1-1.69-12.62,32.85,32.85,0,0,1,.47-3.93l.3-1.44-.6,1.35a23.13,23.13,0,0,0-1.18,3.88,25.59,25.59,0,0,0,.77,13.41,27.64,27.64,0,0,0,1.52,3.59l.85,1.47c0,.09.29.31.23.35a7.54,7.54,0,0,1-2.06.44,14.71,14.71,0,0,1-2.64,0,14.18,14.18,0,0,1-3.82-.83C986.84,574.77,986.37,574.53,986.37,574.53Z" transform="translate(-797.62 -405.99)"/><path class="cls-11" d="M952.79,512.56c1,11.78,44.06,15.62,44.06,15.62-5.42-2.23-7.45-10.76-7.57-11.29,4.48,6.86,36.55,14.66,36.55,14.66,3,3.84,3,30.41,3,30.41l5.36-4.83s4.42-18.6,5-31.65c.2-5.05-.17-9.27-1.62-11.24-5.17-7.08-23-17-40.48-20.75-14.42-3.07-35.84,3.89-42.36,13A9.11,9.11,0,0,0,952.79,512.56Z" transform="translate(-797.62 -405.99)"/><path class="cls-11" d="M955.79,512.82s-4.56,7.48-4.85,11.07-.62,31.61-.62,31.61l5.71,5.34s5.09-39.52,7.26-43.48S955.79,512.82,955.79,512.82Z" transform="translate(-797.62 -405.99)"/><path class="cls-3" d="M950.94,523.89s39.55-16,88,4.8l5.91-37.53s-52.27-24.22-96.93-3.72Z" transform="translate(-797.62 -405.99)"/><path class="cls-12" d="M949.73,504l-3.84-21.11s52.78-18.06,97.82,1.74l-.87,2.25s-40.38-18.41-93.84-2.25l.73,19.37Z" transform="translate(-797.62 -405.99)"/><path class="cls-12" d="M1058.86,477a17.75,17.75,0,0,1-4.58,1.91,51.89,51.89,0,0,1-5.16,1.7,1.63,1.63,0,0,1-2.06-1.88,52.89,52.89,0,0,1,4.89-12.5,1.1,1.1,0,0,1,2,1,90.53,90.53,0,0,0-3,9.11l1.86-.69a19.19,19.19,0,0,1,5.14-1.61C1059.61,473.92,1060.09,476.13,1058.86,477Z" transform="translate(-797.62 -405.99)"/><path class="cls-12" d="M996.24,449.08a17.43,17.43,0,0,1,.4,4.95,49.18,49.18,0,0,1,0,5.43,1.63,1.63,0,0,1-2.42,1.38,53.33,53.33,0,0,1-10.37-8.51,1.1,1.1,0,0,1,1.55-1.56,92.33,92.33,0,0,0,7.75,5.65l-.09-2a19.07,19.07,0,0,1,.06-5.39C993.53,447.41,995.78,447.64,996.24,449.08Z" transform="translate(-797.62 -405.99)"/><path class="cls-13" d="M963.31,574.14a66.14,66.14,0,0,1-4.07-6.76,63.75,63.75,0,0,1-3.66-7,64,64,0,0,1,4.07,6.75A62.31,62.31,0,0,1,963.31,574.14Z" transform="translate(-797.62 -405.99)"/><path class="cls-13" d="M965.78,590a18.29,18.29,0,0,1-4.18-.19,18.76,18.76,0,0,1-4.13-.67,19,19,0,0,1,4.18.19A18.76,18.76,0,0,1,965.78,590Z" transform="translate(-797.62 -405.99)"/><path class="cls-13" d="M1020.61,574a65.61,65.61,0,0,0,4.39-6.56,62,62,0,0,0,4-6.8,130.47,130.47,0,0,0-8.38,13.36Z" transform="translate(-797.62 -405.99)"/><path class="cls-13" d="M1017.25,592.08a36.8,36.8,0,0,0,8-2.26,18.59,18.59,0,0,0-4.08.9A19.05,19.05,0,0,0,1017.25,592.08Z" transform="translate(-797.62 -405.99)"/><path class="cls-14" d="M1024.29,594.5" transform="translate(-797.62 -405.99)"/><path class="cls-15" d="M960.75,568.64h0a24.59,24.59,0,0,0,3,25.46,48.16,48.16,0,0,0,8.58,8.81,33.83,33.83,0,0,0,30.91,4.59s15.39-3.14,19.85-20.73a43.55,43.55,0,0,0,1.15-12.52s-16.91-5.67-24-6.32-22.81,3.71-28.78,2.9A82.61,82.61,0,0,1,960.75,568.64Z" transform="translate(-797.62 -405.99)"/><path d="M1014.15,598.56a2.56,2.56,0,0,1-.52.3c-.34.17-.85.43-1.51.74a38.65,38.65,0,0,1-14.92,3.31,39.66,39.66,0,0,1-16.69-3.21,49.74,49.74,0,0,1-4.9-2.46c-3.05-1.73-5.68-3.48-7.91-4.89s-4.06-2.53-5.35-3.26l-1.48-.83a2.76,2.76,0,0,1-.5-.31,2.45,2.45,0,0,1,.54.22c.35.17.87.41,1.52.76,1.31.67,3.17,1.74,5.43,3.12s4.9,3.1,7.94,4.8a51.37,51.37,0,0,0,4.87,2.42,40.24,40.24,0,0,0,5.49,1.87,40.95,40.95,0,0,0,20,.18,45.37,45.37,0,0,0,5.86-1.89l1.54-.66A3.41,3.41,0,0,1,1014.15,598.56Z" transform="translate(-797.62 -405.99)"/><path class="cls-13" d="M1019.11,582.91a3.88,3.88,0,0,1-.56.14l-1.61.33c-1.4.26-3.44.63-6,1A125.25,125.25,0,0,1,991.11,586a73.49,73.49,0,0,1-19.73-2.75,53.46,53.46,0,0,1-5.71-2c-.66-.27-1.15-.52-1.5-.68a1.9,1.9,0,0,1-.5-.27,3.69,3.69,0,0,1,.54.18c.36.13.86.35,1.53.59,1.33.51,3.28,1.19,5.73,1.87a77.21,77.21,0,0,0,19.64,2.59,137.94,137.94,0,0,0,19.82-1.44l6-.87,1.62-.23A2.29,2.29,0,0,1,1019.11,582.91Z" transform="translate(-797.62 -405.99)"/><path class="cls-13" d="M1018.08,578.08a3,3,0,0,1-.57-.11l-1.63-.41c-1.41-.36-3.45-.9-6-1.49a76.15,76.15,0,0,0-9-1.61,64.79,64.79,0,0,0-11.14-.18c-4,.2-7.74.48-11.2.43a40.5,40.5,0,0,1-9.1-1,24.42,24.42,0,0,1-5.8-2.16,15.89,15.89,0,0,1-1.44-.86,2.38,2.38,0,0,1-.47-.35s.7.41,2,1.05a27,27,0,0,0,5.78,2,41.62,41.62,0,0,0,9,.93c3.43,0,7.2-.26,11.17-.47A63.49,63.49,0,0,1,1001,574a71.7,71.7,0,0,1,9,1.72c2.53.63,4.55,1.23,5.95,1.64l1.6.49A2.08,2.08,0,0,1,1018.08,578.08Z" transform="translate(-797.62 -405.99)"/><path class="cls-13" d="M1008.65,591a11.26,11.26,0,0,1-2.59.8,38.65,38.65,0,0,1-13,.77,11.7,11.7,0,0,1-2.67-.49,21.89,21.89,0,0,1,2.7.15,52.69,52.69,0,0,0,6.49,0,52,52,0,0,0,6.45-.79A23.25,23.25,0,0,1,1008.65,591Z" transform="translate(-797.62 -405.99)"/></svg>