<svg xmlns="http://www.w3.org/2000/svg" viewBox="0 0 390.79 390.79"><defs><style>.cls-1{isolation:isolate;}.cls-2,.cls-3{fill:#e0fbfc;}.cls-3{stroke:#1a2e35;stroke-miterlimit:10;}.cls-4{fill:none;}.cls-5{fill:#e8505b;}.cls-6{fill:#fff;}.cls-7{fill:#3d5a80;}.cls-12,.cls-8{fill:#98c1d9;}.cls-9{opacity:0.21;mix-blend-mode:multiply;}.cls-10{fill:#abcddd;}.cls-11{fill:#1a2e35;}.cls-12{opacity:0.7;}.cls-13{fill:#4d4d4d;opacity:0.81;}.cls-14{fill:#293241;}</style></defs><title>ontime</title><g class="cls-1"><g id="Layer_1" data-name="Layer 1"><circle class="cls-2" cx="195.4" cy="195.4" r="195.4"/><path class="cls-3" d="M500.9,532.89c2.8,26.64,5.79,42-5.15,58.23C479.31,615.47,445,610,434.41,585c-9.57-22.5-12.54-62.28,11.28-78C469.15,491.6,498.1,506.26,500.9,532.89Z" transform="translate(-254.87 -382.44)"/><path class="cls-4" d="M450.27,382.44c-107.91,0-195.4,87.48-195.4,195.4,0,91.28,62.6,167.93,147.2,189.4,1.53-22.88,3.23-44.67,5.05-62.15l-18.5,5.19-22.47,7.83c-.07,1.26-.14,2.58-.24,3.94l.37.22-.52,1.82c-.28,3.59-.66,7.35-1.13,10.82-.6,4.39-4.59,7.51-9.45,7.37l-6.76-.18c-6.29-.17-11-5.7-9.74-11.25l1.12-5.07,1-4.42h0l2.16-9.73a7.4,7.4,0,0,1,.93-2.27l-.16-.79,43.87-35.7,45.09-36.28c11-12.08,25-20.83,41-21.59,28.32-1.35,61.19,44.36,65,57.85,1.35,4.78,3.36,36.92,5.41,76.44A195.36,195.36,0,0,0,645.67,577.84C645.67,469.92,558.19,382.44,450.27,382.44Zm62.37,119.09,3.26,40.14c.16,2-.92,3.39-2,2.65l-.15-.09c2.36,3,2.87,7.85,1,12.57a28.93,28.93,0,0,1-12.09,14.26A43.06,43.06,0,0,1,495.35,591c-16.45,24.35-50.72,18.86-61.35-6.14-.47-1.1-.92-2.26-1.35-3.45a3.11,3.11,0,0,1-2-.91,4.87,4.87,0,0,1-1.36-2.35,3,3,0,0,1,0-1.44,1.63,1.63,0,0,1,1.09-1.17l.23.81c-.5.17-.6.86-.39,1.56a3.94,3.94,0,0,0,1.16,1.82,2.3,2.3,0,0,0,.82.48A96.37,96.37,0,0,1,427,546a1.27,1.27,0,0,1-.88.42,1.3,1.3,0,0,1-.73-.2,1.29,1.29,0,0,1-.4-1.76,14.23,14.23,0,0,1,2.31-2.82c.2-2.15.48-4.27.87-6.36a1.79,1.79,0,0,1-2-2.05c.24-1.61.49-3.15.74-4.62a67.21,67.21,0,0,1-27.05,5.65c-.38,0-.75,0-1.12,0a.7.7,0,0,1-.14,0h0l-.18,0A67.37,67.37,0,0,1,352.69,515a.73.73,0,0,1-.93-.09h0a.73.73,0,0,1-.1-.94,67.39,67.39,0,0,1-19.35-46.18h-.09a.76.76,0,0,1-.76-.76h0a.76.76,0,0,1,.76-.76h.07a67.41,67.41,0,0,1,18.92-46.53.76.76,0,0,1,0-1h0a.74.74,0,0,1,1,0,67.39,67.39,0,0,1,46.16-19.58.58.58,0,0,1,.18,0h0a.7.7,0,0,1,.14,0c.37,0,.74,0,1.12,0a67.6,67.6,0,0,1,65.22,49.85c22.52,1.58,44.85,10.6,54.72,25C531.59,491.05,526.59,503.77,512.64,501.53Z" transform="translate(-254.87 -382.44)"/><path class="cls-5" d="M426.5,523.28l2.8-15.83h0l.1-.55,1.05-5.91c-8.68-.65-15.48-2.84-18.16-7.56-3.46-6.06-4.51-11.84-3.74-17.11l-8.34-6.92a2.86,2.86,0,0,1-.38-.4,2,2,0,0,1-.43,0,2.06,2.06,0,0,1-1.11-3.8V443.62a1,1,0,0,1,1.1-1h0a1,1,0,0,1,1.1,1v21.62a2.06,2.06,0,0,1,1,1.74c0,.1,0,.2,0,.3a3.53,3.53,0,0,1,.34.24l7.34,6.09c2.67-9.7,11.71-17.33,23.22-21.15,9.9-3.29,21.35-4.39,32.75-3.59A67.6,67.6,0,0,0,399.87,399c-.38,0-.75,0-1.12,0a.75.75,0,0,1,.62.73v3.82a.76.76,0,0,1-.76.76h0a.76.76,0,0,1-.76-.76v-3.82a.75.75,0,0,1,.58-.72,67.39,67.39,0,0,0-46.16,19.58l.06,0,2.7,2.71a.77.77,0,0,1,0,1.07h0a.75.75,0,0,1-1.07,0l-2.7-2.71,0,0a67.41,67.41,0,0,0-18.92,46.53H336a.76.76,0,0,1,.76.76h0a.77.77,0,0,1-.76.77H332.3A67.39,67.39,0,0,0,351.65,514l.08-.13,2.67-2.73a.77.77,0,0,1,1.08,0h0a.76.76,0,0,1,0,1.08l-2.67,2.73a.71.71,0,0,1-.14.1,67.37,67.37,0,0,0,45.72,19.17.76.76,0,0,1-.58-.73v-3.82a.76.76,0,0,1,.76-.76h0a.76.76,0,0,1,.76.76v3.82a.74.74,0,0,1-.62.73c.37,0,.74,0,1.12,0a67.21,67.21,0,0,0,27.05-5.65c.13-.71.26-1.4.39-2.08A3.64,3.64,0,0,1,426.5,523.28Zm16-102.31,2.67-2.73a.77.77,0,0,1,1.08,0h0a.76.76,0,0,1,0,1.08l-2.67,2.73a.76.76,0,0,1-1.07,0h0A.77.77,0,0,1,442.49,421Z" transform="translate(-254.87 -382.44)"/><path class="cls-6" d="M399.62,467.33v0a1.43,1.43,0,0,1,1.81,0c0-.1,0-.2,0-.3a2.06,2.06,0,0,0-1-1.74v.42a1,1,0,0,1-1.1,1h0a1,1,0,0,1-1.1-1v-.42a2.06,2.06,0,0,0,1.11,3.8,2,2,0,0,0,.43,0A1.35,1.35,0,0,1,399.62,467.33Z" transform="translate(-254.87 -382.44)"/><path class="cls-6" d="M399.39,466.62h0a1,1,0,0,0,1.1-1v-22a1,1,0,0,0-1.1-1h0a1,1,0,0,0-1.1,1v22A1,1,0,0,0,399.39,466.62Z" transform="translate(-254.87 -382.44)"/><path class="cls-6" d="M401.44,467.28a1.43,1.43,0,0,0-1.81,0v0a1.35,1.35,0,0,0,.21,1.67,2.86,2.86,0,0,0,.38.4l8.34,6.92a22.48,22.48,0,0,1,.57-2.71l-7.34-6.09A3.53,3.53,0,0,0,401.44,467.28Z" transform="translate(-254.87 -382.44)"/><path class="cls-6" d="M399.37,533.45v-3.82a.76.76,0,0,0-.76-.76h0a.76.76,0,0,0-.76.76v3.82a.76.76,0,0,0,.58.73l.18,0h0a.7.7,0,0,0,.14,0A.74.74,0,0,0,399.37,533.45Z" transform="translate(-254.87 -382.44)"/><path class="cls-6" d="M397.83,399.78v3.82a.76.76,0,0,0,.76.76h0a.76.76,0,0,0,.76-.76v-3.82a.75.75,0,0,0-.62-.73.7.7,0,0,0-.14,0h0a.58.58,0,0,0-.18,0A.75.75,0,0,0,397.83,399.78Z" transform="translate(-254.87 -382.44)"/><path class="cls-6" d="M336.79,467h0a.76.76,0,0,0-.76-.76h-3.82a.76.76,0,0,0-.76.76h0a.76.76,0,0,0,.76.76H336A.77.77,0,0,0,336.79,467Z" transform="translate(-254.87 -382.44)"/><path class="cls-6" d="M353.92,422.47a.75.75,0,0,0,1.07,0h0a.77.77,0,0,0,0-1.07l-2.7-2.71-.06,0a.74.74,0,0,0-1,0h0a.76.76,0,0,0,0,1l0,0Z" transform="translate(-254.87 -382.44)"/><rect class="cls-6" x="441.71" y="419.38" width="5.34" height="1.54" rx="0.76" transform="translate(-421.57 61.85) rotate(-45.66)"/><path class="cls-6" d="M355.5,512.18a.76.76,0,0,0,0-1.08h0a.77.77,0,0,0-1.08,0l-2.67,2.73-.08.13a.73.73,0,0,0,.1.94h0a.73.73,0,0,0,.93.09.71.71,0,0,0,.14-.1Z" transform="translate(-254.87 -382.44)"/><path class="cls-7" d="M432.67,636.59l-45.09,36.28-43.87,35.7.16.79a8.88,8.88,0,0,1,5.8-3.89c6.79-1.42,15.5,1.48,16.27,2.31.44.48.49,4.73.21,10.33l22.47-7.83,18.5-5.19c1.89-18.15,3.91-31.66,6-36.91A105.82,105.82,0,0,1,432.67,636.59Z" transform="translate(-254.87 -382.44)"/><path class="cls-8" d="M473.67,615c-16,.76-30,9.51-41,21.59a105.82,105.82,0,0,0-19.54,31.59c-2.1,5.25-4.12,18.76-6,36.91-1.82,17.48-3.52,39.27-5.05,62.15a195.89,195.89,0,0,0,48.2,6c1.13,0,2.25,0,3.38,0-.71-31.57-1.4-62.75-1.7-78.6-.12-6.73,3.54-15.72,3.58-15.78,9.25-12.2,25.28-12,36.1-5.45a25.62,25.62,0,0,1,12.14,19.87v-.1l3.26,9.53a32.78,32.78,0,0,1,.84,18.28l-11.26,46.75a194.25,194.25,0,0,0,47.44-18.4c-2-39.52-4.06-71.66-5.41-76.44C534.86,659.36,502,613.65,473.67,615Z" transform="translate(-254.87 -382.44)"/><path class="cls-8" d="M507,702.66l-3.26-9.53v.1a26.69,26.69,0,0,1-.33,6.78l-12.67,69c2-.41,3.91-.86,5.85-1.33l11.26-46.75A32.78,32.78,0,0,0,507,702.66Z" transform="translate(-254.87 -382.44)"/><path class="cls-9" d="M507,702.66l-3.26-9.53v.1a26.69,26.69,0,0,1-.33,6.78l-12.67,69c2-.41,3.91-.86,5.85-1.33l11.26-46.75A32.78,32.78,0,0,0,507,702.66Z" transform="translate(-254.87 -382.44)"/><path class="cls-7" d="M503.77,693.23a25.62,25.62,0,0,0-12.14-19.87c-10.82-6.59-26.85-6.75-36.1,5.45,0,.06-3.7,9.05-3.58,15.78.3,15.85,1,47,1.7,78.6A195.64,195.64,0,0,0,490.77,769l12.67-69A26.69,26.69,0,0,0,503.77,693.23Z" transform="translate(-254.87 -382.44)"/><path class="cls-10" d="M358,722.56a5.64,5.64,0,0,1-3.93,1.24,6,6,0,0,1-3.83-1.44c-6.53.89-10.63,4.15-10.68,4.37l.21-1-1.12,5.07c-1.23,5.55,3.45,11.08,9.74,11.25l6.76.18c4.86.14,8.85-3,9.45-7.37.47-3.47.85-7.23,1.13-10.82l-.28,1A28,28,0,0,0,358,722.56Zm.69,15.54c-2.24,1.93-2,1.82-5.06,1.77s-8.48.75-10.41-1-1.36-7.54-1.49-8.31,1.77-2.81,1.77-2.81c.26-1.82,15.88-2.86,16.94,0S361,736.18,358.72,738.1Z" transform="translate(-254.87 -382.44)"/><path class="cls-10" d="M365.94,707.78c-.77-.83-9.48-3.73-16.27-2.31a8.88,8.88,0,0,0-5.8,3.89,7.4,7.4,0,0,0-.93,2.27l-2.16,9.73a27.34,27.34,0,0,1,8.25-2.45c.45-1.85,2.57-3.13,5-3.06s4.84,1.6,5.19,3.65a27.6,27.6,0,0,1,6.73,2.55c.1-1.36.17-2.68.24-3.94C366.43,712.51,366.38,708.26,365.94,707.78Z" transform="translate(-254.87 -382.44)"/><path class="cls-2" d="M343.53,727.72s-1.91,2-1.77,2.81-.42,6.56,1.49,8.31,7.39,1,10.41,1,2.82.16,5.06-1.77,2.82-7.54,1.75-10.41S343.79,725.9,343.53,727.72Z" transform="translate(-254.87 -382.44)"/><path class="cls-5" d="M350.27,722.36a3.56,3.56,0,0,1-1.31-3.17,2.29,2.29,0,0,1,.07-.28,27.34,27.34,0,0,0-8.25,2.45h0l-1,4.42-.21,1C339.64,726.51,343.74,723.25,350.27,722.36Z" transform="translate(-254.87 -382.44)"/><path class="cls-5" d="M359.18,719.5h0a3.29,3.29,0,0,1-1.16,3,28,28,0,0,1,7.45,2.51l.28-1,.52-1.82-.37-.22A27.6,27.6,0,0,0,359.18,719.5Z" transform="translate(-254.87 -382.44)"/><path class="cls-5" d="M350.27,722.36a6,6,0,0,0,3.83,1.44,5.64,5.64,0,0,0,3.93-1.24,3.29,3.29,0,0,0,1.16-3h0c-.35-2-2.66-3.58-5.19-3.65s-4.51,1.21-5,3.06a2.29,2.29,0,0,0-.07.28A3.56,3.56,0,0,0,350.27,722.36Z" transform="translate(-254.87 -382.44)"/><path class="cls-11" d="M467.05,572.16a3.2,3.2,0,0,0,1.41-1.41,3.51,3.51,0,0,0,.19-2,3.36,3.36,0,0,0-2.62-2.63l-.12.87c1.91.29,2.6,3.53.66,4.19-1.83.82-4,0-6.33-.28a15.55,15.55,0,0,0-7,.51,9.74,9.74,0,0,0-5.42,4.67l1.46.76a8.11,8.11,0,0,1,4.46-4.06,14.09,14.09,0,0,1,6.35-.63C462.19,572.33,464.62,573.28,467.05,572.16Z" transform="translate(-254.87 -382.44)"/><path class="cls-11" d="M433.45,581.3a4.48,4.48,0,0,0,2.21-1.75,5.63,5.63,0,0,1,3.39-2.58,5.09,5.09,0,0,1,3.87,1.48l1-1.33a6.63,6.63,0,0,0-5.16-1.6,7,7,0,0,0-4.16,3.32,3.49,3.49,0,0,1-1.49,1.36,1.45,1.45,0,0,1-.92,0,2.3,2.3,0,0,1-.82-.48,3.94,3.94,0,0,1-1.16-1.82c-.21-.7-.11-1.39.39-1.56l-.23-.81a1.63,1.63,0,0,0-1.09,1.17,3,3,0,0,0,0,1.44,4.87,4.87,0,0,0,1.36,2.35,3.11,3.11,0,0,0,2,.91A2.22,2.22,0,0,0,433.45,581.3Z" transform="translate(-254.87 -382.44)"/><path class="cls-7" d="M490.07,549.17a4.05,4.05,0,0,0,4.15,4.78c2.6-6.2,7.15-12.33,12.77-12.67a8.76,8.76,0,0,1,2.38.18,101.69,101.69,0,0,0-18-8C491.76,538.33,490.93,544.49,490.07,549.17Z" transform="translate(-254.87 -382.44)"/><path class="cls-7" d="M455.72,526.13a110.56,110.56,0,0,0-27.6.61,1,1,0,0,1-.81-.26c-.13.68-.26,1.37-.39,2.08-.25,1.47-.5,3-.74,4.62a1.79,1.79,0,0,0,2,2.05,1.86,1.86,0,0,0,.56-.15C434.16,532.53,445.12,529.75,455.72,526.13Z" transform="translate(-254.87 -382.44)"/><path class="cls-8" d="M512.75,502.91c-4.54.73-11.43-1.5-20.22-7.85-12.57,4.07-44.82,14.3-63.23,12.39l-2.8,15.83a3.64,3.64,0,0,0,.81,3.2,1,1,0,0,0,.81.26,110.56,110.56,0,0,1,27.6-.61,157.85,157.85,0,0,1,35.64,7.38,101.69,101.69,0,0,1,18,8,7.5,7.5,0,0,1,4.4,2.77l.15.09c1.06.74,2.14-.68,2-2.65l-3.26-40.14h0Z" transform="translate(-254.87 -382.44)"/><path class="cls-12" d="M512.75,502.91c-4.54.73-11.43-1.5-20.22-7.85-12.57,4.07-44.82,14.3-63.23,12.39l-2.8,15.83a3.64,3.64,0,0,0,.81,3.2,1,1,0,0,0,.81.26,110.56,110.56,0,0,1,27.6-.61,157.85,157.85,0,0,1,35.64,7.38,101.69,101.69,0,0,1,18,8,7.5,7.5,0,0,1,4.4,2.77l.15.09c1.06.74,2.14-.68,2-2.65l-3.26-40.14h0Z" transform="translate(-254.87 -382.44)"/><polygon class="cls-8" points="175.58 118.55 175.57 118.55 174.53 124.46 175.58 118.55"/><polygon class="cls-12" points="175.58 118.55 175.57 118.55 174.53 124.46 175.58 118.55"/><polygon class="cls-5" points="174.43 125.01 174.43 125.01 174.53 124.46 174.43 125.01"/><polygon class="cls-13" points="174.43 125.01 174.43 125.01 174.53 124.46 174.43 125.01"/><path class="cls-8" d="M429.3,507.45c18.41,1.91,50.66-8.32,63.23-12.39,8.79,6.35,15.68,8.58,20.22,7.85l-.11-1.38c-5.11-.82-11.41-3.63-18.54-9-12.59,2.95-43.31,9.95-63.65,8.45l-1.05,5.91Z" transform="translate(-254.87 -382.44)"/><path class="cls-12" d="M429.3,507.45c18.41,1.91,50.66-8.32,63.23-12.39,8.79,6.35,15.68,8.58,20.22,7.85l-.11-1.38c-5.11-.82-11.41-3.63-18.54-9-12.59,2.95-43.31,9.95-63.65,8.45l-1.05,5.91Z" transform="translate(-254.87 -382.44)"/><path class="cls-13" d="M429.3,507.45c18.41,1.91,50.66-8.32,63.23-12.39,8.79,6.35,15.68,8.58,20.22,7.85l-.11-1.38c-5.11-.82-11.41-3.63-18.54-9-12.59,2.95-43.31,9.95-63.65,8.45l-1.05,5.91Z" transform="translate(-254.87 -382.44)"/><path class="cls-8" d="M465.09,448.87c-11.4-.8-22.85.3-32.75,3.59-11.51,3.82-20.55,11.45-23.22,21.15a22.48,22.48,0,0,0-.57,2.71c-.77,5.27.28,11.05,3.74,17.11,2.68,4.72,9.48,6.91,18.16,7.56h0c20.34,1.5,51.06-5.5,63.65-8.45,7.13,5.36,13.43,8.17,18.54,9h0c14,2.24,19-10.48,7.17-27.66C509.94,459.47,487.61,450.45,465.09,448.87Z" transform="translate(-254.87 -382.44)"/><path class="cls-12" d="M465.09,448.87c-11.4-.8-22.85.3-32.75,3.59-11.51,3.82-20.55,11.45-23.22,21.15a22.48,22.48,0,0,0-.57,2.71c-.77,5.27.28,11.05,3.74,17.11,2.68,4.72,9.48,6.91,18.16,7.56h0c20.34,1.5,51.06-5.5,63.65-8.45,7.13,5.36,13.43,8.17,18.54,9h0c14,2.24,19-10.48,7.17-27.66C509.94,459.47,487.61,450.45,465.09,448.87Z" transform="translate(-254.87 -382.44)"/><path class="cls-7" d="M509.37,541.46a8.76,8.76,0,0,0-2.38-.18c-5.62.34-10.17,6.47-12.77,12.67a34,34,0,0,0-2,6.36c-1.66,8.33,2.5,15,9.89,11.08.2-.1.39-.22.59-.33a28.93,28.93,0,0,0,12.09-14.26c1.85-4.72,1.34-9.57-1-12.57A7.5,7.5,0,0,0,509.37,541.46Zm-8.1,13.29a69.47,69.47,0,0,1-7,5.11,73.81,73.81,0,0,1,6.67-5.52,72.66,72.66,0,0,1,7-5.12A69.42,69.42,0,0,1,501.27,554.75Z" transform="translate(-254.87 -382.44)"/><path class="cls-11" d="M460.44,546.78c-1.39.28-2.23,2.25-1.87,4.39s1.78,3.65,3.17,3.37,2.23-2.25,1.87-4.4S461.83,546.5,460.44,546.78Z" transform="translate(-254.87 -382.44)"/><path class="cls-11" d="M435.25,552.05c-1.39.28-2.23,2.24-1.87,4.39s1.78,3.65,3.17,3.36,2.22-2.25,1.86-4.39S436.64,551.76,435.25,552.05Z" transform="translate(-254.87 -382.44)"/><path class="cls-14" d="M444.41,552l-2.14,19.31c4.35,2.78,2.15-1.07,2.15-1.07Z" transform="translate(-254.87 -382.44)"/><path class="cls-11" d="M473.78,572a.64.64,0,0,0-.84.34,17.87,17.87,0,0,1-12.64,9.44.64.64,0,1,0,.25,1.25,19,19,0,0,0,2.45-.65,18.72,18.72,0,0,0,11.12-9.54A.65.65,0,0,0,473.78,572Z" transform="translate(-254.87 -382.44)"/><path class="cls-11" d="M458.09,536.72a9.69,9.69,0,0,1,8.27,3.63,1.26,1.26,0,0,0,1.22.43,1.29,1.29,0,0,0,.58-.27,1.27,1.27,0,0,0,.15-1.8,12.28,12.28,0,0,0-10.59-4.52,1.27,1.27,0,0,0-1.08,1.45A1.29,1.29,0,0,0,458.09,536.72Z" transform="translate(-254.87 -382.44)"/><path class="cls-11" d="M435,540.6a1.28,1.28,0,0,0-.1-2.55h0a12.8,12.8,0,0,0-7.61,3.54,14.23,14.23,0,0,0-2.31,2.82,1.29,1.29,0,0,0,.4,1.76,1.3,1.3,0,0,0,.73.2A1.27,1.27,0,0,0,427,546a.65.65,0,0,0,.15-.18A10.67,10.67,0,0,1,435,540.6Z" transform="translate(-254.87 -382.44)"/><path class="cls-7" d="M507.94,549.22a72.66,72.66,0,0,0-7,5.12,73.81,73.81,0,0,0-6.67,5.52,142.09,142.09,0,0,0,13.66-10.64Z" transform="translate(-254.87 -382.44)"/></g></g></svg>