<svg xmlns="http://www.w3.org/2000/svg" viewBox="0 0 390.79 390.79"><defs><style>.cls-1{isolation:isolate;}.cls-2{fill:#fff;}.cls-3{fill:none;}.cls-4{fill:#e8505b;}.cls-5{fill:#3d5a80;}.cls-12,.cls-6{fill:#98c1d9;}.cls-7{opacity:0.21;mix-blend-mode:multiply;}.cls-8{fill:#abcddd;}.cls-10,.cls-9{fill:#e0fbfc;}.cls-10{stroke:#1a2e35;stroke-miterlimit:10;}.cls-11{fill:#1a2e35;}.cls-12{opacity:0.7;}.cls-13{fill:#4d4d4d;opacity:0.81;}.cls-14{fill:#293241;}</style></defs><title>Untitled-3</title><g class="cls-1"><g id="Layer_1" data-name="Layer 1"><path class="cls-2" d="M1419.63,681.6c1.52-22.73,3.21-44.38,5-61.77l-18.5,5.2-22.48,7.82c-.06,1.26-.14,2.58-.23,3.95l.36.21-.51,1.83c-.29,3.59-.67,7.35-1.14,10.82-.59,4.38-4.58,7.5-9.45,7.37l-6.75-.19c-6.3-.17-11-5.69-9.75-11.24l1.13-5.08,1-4.42h0l2.15-9.73a7.36,7.36,0,0,1,.94-2.26l-.16-.8,43.87-35.69,45.08-36.29c11-12.07,25-20.82,41-21.59,28.32-1.35,61.18,44.36,65,57.86,1.34,4.77,3.35,36.79,5.39,76.2A194.56,194.56,0,0,0,1663.2,492.58c0-107.91-87.48-195.4-195.39-195.4A194.84,194.84,0,0,0,1272.6,492.24C1272.6,583.46,1335.11,660.08,1419.63,681.6ZM1349.74,381h.08a67.32,67.32,0,0,1,18.92-46.53.75.75,0,0,1,0-1h0a.75.75,0,0,1,1,0,67.35,67.35,0,0,1,46.15-19.59.58.58,0,0,1,.19,0h0a.7.7,0,0,1,.14,0c.38,0,.75,0,1.12,0a67.62,67.62,0,0,1,65.23,49.85c22.52,1.58,44.85,10.6,54.72,25,11.77,17.18,6.77,29.9-7.18,27.66l3.26,40.13c.16,2-.92,3.39-2,2.66a.78.78,0,0,0-.15-.1c2.36,3,2.88,7.86,1,12.58a28.9,28.9,0,0,1-12.09,14.25,43,43,0,0,1-7.35,19.93c-16.45,24.35-50.71,18.85-61.34-6.14-.47-1.11-.92-2.27-1.36-3.45a3.17,3.17,0,0,1-2-.92,5,5,0,0,1-1.35-2.34,3.17,3.17,0,0,1,0-1.44,1.6,1.6,0,0,1,1.1-1.17l.23.8c-.5.17-.61.86-.39,1.57a3.89,3.89,0,0,0,1.15,1.81,2.32,2.32,0,0,0,.82.48,96.05,96.05,0,0,1-5.22-34.23,1.28,1.28,0,0,1-.89.41,1.2,1.2,0,0,1-.72-.2,1.26,1.26,0,0,1-.4-1.75,14.58,14.58,0,0,1,2.3-2.83c.2-2.14.48-4.27.88-6.36a1.78,1.78,0,0,1-2-2.05c.23-1.61.48-3.14.74-4.61A67.43,67.43,0,0,1,1417.4,449c-.37,0-.74,0-1.12,0a.7.7,0,0,1-.14,0h0a1.06,1.06,0,0,1-.19,0,67.34,67.34,0,0,1-45.71-19.17.76.76,0,0,1-.94-.08h0a.76.76,0,0,1-.1-1,67.31,67.31,0,0,1-19.34-46.17h-.09a.77.77,0,0,1-.77-.76v0A.76.76,0,0,1,1349.74,381Z" transform="translate(-1272.41 -297.18)"/><path class="cls-3" d="M1272.6,492.24a194.58,194.58,0,0,1,23.54-93.06,194.52,194.52,0,0,0-23.73,93.4c0,91.28,62.59,167.93,147.2,189.4,0-.13,0-.25,0-.38C1335.11,660.08,1272.6,583.46,1272.6,492.24Z" transform="translate(-1272.41 -297.18)"/><path class="cls-3" d="M1561.58,663.8a1.85,1.85,0,0,1,0,.23,196.25,196.25,0,0,0,78.07-78.39A196.21,196.21,0,0,1,1561.58,663.8Z" transform="translate(-1272.41 -297.18)"/><path class="cls-4" d="M1354.33,381.75v0a.76.76,0,0,1-.76.76h-3.73a67.31,67.31,0,0,0,19.34,46.17,1,1,0,0,1,.09-.13l2.67-2.73a.75.75,0,0,1,1.07,0h0a.76.76,0,0,1,0,1.07l-2.67,2.74a.67.67,0,0,1-.14.09,67.34,67.34,0,0,0,45.71,19.17.75.75,0,0,1-.58-.72v-3.82a.78.78,0,0,1,.77-.77h0a.77.77,0,0,1,.76.77v3.82a.75.75,0,0,1-.62.73c.38,0,.75,0,1.12,0a67.43,67.43,0,0,0,27.06-5.65c.12-.71.25-1.41.38-2.09a3.67,3.67,0,0,1-.81-3.2l2.81-15.83h0l.1-.54,1-5.92c-8.68-.64-15.47-2.84-18.16-7.55-3.46-6.07-4.51-11.85-3.73-17.11l-8.34-6.92a2.89,2.89,0,0,1-.38-.41,2.1,2.1,0,0,1-.43.05,2.07,2.07,0,0,1-1.11-3.81V358.36a1,1,0,0,1,1.1-1h0a1,1,0,0,1,1.1,1V380a2.07,2.07,0,0,1,1,1.74,1.55,1.55,0,0,1,0,.31,2.54,2.54,0,0,1,.34.23l7.34,6.1c2.68-9.71,11.71-17.34,23.23-21.16,9.9-3.29,21.35-4.39,32.75-3.59a67.62,67.62,0,0,0-65.23-49.85c-.37,0-.74,0-1.12,0a.75.75,0,0,1,.62.73v3.82a.77.77,0,0,1-.76.77h0a.78.78,0,0,1-.77-.77v-3.82a.75.75,0,0,1,.58-.72,67.35,67.35,0,0,0-46.15,19.59l.06,0,2.69,2.71a.76.76,0,0,1,0,1.08h0a.77.77,0,0,1-1.08,0l-2.69-2.7,0,0A67.32,67.32,0,0,0,1349.82,381h3.74A.77.77,0,0,1,1354.33,381.75Zm105.7-46,2.67-2.73a.77.77,0,0,1,1.08,0h0a.77.77,0,0,1,0,1.08l-2.67,2.73a.76.76,0,0,1-1.08,0h0A.76.76,0,0,1,1460,335.72Z" transform="translate(-1272.41 -297.18)"/><path class="cls-2" d="M1417.15,382.07l0,0a1.41,1.41,0,0,1,1.8,0,1.55,1.55,0,0,0,0-.31,2.07,2.07,0,0,0-1-1.74v.42a1,1,0,0,1-1.1,1h0a1,1,0,0,1-1.1-1V380a2.07,2.07,0,0,0,1.11,3.81,2.1,2.1,0,0,0,.43-.05A1.37,1.37,0,0,1,1417.15,382.07Z" transform="translate(-1272.41 -297.18)"/><path class="cls-2" d="M1416.93,381.36h0a1,1,0,0,0,1.1-1v-22a1,1,0,0,0-1.1-1h0a1,1,0,0,0-1.1,1v22A1,1,0,0,0,1416.93,381.36Z" transform="translate(-1272.41 -297.18)"/><path class="cls-2" d="M1419.31,382.26a2.54,2.54,0,0,0-.34-.23,1.41,1.41,0,0,0-1.8,0l0,0a1.37,1.37,0,0,0,.22,1.67,2.89,2.89,0,0,0,.38.41l8.34,6.92a22.06,22.06,0,0,1,.56-2.71Z" transform="translate(-1272.41 -297.18)"/><path class="cls-2" d="M1416.9,448.2v-3.82a.77.77,0,0,0-.76-.77h0a.78.78,0,0,0-.77.77v3.82a.75.75,0,0,0,.58.72,1.06,1.06,0,0,0,.19,0h0a.7.7,0,0,0,.14,0A.75.75,0,0,0,1416.9,448.2Z" transform="translate(-1272.41 -297.18)"/><path class="cls-2" d="M1415.36,314.52v3.82a.78.78,0,0,0,.77.77h0a.77.77,0,0,0,.76-.77v-3.82a.75.75,0,0,0-.62-.73.7.7,0,0,0-.14,0h0a.58.58,0,0,0-.19,0A.75.75,0,0,0,1415.36,314.52Z" transform="translate(-1272.41 -297.18)"/><path class="cls-2" d="M1349.75,382.54h3.82a.76.76,0,0,0,.76-.76v0a.77.77,0,0,0-.77-.76h-3.82a.76.76,0,0,0-.76.76v0A.77.77,0,0,0,1349.75,382.54Z" transform="translate(-1272.41 -297.18)"/><path class="cls-2" d="M1371.45,337.21a.77.77,0,0,0,1.08,0h0a.76.76,0,0,0,0-1.08l-2.69-2.71-.06,0a.75.75,0,0,0-1,0h0a.75.75,0,0,0,0,1l0,0Z" transform="translate(-1272.41 -297.18)"/><rect class="cls-2" x="1459.24" y="334.12" width="5.34" height="1.54" rx="0.76" transform="translate(-1071.81 849.15) rotate(-45.66)"/><path class="cls-2" d="M1373,426.92a.76.76,0,0,0,0-1.07h0a.75.75,0,0,0-1.07,0l-2.67,2.73a1,1,0,0,0-.09.13.76.76,0,0,0,.1,1h0a.76.76,0,0,0,.94.08.67.67,0,0,0,.14-.09Z" transform="translate(-1272.41 -297.18)"/><path class="cls-5" d="M1361.25,623.31l.16.8a8.84,8.84,0,0,1,5.8-3.9c6.78-1.42,15.49,1.48,16.27,2.32.43.47.48,4.73.2,10.32l22.48-7.82,18.5-5.2c1.89-18.15,3.91-31.66,6-36.9a106.2,106.2,0,0,1,19.54-31.6l-45.08,36.29Z" transform="translate(-1272.41 -297.18)"/><path class="cls-6" d="M1556.19,587.6c-3.8-13.5-36.66-59.21-65-57.86-16,.77-30,9.52-41,21.59a106.2,106.2,0,0,0-19.54,31.6c-2.09,5.24-4.11,18.75-6,36.9-1.82,17.39-3.51,39-5,61.77,0,.13,0,.25,0,.38a195.83,195.83,0,0,0,48.2,6c1.13,0,2.25,0,3.37-.05-.71-31.56-1.39-62.74-1.69-78.59-.13-6.74,3.54-15.73,3.58-15.78,9.25-12.2,25.28-12,36.1-5.45A25.61,25.61,0,0,1,1521.3,608l0-.1,3.25,9.53a32.88,32.88,0,0,1,.85,18.28l-11.27,46.74a194.1,194.1,0,0,0,47.44-18.4,1.85,1.85,0,0,0,0-.23C1559.54,624.39,1557.53,592.37,1556.19,587.6Z" transform="translate(-1272.41 -297.18)"/><path class="cls-6" d="M1525.42,635.69a32.88,32.88,0,0,0-.85-18.28l-3.25-9.53,0,.1a25.82,25.82,0,0,1-.33,6.78l-12.67,69c2-.41,3.91-.86,5.85-1.33Z" transform="translate(-1272.41 -297.18)"/><path class="cls-7" d="M1525.42,635.69a32.88,32.88,0,0,0-.85-18.28l-3.25-9.53,0,.1a25.82,25.82,0,0,1-.33,6.78l-12.67,69c2-.41,3.91-.86,5.85-1.33Z" transform="translate(-1272.41 -297.18)"/><path class="cls-5" d="M1521,614.76a25.93,25.93,0,0,0-11.8-26.65c-10.82-6.6-26.85-6.75-36.1,5.45,0,.05-3.71,9-3.58,15.78.3,15.85,1,47,1.69,78.59a195.46,195.46,0,0,0,37.12-4.17Z" transform="translate(-1272.41 -297.18)"/><path class="cls-8" d="M1375.56,637.3a5.55,5.55,0,0,1-3.92,1.25,6.09,6.09,0,0,1-3.84-1.45c-6.52.89-10.62,4.15-10.67,4.37l.21-1-1.13,5.08c-1.23,5.55,3.45,11.07,9.75,11.24l6.75.19c4.87.13,8.86-3,9.45-7.37.47-3.47.85-7.23,1.14-10.82l-.28,1A28.39,28.39,0,0,0,1375.56,637.3Zm.7,15.55c-2.25,1.93-2,1.81-5.06,1.76s-8.49.75-10.42-1-1.35-7.53-1.49-8.3,1.78-2.81,1.78-2.81c.26-1.82,15.87-2.87,16.93,0S1378.5,650.93,1376.26,652.85Z" transform="translate(-1272.41 -297.18)"/><path class="cls-8" d="M1383.48,622.53c-.78-.84-9.49-3.74-16.27-2.32a8.84,8.84,0,0,0-5.8,3.9,7.36,7.36,0,0,0-.94,2.26l-2.15,9.73a27.05,27.05,0,0,1,8.24-2.44c.45-1.86,2.57-3.13,5-3.07s4.83,1.61,5.19,3.65a27.48,27.48,0,0,1,6.73,2.56c.09-1.37.17-2.69.23-3.95C1384,627.26,1383.91,623,1383.48,622.53Z" transform="translate(-1272.41 -297.18)"/><path class="cls-9" d="M1361.07,642.47s-1.92,2-1.78,2.81-.41,6.55,1.49,8.3,7.39,1,10.42,1,2.81.17,5.06-1.76,2.82-7.55,1.74-10.42S1361.33,640.65,1361.07,642.47Z" transform="translate(-1272.41 -297.18)"/><path class="cls-4" d="M1367.8,637.1a3.58,3.58,0,0,1-1.31-3.17,2.13,2.13,0,0,1,.07-.27,27.05,27.05,0,0,0-8.24,2.44h0l-1,4.42-.21,1C1357.18,641.25,1361.28,638,1367.8,637.1Z" transform="translate(-1272.41 -297.18)"/><path class="cls-4" d="M1376.72,634.24h0a3.28,3.28,0,0,1-1.16,3,28.39,28.39,0,0,1,7.46,2.51l.28-1,.51-1.83-.36-.21A27.48,27.48,0,0,0,1376.72,634.24Z" transform="translate(-1272.41 -297.18)"/><path class="cls-4" d="M1367.8,637.1a6.09,6.09,0,0,0,3.84,1.45,5.55,5.55,0,0,0,3.92-1.25,3.28,3.28,0,0,0,1.16-3h0c-.36-2-2.67-3.58-5.19-3.65s-4.52,1.21-5,3.07a2.13,2.13,0,0,0-.07.27A3.58,3.58,0,0,0,1367.8,637.1Z" transform="translate(-1272.41 -297.18)"/><path class="cls-10" d="M1509.76,475.05a34.11,34.11,0,0,1,2-6.36,4.05,4.05,0,0,1-4.15-4.78c.86-4.68,1.69-10.84,1.3-15.65a157,157,0,0,0-35.64-7.38c-10.6,3.61-21.56,6.4-27,8.94a1.73,1.73,0,0,1-.56.15c-.4,2.09-.68,4.22-.88,6.36a12.75,12.75,0,0,1,7.62-3.53h0a1.27,1.27,0,0,1,.11,2.54,10.72,10.72,0,0,0-7.87,5.17l-.15.19a96.05,96.05,0,0,0,5.22,34.23,1.41,1.41,0,0,0,.93,0,3.46,3.46,0,0,0,1.49-1.35,7,7,0,0,1,4.16-3.33,6.65,6.65,0,0,1,5.16,1.61l-1,1.33a5.1,5.1,0,0,0-3.87-1.49,5.67,5.67,0,0,0-3.38,2.59,4.59,4.59,0,0,1-2.21,1.75,2.49,2.49,0,0,1-.81.09c.44,1.18.89,2.34,1.36,3.45,10.63,25,44.89,30.49,61.34,6.14a43,43,0,0,0,7.35-19.93c-.19.12-.39.23-.58.33C1512.25,490.06,1508.09,483.38,1509.76,475.05Zm-55.68-.5c-1.39.28-2.81-1.23-3.17-3.37s.48-4.11,1.87-4.39,2.81,1.22,3.17,3.37S1455.47,474.26,1454.08,474.55Zm21.18-25.61a12.21,12.21,0,0,1,10.59,4.52,1.27,1.27,0,0,1-.16,1.79,1.22,1.22,0,0,1-.57.28,1.28,1.28,0,0,1-1.22-.43,9.7,9.7,0,0,0-8.28-3.64,1.27,1.27,0,0,1-1.44-1.08A1.25,1.25,0,0,1,1475.26,448.94Zm4,20.34c-1.39.28-2.8-1.23-3.16-3.37s.48-4.11,1.87-4.39,2.8,1.23,3.16,3.37S1480.66,469,1479.27,469.28Zm-19.47,16.77,2.15-19.32V485S1464.16,488.82,1459.8,486.05Zm11.48,1.5a8.16,8.16,0,0,0-4.46,4.07l-1.45-.76a9.64,9.64,0,0,1,5.41-4.67,15.43,15.43,0,0,1,7-.52c2.29.29,4.5,1.1,6.33.28,1.94-.66,1.26-3.9-.66-4.19l.13-.86a3.37,3.37,0,0,1,2.42,4.59,3.11,3.11,0,0,1-1.41,1.41c-2.43,1.12-4.86.17-6.95,0A14.09,14.09,0,0,0,1471.28,487.55Zm20.37,0a18.72,18.72,0,0,1-11.12,9.55,20.65,20.65,0,0,1-2.44.64.63.63,0,0,1-.75-.49.62.62,0,0,1,.49-.75,17.9,17.9,0,0,0,12.65-9.45.63.63,0,0,1,.83-.33A.62.62,0,0,1,1491.65,487.55Z" transform="translate(-1272.41 -297.18)"/><path class="cls-11" d="M1484.58,486.9a3.11,3.11,0,0,0,1.41-1.41,3.37,3.37,0,0,0-2.42-4.59l-.13.86c1.92.29,2.6,3.53.66,4.19-1.83.82-4,0-6.33-.28a15.43,15.43,0,0,0-7,.52,9.64,9.64,0,0,0-5.41,4.67l1.45.76a8.16,8.16,0,0,1,4.46-4.07,14.09,14.09,0,0,1,6.35-.63C1479.72,487.07,1482.15,488,1484.58,486.9Z" transform="translate(-1272.41 -297.18)"/><path class="cls-11" d="M1451,496.05a4.59,4.59,0,0,0,2.21-1.75,5.67,5.67,0,0,1,3.38-2.59,5.1,5.1,0,0,1,3.87,1.49l1-1.33a6.65,6.65,0,0,0-5.16-1.61,7,7,0,0,0-4.16,3.33,3.46,3.46,0,0,1-1.49,1.35,1.41,1.41,0,0,1-.93,0,2.32,2.32,0,0,1-.82-.48,3.89,3.89,0,0,1-1.15-1.81c-.22-.71-.11-1.4.39-1.57l-.23-.8a1.6,1.6,0,0,0-1.1,1.17,3.17,3.17,0,0,0,0,1.44,5,5,0,0,0,1.35,2.34,3.17,3.17,0,0,0,2,.92A2.49,2.49,0,0,0,1451,496.05Z" transform="translate(-1272.41 -297.18)"/><path class="cls-5" d="M1507.6,463.91a4.05,4.05,0,0,0,4.15,4.78c2.6-6.2,7.15-12.33,12.77-12.67a9.29,9.29,0,0,1,2.39.18,101.27,101.27,0,0,0-18-7.94C1509.29,453.07,1508.46,459.23,1507.6,463.91Z" transform="translate(-1272.41 -297.18)"/><path class="cls-5" d="M1473.26,440.88a110.66,110.66,0,0,0-27.61.61,1,1,0,0,1-.81-.27c-.13.68-.26,1.38-.38,2.09-.26,1.47-.51,3-.74,4.61a1.78,1.78,0,0,0,2,2.05,1.73,1.73,0,0,0,.56-.15C1451.7,447.28,1462.66,444.49,1473.26,440.88Z" transform="translate(-1272.41 -297.18)"/><path class="cls-6" d="M1530.28,417.65c-4.53.74-11.42-1.5-20.21-7.85-12.57,4.08-44.82,14.3-63.23,12.39L1444,438a3.67,3.67,0,0,0,.81,3.2,1,1,0,0,0,.81.27,110.66,110.66,0,0,1,27.61-.61,157,157,0,0,1,35.64,7.38,101.27,101.27,0,0,1,18,7.94,7.44,7.44,0,0,1,4.39,2.77.78.78,0,0,1,.15.1c1.06.73,2.14-.69,2-2.66l-3.26-40.13h0Z" transform="translate(-1272.41 -297.18)"/><path class="cls-12" d="M1530.28,417.65c-4.53.74-11.42-1.5-20.21-7.85-12.57,4.08-44.82,14.3-63.23,12.39L1444,438a3.67,3.67,0,0,0,.81,3.2,1,1,0,0,0,.81.27,110.66,110.66,0,0,1,27.61-.61,157,157,0,0,1,35.64,7.38,101.27,101.27,0,0,1,18,7.94,7.44,7.44,0,0,1,4.39,2.77.78.78,0,0,1,.15.1c1.06.73,2.14-.69,2-2.66l-3.26-40.13h0Z" transform="translate(-1272.41 -297.18)"/><polygon class="cls-6" points="175.57 118.55 174.53 124.46 175.58 118.55 175.57 118.55"/><polygon class="cls-12" points="175.57 118.55 174.53 124.46 175.58 118.55 175.57 118.55"/><polygon class="cls-4" points="174.43 125.01 174.43 125.01 174.53 124.46 174.43 125.01"/><polygon class="cls-13" points="174.43 125.01 174.43 125.01 174.53 124.46 174.43 125.01"/><path class="cls-6" d="M1510.07,409.8c8.79,6.35,15.68,8.59,20.21,7.85l-.11-1.37c-5.11-.82-11.41-3.63-18.54-9-12.59,2.95-43.3,9.95-63.64,8.44l-1,5.92-.1.54C1465.25,424.1,1497.5,413.88,1510.07,409.8Z" transform="translate(-1272.41 -297.18)"/><path class="cls-12" d="M1510.07,409.8c8.79,6.35,15.68,8.59,20.21,7.85l-.11-1.37c-5.11-.82-11.41-3.63-18.54-9-12.59,2.95-43.3,9.95-63.64,8.44l-1,5.92-.1.54C1465.25,424.1,1497.5,413.88,1510.07,409.8Z" transform="translate(-1272.41 -297.18)"/><path class="cls-13" d="M1510.07,409.8c8.79,6.35,15.68,8.59,20.21,7.85l-.11-1.37c-5.11-.82-11.41-3.63-18.54-9-12.59,2.95-43.3,9.95-63.64,8.44l-1,5.92-.1.54C1465.25,424.1,1497.5,413.88,1510.07,409.8Z" transform="translate(-1272.41 -297.18)"/><path class="cls-6" d="M1449.88,367.2c-11.52,3.82-20.55,11.45-23.23,21.16a22.06,22.06,0,0,0-.56,2.71c-.78,5.26.27,11,3.73,17.11,2.69,4.71,9.48,6.91,18.16,7.55h0c20.34,1.51,51-5.49,63.64-8.44,7.13,5.36,13.43,8.17,18.54,9h0c13.95,2.24,18.95-10.48,7.18-27.66-9.87-14.41-32.2-23.43-54.72-25C1471.23,362.81,1459.78,363.91,1449.88,367.2Z" transform="translate(-1272.41 -297.18)"/><path class="cls-12" d="M1449.88,367.2c-11.52,3.82-20.55,11.45-23.23,21.16a22.06,22.06,0,0,0-.56,2.71c-.78,5.26.27,11,3.73,17.11,2.69,4.71,9.48,6.91,18.16,7.55h0c20.34,1.51,51-5.49,63.64-8.44,7.13,5.36,13.43,8.17,18.54,9h0c13.95,2.24,18.95-10.48,7.18-27.66-9.87-14.41-32.2-23.43-54.72-25C1471.23,362.81,1459.78,363.91,1449.88,367.2Z" transform="translate(-1272.41 -297.18)"/><path class="cls-5" d="M1526.91,456.2a9.29,9.29,0,0,0-2.39-.18c-5.62.34-10.17,6.47-12.77,12.67a34.11,34.11,0,0,0-2,6.36c-1.67,8.33,2.49,15,9.89,11.08.19-.1.39-.21.58-.33a28.9,28.9,0,0,0,12.09-14.25c1.86-4.72,1.34-9.58-1-12.58A7.44,7.44,0,0,0,1526.91,456.2Zm-8.1,13.29a72.66,72.66,0,0,1-7,5.12A142.09,142.09,0,0,1,1525.48,464,73.81,73.81,0,0,1,1518.81,469.49Z" transform="translate(-1272.41 -297.18)"/><path class="cls-11" d="M1478,461.52c-1.39.28-2.23,2.25-1.87,4.39s1.77,3.65,3.16,3.37,2.23-2.25,1.87-4.39S1479.37,461.24,1478,461.52Z" transform="translate(-1272.41 -297.18)"/><path class="cls-11" d="M1452.78,466.79c-1.39.28-2.22,2.25-1.87,4.39s1.78,3.65,3.17,3.37,2.23-2.25,1.87-4.39S1454.17,466.51,1452.78,466.79Z" transform="translate(-1272.41 -297.18)"/><path class="cls-14" d="M1462,466.73l-2.15,19.32c4.36,2.77,2.16-1.08,2.16-1.08Z" transform="translate(-1272.41 -297.18)"/><path class="cls-11" d="M1491.31,486.72a.63.63,0,0,0-.83.33,17.9,17.9,0,0,1-12.65,9.45.62.62,0,0,0-.49.75.63.63,0,0,0,.75.49,20.65,20.65,0,0,0,2.44-.64,18.72,18.72,0,0,0,11.12-9.55A.62.62,0,0,0,1491.31,486.72Z" transform="translate(-1272.41 -297.18)"/><path class="cls-11" d="M1475.62,451.46a9.7,9.7,0,0,1,8.28,3.64,1.28,1.28,0,0,0,1.22.43,1.22,1.22,0,0,0,.57-.28,1.27,1.27,0,0,0,.16-1.79,12.21,12.21,0,0,0-10.59-4.52,1.25,1.25,0,0,0-1.08,1.44A1.27,1.27,0,0,0,1475.62,451.46Z" transform="translate(-1272.41 -297.18)"/><path class="cls-11" d="M1452.54,455.34a1.27,1.27,0,0,0-.11-2.54h0a12.75,12.75,0,0,0-7.62,3.53,14.58,14.58,0,0,0-2.3,2.83,1.26,1.26,0,0,0,.4,1.75,1.2,1.2,0,0,0,.72.2,1.28,1.28,0,0,0,.89-.41l.15-.19A10.72,10.72,0,0,1,1452.54,455.34Z" transform="translate(-1272.41 -297.18)"/><path class="cls-5" d="M1525.48,464a142.09,142.09,0,0,0-13.66,10.64,72.66,72.66,0,0,0,7-5.12A73.81,73.81,0,0,0,1525.48,464Z" transform="translate(-1272.41 -297.18)"/></g></g></svg>