<svg id="Layer_1" data-name="Layer 1" xmlns="http://www.w3.org/2000/svg" viewBox="0 0 143.83 238.72"><defs><style>.cls-1{fill:#fdc63a;}.cls-2{fill:#fda014;}.cls-3{fill:#7b8296;}.cls-4{fill:none;}.cls-5{fill:#fff;}.cls-10,.cls-11,.cls-12,.cls-13,.cls-5,.cls-6,.cls-7,.cls-8,.cls-9{fill-rule:evenodd;}.cls-6{fill:#e1e7fa;}.cls-7{fill:#e1e6f7;}.cls-8{fill:#d0d8f2;}.cls-9{fill:#ffddb8;}.cls-10{fill:#e8c5a0;}.cls-11{fill:#f7d6b2;}.cls-12{fill:#f0f0f0;}.cls-13{fill:#7d5f54;}</style></defs><title>pin1</title><path class="cls-1" d="M888.17,492.79c0,39.69,71.81,166.63,71.91,166.82V420.9A71.91,71.91,0,0,0,888.17,492.79Z" transform="translate(-888.17 -420.9)"/><path class="cls-2" d="M1032,492.79a71.9,71.9,0,0,0-71.91-71.89h0V659.61h0S1032,532.5,1032,492.79Z" transform="translate(-888.17 -420.9)"/><circle class="cls-3" cx="71.92" cy="69.14" r="57.92"/><circle class="cls-4" cx="959.79" cy="490.23" r="57.77" transform="translate(-912.94 -369.02) rotate(-3.06)"/><path class="cls-5" d="M938,516.6c-5.67,3.68-8,11.58-11.35,20.95a57.78,57.78,0,0,0,66,.22c-3.35-9.49-5.66-17.55-11.44-21.17-9.86-6.17-15.79-7.65-21.61-7.73S947.79,510.24,938,516.6Z" transform="translate(-888.17 -420.9)"/><path class="cls-6" d="M938,516.6c-5.67,3.68-8,11.58-11.35,20.95a57.5,57.5,0,0,0,19.75,8.89c0-6.48.42-13,1-19.42a43.1,43.1,0,0,1,12-.42l-8.52-16.5A52.76,52.76,0,0,0,938,516.6Z" transform="translate(-888.17 -420.9)"/><path class="cls-7" d="M949.85,510.45c2.11,12,5.19,14.37,8.69,16.19h2.1c4.1-3,8-7.78,8.82-16C971.07,493.72,947.08,494.77,949.85,510.45Z" transform="translate(-888.17 -420.9)"/><path class="cls-8" d="M949.85,510.45c2.06,11.68,5,14.23,8.41,16l1.16.11-8.52-16.5Z" transform="translate(-888.17 -420.9)"/><path class="cls-9" d="M951.43,487.17h16.33v23.62c0,8-16.33,8.89-16.33,0Z" transform="translate(-888.17 -420.9)"/><polygon class="cls-10" points="79.59 81.11 79.59 78.09 63.26 78.09 63.26 89.2 79.59 81.11"/><path class="cls-5" d="M957.72,434.21c7.62,0,14,4.44,16.08,10.52,9.77.27,17.59,7.27,17.59,15.85,0,8.76-8.14,15.86-18.19,15.86-7.84,0-14.53-4.33-17.08-10.4a17.34,17.34,0,0,1-14.36,7.1c-9.24,0-16.73-6.54-16.73-14.6s7.49-14.6,16.73-14.6h.18C944.23,438.27,950.43,434.21,957.72,434.21Z" transform="translate(-888.17 -420.9)"/><path class="cls-11" d="M959.59,457.14c34.58,0,20.56,45.68,0,45.68S925,457.14,959.59,457.14Z" transform="translate(-888.17 -420.9)"/><path class="cls-9" d="M959.59,457.14c34.58,0,20.56,45.68,0,45.68Z" transform="translate(-888.17 -420.9)"/><path class="cls-9" d="M951.43,509.94c0,8.43,7.11,5.25,7.11,16.7h2.1c0-11.45,7.12-8.27,7.12-16.7Z" transform="translate(-888.17 -420.9)"/><path class="cls-5" d="M960.64,526.64c2.07-1.79,8.59-12.93,8.87-17.34a11.29,11.29,0,0,0-1.75-7.08C968.09,509.77,961,513.74,960.64,526.64Z" transform="translate(-888.17 -420.9)"/><path class="cls-12" d="M958.54,526.64c-2.07-1.79-8.59-12.93-8.87-17.34a11.26,11.26,0,0,1,1.76-7.08C951.09,509.77,958.15,513.74,958.54,526.64Z" transform="translate(-888.17 -420.9)"/><path class="cls-8" d="M946,546.34a171,171,0,0,1,1-19.7,41.42,41.42,0,0,1,13.72,0c-3.14,0-5.62-.07-8,.09a33.53,33.53,0,0,0-4.83.67c-.52,6.51-.83,12.83-1,19.15C946.6,546.49,946.31,546.41,946,546.34Z" transform="translate(-888.17 -420.9)"/><path class="cls-8" d="M950.07,530.23a1,1,0,1,1-1,1A1,1,0,0,1,950.07,530.23Z" transform="translate(-888.17 -420.9)"/><path class="cls-8" d="M969.43,530.23a1,1,0,1,1-1,1A1,1,0,0,1,969.43,530.23Z" transform="translate(-888.17 -420.9)"/><path class="cls-8" d="M950.07,539.89a1,1,0,1,1-1,1A1,1,0,0,1,950.07,539.89Z" transform="translate(-888.17 -420.9)"/><path class="cls-8" d="M969.43,539.89a1,1,0,1,1-1,1A1,1,0,0,1,969.43,539.89Z" transform="translate(-888.17 -420.9)"/><path class="cls-13" d="M970.93,464.66c-3.11,1.36-13.94,8.26-18.41,8.4s.82-.82,2-2.17S946,474,943.73,474.14s0-.27,1.08-1.76-3.92.81-3.11,4.87-3.35,2.54-3.62-1.25.1-4.43,1.59-7.95,21.11-8.39,27.33-8.39,11.37,6.22,12.86,8.93a10.92,10.92,0,0,1,1.15,8.07c-.68,2.44-2.77,3.57-2.77.45S973.23,470.35,970.93,464.66Z" transform="translate(-888.17 -420.9)"/><path class="cls-9" d="M982,472.86c1.26.28,1.76,2.87,1.11,5.78s-2.2,5.05-3.46,4.77-1.75-2.87-1.1-5.78S980.74,472.58,982,472.86Z" transform="translate(-888.17 -420.9)"/><path class="cls-11" d="M937.58,472.86c-1.26.28-1.75,2.87-1.1,5.78s2.19,5.05,3.45,4.77,1.75-2.87,1.1-5.78S938.84,472.58,937.58,472.86Z" transform="translate(-888.17 -420.9)"/><path class="cls-8" d="M938.92,468.72c11.63-3.88,25.5-3.7,41.34,0l-4-16.27c-11-4.11-22.11-5-33.17,0Z" transform="translate(-888.17 -420.9)"/><path class="cls-8" d="M936.43,448.29c5.6-2.84,12.1-1.29,14.51,3.47s-.16,10.91-5.76,13.75-12.09,1.3-14.51-3.46S930.84,451.13,936.43,448.29Z" transform="translate(-888.17 -420.9)"/><path class="cls-5" d="M937.29,446c6.4-3.25,13.65-1.83,16.2,3.18s-.59,11.71-7,15S932.84,466,930.3,461,930.88,449.29,937.29,446Z" transform="translate(-888.17 -420.9)"/><path class="cls-7" d="M959.59,465.9a101.7,101.7,0,0,1,20.67,2.82l-4-16.27A50.59,50.59,0,0,0,959.59,449Z" transform="translate(-888.17 -420.9)"/></svg>