<svg id="Layer_1" data-name="Layer 1" xmlns="http://www.w3.org/2000/svg" xmlns:xlink="http://www.w3.org/1999/xlink" viewBox="0 0 143.83 238.72"><defs><style>.cls-1{fill:none;}.cls-2{fill:#f06d6d;}.cls-3{fill:#e8505b;}.cls-4{fill:#dff3ff;}.cls-5{clip-path:url(#clip-path);}.cls-6{fill:#fab19d;}.cls-7{fill:#ed9884;}.cls-8{fill:#fdbba4;}.cls-9{fill:#f7afa0;}.cls-10{fill:#13c0b4;}.cls-11{fill:#0eb09f;}.cls-12{fill:#381c10;}.cls-13{fill:#d9806e;}</style><clipPath id="clip-path" transform="translate(-888.63 -420.9)"><circle class="cls-1" cx="960.55" cy="489.65" r="58.35"/></clipPath></defs><title>pin2</title><path class="cls-2" d="M888.63,492.79c0,39.69,71.81,166.63,71.91,166.82V420.9A71.91,71.91,0,0,0,888.63,492.79Z" transform="translate(-888.63 -420.9)"/><path class="cls-3" d="M1032.46,492.79a71.9,71.9,0,0,0-71.91-71.89h0V659.61h0S1032.46,532.5,1032.46,492.79Z" transform="translate(-888.63 -420.9)"/><circle class="cls-4" cx="71.92" cy="69.14" r="57.92"/><g class="cls-5"><path class="cls-6" d="M996.35,548c-.36-8.65-1.16-19.75-2.9-23-3-5.64-20.11-6.18-22.85-10.74s-2.28-12.89-2.28-12.89l-7.77.27-7.77-.27s.45,8.33-2.29,12.89-19.88,5.1-22.85,10.74c-1.74,3.29-2.53,14.39-2.9,23Z" transform="translate(-888.63 -420.9)"/><path class="cls-7" d="M971.88,515.51a4.47,4.47,0,0,1-1.28-1.29c-2.74-4.56-2.28-12.89-2.28-12.89l-7.77.27-7.77-.27a33.55,33.55,0,0,1-1.16,10.3C955.5,514,963.64,518,971.88,515.51Z" transform="translate(-888.63 -420.9)"/><path class="cls-6" d="M940.74,481.2s-3.45-2.91-6.18.4c-2.28,2.76.81,8.37,3.9,10.16s4.23-.17,4.23-.17Z" transform="translate(-888.63 -420.9)"/><path class="cls-7" d="M940.9,486.18s-2-3.83-4.54-3.93,2.12.8,1.91,2.52-2.22,3.23-1.11,3.13,2.12-2.22,2.63-1.11S941,488.7,941,488.1,940.9,486.18,940.9,486.18Z" transform="translate(-888.63 -420.9)"/><path class="cls-6" d="M980.36,481.2s3.45-2.91,6.17.4c2.28,2.76-.81,8.37-3.9,10.16s-4.22-.17-4.22-.17Z" transform="translate(-888.63 -420.9)"/><path class="cls-7" d="M980.2,486.18s2-3.83,4.54-3.93-2.12.8-1.92,2.52,2.22,3.23,1.11,3.13-2.12-2.22-2.62-1.11-1.22,1.91-1.22,1.31S980.2,486.18,980.2,486.18Z" transform="translate(-888.63 -420.9)"/><path class="cls-8" d="M960.55,455.41c-13.14.48-21.57,8.92-21.41,15.57.17,7,1,26.27,7.46,33.25a28.5,28.5,0,0,0,5.47,4.57,15.72,15.72,0,0,0,17,0,28.46,28.46,0,0,0,5.46-4.57c6.49-7,7.3-26.28,7.47-33.25C982.12,464.33,973.68,455.89,960.55,455.41Z" transform="translate(-888.63 -420.9)"/><path class="cls-9" d="M960.55,455.41A26.94,26.94,0,0,0,946,460.06c-.24,2-.38,3.21-.38,3.21s6.1,12.55,16.14,12.19,13.63,4.66,11.83,17.22c-1.52,10.68-8.52,17.44-19.85,17A15.69,15.69,0,0,0,969,508.8a28.46,28.46,0,0,0,5.46-4.57c6.49-7,7.3-26.28,7.47-33.25C982.12,464.33,973.68,455.89,960.55,455.41Z" transform="translate(-888.63 -420.9)"/><path class="cls-10" d="M1006.33,548c-1-8.61-3.35-19.65-8.57-23.88-7.15-5.79-19.94-8.84-25-9.87-.77,5.79-8.58,13-12.17,13s-11.41-7.22-12.18-13c-5.1,1-17.89,4.08-25,9.87-5.22,4.23-7.53,15.27-8.56,23.88Z" transform="translate(-888.63 -420.9)"/><path class="cls-11" d="M935.06,548c-1-6.63-2.86-15.27-4.33-10.62-.91,2.9-3.51,6.87-4.89,10.62Z" transform="translate(-888.63 -420.9)"/><path class="cls-11" d="M997.76,524.12c-7.15-5.79-19.94-8.84-25-9.87a10.93,10.93,0,0,1-1.12,3.4c4.57,1.28,12.16,4.39,13.64,11.15,2,9-6.78,11.78-7.39,19.2h28.48C1005.3,539.39,1003,528.35,997.76,524.12Z" transform="translate(-888.63 -420.9)"/><path class="cls-12" d="M940.45,487.94a14,14,0,0,0,.81,2.49,6.65,6.65,0,0,1,.21-2.62c.4-1.91.56-3.84.84-5.77a33.63,33.63,0,0,0-.13-4.7c0-5.76,5.16-9.53,5.16-10.52s4,5.16,12.1,5.36a21.87,21.87,0,0,0,9.43-2.32c2.62-1.17,5.38-2.77,8.3-2.95a33.35,33.35,0,0,0,.67,13.27c.55,2.14,1.46,4.49,1.59,6.7,0,.32,0,.63,0,.95a8.4,8.4,0,0,0,.44,2.48c-.15-.45.2-1.29.29-1.74a12.24,12.24,0,0,0,.21-1.81,24.28,24.28,0,0,1,.58-4.25c.69-2.85,1.89-5.57,1.89-8.55,0-3.57-1-6.35-.79-9.13s2.77-5,1-8.53-2.78.4-9.53-.6-7.54-3.57-16.87-4.56-11.31,5.75-11.9,6.55-4.57-.8-7.15,5.16c-1.2,2.77-.82,6.21-.46,9.11a93.78,93.78,0,0,0,2,10.23c.26,1.09.54,2.17.77,3.26C940.09,486.25,940.25,487.1,940.45,487.94Z" transform="translate(-888.63 -420.9)"/><path class="cls-12" d="M953.14,485.37a1.61,1.61,0,1,1-1.57-1.94A1.79,1.79,0,0,1,953.14,485.37Z" transform="translate(-888.63 -420.9)"/><path class="cls-12" d="M970.85,485.37a1.61,1.61,0,1,1-1.57-1.94A1.79,1.79,0,0,1,970.85,485.37Z" transform="translate(-888.63 -420.9)"/><path class="cls-7" d="M961.43,484.59s-.93,1.28.46,4,2.68,4.42,1.87,5.36-3,1.74-2.91,1.39,1.91-1.37,1-3.82S959.33,486.91,961.43,484.59Z" transform="translate(-888.63 -420.9)"/><path class="cls-12" d="M947.44,482.47s1.46-4.71,5.28-4c1.35.24,1.51,1.71-1.35,1.8C949.59,480.31,947.44,482.47,947.44,482.47Z" transform="translate(-888.63 -420.9)"/><path class="cls-12" d="M973.2,482.7s-1.07-4.82-4.93-4.43c-1.37.13-1.65,1.58,1.19,1.9C971.23,480.37,973.2,482.7,973.2,482.7Z" transform="translate(-888.63 -420.9)"/><path class="cls-13" d="M960.61,500.19a16.34,16.34,0,0,1-5.63-.88.34.34,0,0,1-.19-.44.33.33,0,0,1,.44-.19,19.09,19.09,0,0,0,11.16,0,.34.34,0,0,1,.42.23.34.34,0,0,1-.23.42A21.34,21.34,0,0,1,960.61,500.19Z" transform="translate(-888.63 -420.9)"/><path class="cls-13" d="M958.39,501.8a6.74,6.74,0,0,0,4.81,0A3.07,3.07,0,0,1,958.39,501.8Z" transform="translate(-888.63 -420.9)"/></g></svg>