<svg id="Layer_1" data-name="Layer 1" xmlns="http://www.w3.org/2000/svg" xmlns:xlink="http://www.w3.org/1999/xlink" viewBox="0 0 143.83 238.72"><defs><style>.cls-1{fill:none;}.cls-2{fill:#f06d6d;}.cls-3{fill:#e8505b;}.cls-4{fill:#dff3ff;}.cls-5{clip-path:url(#clip-path);}.cls-6{fill:#f7b096;}.cls-7{fill:#ed9884;}.cls-8{fill:#f5a68d;}.cls-9{fill:#4980d1;}.cls-10{fill:#3973c4;}.cls-11{fill:#2562b8;}.cls-12{fill:#d63954;}.cls-13{fill:#f7677f;}.cls-14,.cls-15{fill:#fff;}.cls-15{opacity:0.35;}.cls-16{fill:#200e0b;}</style><clipPath id="clip-path" transform="translate(-888.17 -420.9)"><circle class="cls-1" cx="960.49" cy="490.6" r="59.4"/></clipPath></defs><title>pin3</title><path class="cls-2" d="M888.17,492.79c0,39.69,71.81,166.63,71.91,166.82V420.9A71.91,71.91,0,0,0,888.17,492.79Z" transform="translate(-888.17 -420.9)"/><path class="cls-3" d="M1032,492.79a71.9,71.9,0,0,0-71.91-71.89h0V659.61h0S1032,532.5,1032,492.79Z" transform="translate(-888.17 -420.9)"/><circle class="cls-4" cx="71.92" cy="69.14" r="57.92"/><g class="cls-5"><path class="cls-6" d="M996.83,550.82c-.37-8.8-1.18-20.1-3-23.46-3-5.74-20.47-6.28-23.26-10.93s-2.33-13.11-2.33-13.11l-7.91.27-7.91-.27s.47,8.47-2.32,13.11-20.24,5.19-23.27,10.93c-1.77,3.36-2.58,14.66-3,23.46Z" transform="translate(-888.17 -420.9)"/><path class="cls-7" d="M960.38,503.59l-7.91-.27a34.12,34.12,0,0,1-1.17,10.47,23.54,23.54,0,0,0,20.66,4,4.61,4.61,0,0,1-1.34-1.34c-2.8-4.64-2.33-13.11-2.33-13.11Z" transform="translate(-888.17 -420.9)"/><path class="cls-6" d="M940.21,482.82s-3.51-3-6.28.41c-2.32,2.81.83,8.52,4,10.34s4.3-.17,4.3-.17Z" transform="translate(-888.17 -420.9)"/><path class="cls-7" d="M940.38,487.89s-2.06-3.9-4.62-4,2.15.83,2,2.57-2.26,3.29-1.13,3.19,2.15-2.26,2.67-1.13,1.23,1.95,1.23,1.33S940.38,487.89,940.38,487.89Z" transform="translate(-888.17 -420.9)"/><path class="cls-6" d="M980.55,482.82s3.51-3,6.29.41c2.31,2.81-.83,8.52-4,10.34s-4.3-.17-4.3-.17Z" transform="translate(-888.17 -420.9)"/><path class="cls-7" d="M980.38,487.89s2.06-3.9,4.63-4-2.16.83-2,2.57,2.26,3.29,1.13,3.19-2.15-2.26-2.67-1.13-1.23,1.95-1.23,1.33S980.38,487.89,980.38,487.89Z" transform="translate(-888.17 -420.9)"/><path class="cls-6" d="M960.38,456.56c-13.37.5-22,9.08-21.79,15.85.17,7.1,1,26.75,7.59,33.85a28.78,28.78,0,0,0,5.57,4.65,16,16,0,0,0,17.26,0,28.78,28.78,0,0,0,5.57-4.65c6.6-7.1,7.42-26.75,7.59-33.85C982.34,465.64,973.75,457.06,960.38,456.56Z" transform="translate(-888.17 -420.9)"/><path class="cls-8" d="M960.38,456.56a26.58,26.58,0,0,0-16.78,6.28,19.67,19.67,0,0,0,1.87,5.87A17.59,17.59,0,0,0,960.29,476c10.32,0,14,4.33,14,11.82s-1,20-12,23a16.59,16.59,0,0,1-15.2-3.67,28.92,28.92,0,0,0,4.66,3.74,16,16,0,0,0,17.26,0,28.78,28.78,0,0,0,5.57-4.65c6.6-7.1,7.42-26.75,7.59-33.85C982.34,465.64,973.75,457.06,960.38,456.56Z" transform="translate(-888.17 -420.9)"/><path d="M939.67,487.86s-3.5-10.36-2.71-17.52,5.42-9.08,5.42-9.08-3-6.21,10.19-9.08,20.23,1.91,23.42,2.39,7.37-2.33,7.8-1.12c1,2.71-1.59,6.38-1.59,6.38a2.76,2.76,0,0,1,2.55-.32c1.1.63-2.23,6.05-2.23,6.05s.47.95,1,5.26-2.39,17-2.39,17-3-9.08-3.5-12.58a32.63,32.63,0,0,0-2.39-7.65s-8.12,6.37-16.56,6.21-13.07-4.62-13.07-4.62,1.76,4.3-1.27,6.69-3,4.62-3,5.74A49,49,0,0,1,939.67,487.86Z" transform="translate(-888.17 -420.9)"/><path class="cls-9" d="M1007.09,550.82c-1-8.77-3.4-20-8.72-24.3-7.27-5.9-20.3-9-25.49-10.06a12.58,12.58,0,0,1-24.79,0c-5.19,1-18.21,4.16-25.49,10.06-5.31,4.3-7.67,15.53-8.71,24.3Z" transform="translate(-888.17 -420.9)"/><path class="cls-10" d="M933.73,550.82C932.11,544,931,533.19,929.22,538a56.24,56.24,0,0,0-2.88,12.85Z" transform="translate(-888.17 -420.9)"/><path class="cls-10" d="M1007.09,550.82c-1-8.77-3.4-20-8.72-24.3-7.27-5.9-20.3-9-25.49-10.06a11.78,11.78,0,0,1-.76,2.84c4.51.05,11.61,1.52,13.57,9.83,2.08,8.77.66,16.07-4.7,21.69Z" transform="translate(-888.17 -420.9)"/><path class="cls-11" d="M945.28,517.08c.43,7.15,7.06,12.84,15.21,12.84s14.78-5.69,15.21-12.84c-1.08-.25-3.5-.46-4.28-.62-.78,5.9-4.57,9-10.93,9s-10.15-3.09-10.94-9C948.78,516.62,946.36,516.83,945.28,517.08Z" transform="translate(-888.17 -420.9)"/><path d="M953,488.62a1.64,1.64,0,1,1-1.6-2A1.82,1.82,0,0,1,953,488.62Z" transform="translate(-888.17 -420.9)"/><path d="M971,488.62a1.64,1.64,0,1,1-1.6-2A1.83,1.83,0,0,1,971,488.62Z" transform="translate(-888.17 -420.9)"/><path class="cls-7" d="M961.45,487.83s-1,1.3.47,4,2.73,4.5,1.9,5.45-3.08,1.78-3,1.42,1.94-1.4,1-3.89S959.32,490.19,961.45,487.83Z" transform="translate(-888.17 -420.9)"/><path d="M945.81,484.25s2.41-4.41,6.08-2.95c1.3.52,1.16,2-1.71,1.53C948.39,482.53,945.81,484.25,945.81,484.25Z" transform="translate(-888.17 -420.9)"/><path d="M974.31,484.36s-2.37-4.42-6-3c-1.3.51-1.18,2,1.69,1.54C971.74,482.62,974.31,484.36,974.31,484.36Z" transform="translate(-888.17 -420.9)"/><path class="cls-12" d="M956.32,503.14a.63.63,0,0,1,.33-.93c2.14-.76,9.14-2.63,9.42-1.87.32.91-.6,4.86-5,5.12A4.76,4.76,0,0,1,956.32,503.14Z" transform="translate(-888.17 -420.9)"/><path class="cls-13" d="M961.08,505.46a5.2,5.2,0,0,0,4-2,5.34,5.34,0,0,0-6.84,1.46A5.52,5.52,0,0,0,961.08,505.46Z" transform="translate(-888.17 -420.9)"/><path class="cls-14" d="M965.23,500.65a3.83,3.83,0,0,0,.16-.48,43.23,43.23,0,0,0-8.53,2c.13.24.55.46,1.92.37C961.08,502.35,964.91,501.46,965.23,500.65Z" transform="translate(-888.17 -420.9)"/><path class="cls-15" d="M957.23,489.61a7.7,7.7,0,0,1-15.4,0c0-4.25,3.44-5.75,7.7-5.75S957.23,485.36,957.23,489.61Z" transform="translate(-888.17 -420.9)"/><path class="cls-15" d="M978.14,489.61a7.7,7.7,0,1,1-15.4,0c0-4.25,3.45-5.75,7.7-5.75S978.14,485.36,978.14,489.61Z" transform="translate(-888.17 -420.9)"/><path class="cls-16" d="M970.44,483.38c-5,0-7.78,2-8.11,5.54h-4.69c-.33-3.57-3.16-5.54-8.11-5.54-5.28,0-8.19,2.21-8.19,6.23a8.18,8.18,0,0,0,16.33.69h4.63a8.18,8.18,0,0,0,16.33-.69C978.63,485.59,975.72,483.38,970.44,483.38Zm-20.91,13.45a7.23,7.23,0,0,1-7.22-7.22c0-4.36,3.92-5.27,7.22-5.27s7.21.91,7.21,5.27A7.22,7.22,0,0,1,949.53,496.83Zm20.91,0a7.22,7.22,0,0,1-7.21-7.22c0-4.36,3.92-5.27,7.21-5.27s7.22.91,7.22,5.27A7.23,7.23,0,0,1,970.44,496.83Z" transform="translate(-888.17 -420.9)"/></g></svg>