<svg id="Layer_1" data-name="Layer 1" xmlns="http://www.w3.org/2000/svg" xmlns:xlink="http://www.w3.org/1999/xlink" viewBox="0 0 143.83 238.72"><defs><style>.cls-1{fill:none;}.cls-2{fill:#f06d6d;}.cls-3{fill:#e8505b;}.cls-4{fill:#dff3ff;}.cls-5{clip-path:url(#clip-path);}.cls-6{fill:#280a0c;}.cls-7{fill:#fab19d;}.cls-8{fill:#ed9884;}.cls-9{fill:#f5af9d;}.cls-10{fill:#fdbba4;}.cls-11{fill:#13c0b4;}.cls-12{fill:#0eb09f;}.cls-13{fill:#d63954;}.cls-14{fill:#f7677f;}.cls-15{fill:#fff;}</style><clipPath id="clip-path" transform="translate(-888.17 -420.9)"><circle class="cls-1" cx="959.63" cy="489.82" r="59.18"/></clipPath></defs><title>pin4</title><path class="cls-2" d="M888.17,492.79c0,39.69,71.81,166.63,71.91,166.82V420.9A71.91,71.91,0,0,0,888.17,492.79Z" transform="translate(-888.17 -420.9)"/><path class="cls-3" d="M1032,492.79a71.9,71.9,0,0,0-71.91-71.89h0V659.61h0S1032,532.5,1032,492.79Z" transform="translate(-888.17 -420.9)"/><circle class="cls-4" cx="71.92" cy="69.14" r="57.92"/><g class="cls-5"><path class="cls-6" d="M943.72,454.87s-6.12-1.53-10.94,11.16,4.82,33.05,2.19,39.4-12.91,8.75-12.26,9.19,10.51,10.5,34.58,14.66,36.12-10.06,36.12-10.06-9.85-7.67-6.79-25.17,3.84-32-7.17-40.78S946.35,448.3,943.72,454.87Z" transform="translate(-888.17 -420.9)"/><path class="cls-7" d="M995.94,548.64c-.37-8.77-1.18-20-2.94-23.37-3-5.72-20.39-6.26-23.18-10.89s-2.31-13.07-2.31-13.07l-7.88.27-7.88-.27s.46,8.44-2.32,13.07-20.17,5.17-23.18,10.89c-1.76,3.34-2.57,14.6-2.94,23.37Z" transform="translate(-888.17 -420.9)"/><path class="cls-8" d="M950.86,510.77a24.66,24.66,0,0,0,19.62,4.4,4,4,0,0,1-.66-.79c-2.78-4.63-2.31-13.07-2.31-13.07l-7.88.27-7.88-.27A35.67,35.67,0,0,1,950.86,510.77Z" transform="translate(-888.17 -420.9)"/><path class="cls-7" d="M939.53,481.18s-3.49-2.95-6.26.41c-2.31,2.8.82,8.49,4,10.3s4.28-.16,4.28-.16Z" transform="translate(-888.17 -420.9)"/><path class="cls-8" d="M939.7,486.24s-2.05-3.89-4.61-4,2.15.82,1.95,2.56-2.26,3.28-1.13,3.18,2.15-2.26,2.66-1.13,1.23,1.94,1.23,1.33S939.7,486.24,939.7,486.24Z" transform="translate(-888.17 -420.9)"/><path class="cls-9" d="M979.72,481.18s3.5-2.95,6.27.41c2.3,2.8-.83,8.49-4,10.3s-4.29-.16-4.29-.16Z" transform="translate(-888.17 -420.9)"/><path class="cls-8" d="M979.56,486.24s2-3.89,4.6-4-2.15.82-1.94,2.56,2.25,3.28,1.12,3.18-2.15-2.26-2.66-1.13-1.23,1.94-1.23,1.33S979.56,486.24,979.56,486.24Z" transform="translate(-888.17 -420.9)"/><path class="cls-10" d="M959.63,453.27c-13.33.5-21.88,9.05-21.72,15.8.17,7.07,1,26.65,7.57,33.72a29,29,0,0,0,5.54,4.64,16,16,0,0,0,17.21,0,29,29,0,0,0,5.54-4.64c6.58-7.07,7.4-26.65,7.57-33.72C981.51,462.32,973,453.77,959.63,453.27Z" transform="translate(-888.17 -420.9)"/><path class="cls-9" d="M973.77,502.79c6.58-7.07,7.4-26.65,7.57-33.72.17-6.75-8.39-15.3-21.71-15.8-9.53.36-16.59,4.83-19.8,9.82a15.75,15.75,0,0,0,4.92,4s20.78-.94,25.88,12-.39,23.72-7.06,27.24c-4,2.12-9.9,1.2-14,.13q.74.53,1.44,1a16,16,0,0,0,17.21,0A29,29,0,0,0,973.77,502.79Z" transform="translate(-888.17 -420.9)"/><path class="cls-11" d="M1006.06,548.64c-1-8.73-3.39-19.92-8.69-24.21-7.25-5.88-20.22-9-25.39-10-.79,5.87-6,20.42-12.35,20.42s-11.57-14.55-12.35-20.42c-5.17,1.05-18.15,4.14-25.4,10-5.29,4.29-7.64,15.48-8.69,24.21Z" transform="translate(-888.17 -420.9)"/><path class="cls-12" d="M934.22,548.64c-1.81-7.43-3.79-15.29-4.11-12.59s-.71,8.19-.91,12.59Z" transform="translate(-888.17 -420.9)"/><path class="cls-12" d="M1006.06,548.64c-1-8.73-3.39-19.92-8.69-24.21-7.25-5.88-20.22-9-25.39-10-.09.68-.25,1.48-.45,2.36,5.08.64,13.47,3,14,11.47.64,10.61-4.44,12.92-7.54,20.4Z" transform="translate(-888.17 -420.9)"/><path class="cls-6" d="M938.82,482.8s7.35-8.07,6.61-14.16c0,0,3.42,9.69,35.17,11.95,0,0,3.18-7.74,2.89-12.63s-7.57-18.11-21.82-17.37-22.7,7.57-25.23,14S938.82,482.8,938.82,482.8Z" transform="translate(-888.17 -420.9)"/><ellipse class="cls-6" cx="61.67" cy="65.15" rx="1.6" ry="1.97"/><path class="cls-6" d="M969.4,486.05a1.63,1.63,0,1,1-1.6-2A1.82,1.82,0,0,1,969.4,486.05Z" transform="translate(-888.17 -420.9)"/><path class="cls-8" d="M959.84,485.26s-.94,1.3.48,4,2.71,4.49,1.89,5.43-3.07,1.78-3,1.42,1.94-1.39,1-3.87S957.72,487.61,959.84,485.26Z" transform="translate(-888.17 -420.9)"/><path class="cls-6" d="M944.44,483.22s.48-4.21,6.56-4.33c1.4,0,1.51,1.76-1.39,1.8C947.81,480.72,944.44,483.22,944.44,483.22Z" transform="translate(-888.17 -420.9)"/><path class="cls-6" d="M972.55,483.42s-.3-4.23-6.37-4.62c-1.39-.09-1.59,1.69,1.31,1.86C969.29,480.77,972.55,483.42,972.55,483.42Z" transform="translate(-888.17 -420.9)"/><path class="cls-13" d="M954.44,498.61a.56.56,0,0,1,.54-.67c2,0,8.28.51,8.28,1.22s-1.91,3.81-5.59,2.75A4.16,4.16,0,0,1,954.44,498.61Z" transform="translate(-888.17 -420.9)"/><path class="cls-14" d="M957.67,501.91a4.61,4.61,0,0,0,3.87-.45,4.64,4.64,0,0,0-6-.79A4.8,4.8,0,0,0,957.67,501.91Z" transform="translate(-888.17 -420.9)"/><path class="cls-15" d="M962.48,499.17a3,3,0,0,0,.27-.36,38.7,38.7,0,0,0-7.57-.86c0,.24.31.54,1.47.86C958.58,499.35,962,499.73,962.48,499.17Z" transform="translate(-888.17 -420.9)"/></g></svg>