<svg id="Layer_1" data-name="Layer 1" xmlns="http://www.w3.org/2000/svg" xmlns:xlink="http://www.w3.org/1999/xlink" viewBox="0 0 143.83 238.72"><defs><style>.cls-1{fill:none;}.cls-2{fill:#f06d6d;}.cls-3{fill:#e8505b;}.cls-4{fill:#dff3ff;}.cls-5{clip-path:url(#clip-path);}.cls-6{fill:#280a0c;}.cls-7{fill:#fab19d;}.cls-8{fill:#ed9884;}.cls-9{fill:#fdbba4;}.cls-10{fill:#f5a68d;}.cls-11{fill:#8641b9;}.cls-12{fill:#7636ab;}.cls-13{fill:#d63954;}.cls-14{fill:#f7677f;}.cls-15,.cls-16{fill:#fff;}.cls-16{opacity:0.35;}</style><clipPath id="clip-path" transform="translate(-888.17 -420.9)"><circle class="cls-1" cx="960.17" cy="489.81" r="58.19"/></clipPath></defs><title>pin5</title><path class="cls-2" d="M888.17,492.79c0,39.69,71.81,166.63,71.91,166.82V420.9A71.91,71.91,0,0,0,888.17,492.79Z" transform="translate(-888.17 -420.9)"/><path class="cls-3" d="M1032,492.79a71.9,71.9,0,0,0-71.91-71.89h0V659.61h0S1032,532.5,1032,492.79Z" transform="translate(-888.17 -420.9)"/><circle class="cls-4" cx="71.92" cy="69.14" r="57.92"/><g class="cls-5"><path class="cls-6" d="M945,453.57a6.67,6.67,0,0,1-1.37.38,12.38,12.38,0,0,0-4,2.9c-2.41,2.32-3.5,5.75-4.76,8.86a34,34,0,0,0-1.36,21.14c.91,3.51,2.41,6.95,2.36,10.58,0,3.41-1.45,6.73-1.15,10.12s2.4,6.57,4.53,9.37a31.62,31.62,0,0,0,7.17,7.38c5.9,4,14.63,5.3,21.57,6.43,2.63.43,5.27.27,7.9.8,4,.8,8,2.1,12,2.55,3.72.42,6.87,1.86,10.55,2.55a32,32,0,0,0-1.15-8.26c-.59-2.17-1.81-3.69-2.61-5.65-1.81-4.39,1.32-10.64,1.78-15.13a22.89,22.89,0,0,0-2.62-13.11c-1.5-2.77-3.58-5.24-4.61-8.2-1.66-4.79-.08-9.47-.23-14.33-.13-4.4-.72-8.54-3-12.39-5.63-9.46-15.17-14.8-26.25-13.46A23.44,23.44,0,0,0,945,453.57Z" transform="translate(-888.17 -420.9)"/><path class="cls-7" d="M995.88,548.1c-.36-8.62-1.16-19.69-2.89-23-3-5.62-20.06-6.16-22.79-10.71s-2.28-12.85-2.28-12.85l-7.75.27-7.75-.27s.46,8.3-2.28,12.85-19.82,5.09-22.78,10.71c-1.74,3.29-2.53,14.36-2.9,23Z" transform="translate(-888.17 -420.9)"/><path class="cls-8" d="M970.58,514.91a2.87,2.87,0,0,1-.38-.5c-2.74-4.55-2.28-12.85-2.28-12.85l-7.75.27-7.75-.27a35,35,0,0,1-.89,9.37C955.76,513.83,962.59,517,970.58,514.91Z" transform="translate(-888.17 -420.9)"/><path class="cls-7" d="M941.06,482.16s-3.32-2.81-6,.38c-2.19,2.67.79,8.08,3.77,9.8s4.07-.16,4.07-.16Z" transform="translate(-888.17 -420.9)"/><path class="cls-8" d="M941.22,487s-2-3.69-4.38-3.79,2,.78,1.85,2.43-2.14,3.12-1.07,3,2-2.14,2.53-1.07,1.17,1.85,1.17,1.26S941.22,487,941.22,487Z" transform="translate(-888.17 -420.9)"/><path class="cls-7" d="M979.28,482.16s3.33-2.81,6,.38c2.19,2.67-.79,8.08-3.77,9.8s-4.07-.16-4.07-.16Z" transform="translate(-888.17 -420.9)"/><path class="cls-8" d="M979.12,487s2-3.69,4.38-3.79-2,.78-1.85,2.43,2.15,3.12,1.07,3-2-2.14-2.53-1.07S979,489.4,979,488.81,979.12,487,979.12,487Z" transform="translate(-888.17 -420.9)"/><path class="cls-9" d="M960.17,454.33c-13.1.49-21.51,8.9-21.35,15.53.17,6.95,1,26.2,7.44,33.16a28.27,28.27,0,0,0,5.45,4.55,15.66,15.66,0,0,0,16.92,0,28.27,28.27,0,0,0,5.45-4.55c6.47-7,7.27-26.21,7.44-33.16C981.68,463.23,973.27,454.82,960.17,454.33Z" transform="translate(-888.17 -420.9)"/><path class="cls-10" d="M981.52,469.86c.16-6.63-8.25-15-21.35-15.53A28.23,28.23,0,0,0,949,457c-.61,3.67-.85,6.16-.85,6.16s.44,8.69,7.13,11.81,14.27,3.79,16.28,12.49,1.49,17.35-8.09,20.7c-3.17,1.1-6.62.68-8.71.87a15.6,15.6,0,0,0,13.89-1.47,28.27,28.27,0,0,0,5.45-4.55C980.55,496.06,981.35,476.81,981.52,469.86Z" transform="translate(-888.17 -420.9)"/><path class="cls-11" d="M1005.83,548.1c-1-8.59-3.34-19.59-8.54-23.81-7.14-5.78-19.89-8.82-25-9.85a12.32,12.32,0,0,1-24.28,0c-5.09,1-17.84,4.07-25,9.85-5.21,4.22-7.52,15.22-8.54,23.81Z" transform="translate(-888.17 -420.9)"/><path class="cls-12" d="M997.29,524.29c-7.14-5.78-19.89-8.82-25-9.85a11,11,0,0,1-1.29,3.93c3.52,1.43,9.63,4.57,11.38,9.82,2.2,6.61-6.94,10.73-7.95,19.91h31.38C1004.8,539.51,1002.49,528.51,997.29,524.29Z" transform="translate(-888.17 -420.9)"/><path class="cls-12" d="M933.29,548.1c-1.18-7.51-2-15.5-3.46-12a91.38,91.38,0,0,0-4.57,12Z" transform="translate(-888.17 -420.9)"/><path class="cls-6" d="M980,488.23c.63-3.51-1.24-7.07-3.61-9.77a10.08,10.08,0,0,0-4.37-3.2,14.2,14.2,0,0,0-4.74-.29,46.46,46.46,0,0,1-7.17-.31,12.82,12.82,0,0,1-6.13-2,13,13,0,0,1-3.31-4.23c-.7-1.19-1.75-2-2.36-3.29a23.17,23.17,0,0,1-5,10.7c-2.79,3.08-3.1,11.6-3.1,11.6s-3.53-11.6-2.38-19.66,8.3-15,20.68-15,21.45,3.6,24.19,11.67c2.5,7.36-.42,17-2.75,24.06C979.92,488.45,979.94,488.34,980,488.23Z" transform="translate(-888.17 -420.9)"/><path class="cls-6" d="M953.19,486a1.61,1.61,0,1,1-1.57-1.94A1.78,1.78,0,0,1,953.19,486Z" transform="translate(-888.17 -420.9)"/><path class="cls-6" d="M970.85,486a1.61,1.61,0,1,1-1.57-1.94A1.78,1.78,0,0,1,970.85,486Z" transform="translate(-888.17 -420.9)"/><path class="cls-8" d="M961.46,485.18s-.93,1.28.46,3.95,2.67,4.41,1.86,5.34-3,1.74-2.9,1.39,1.91-1.37,1-3.81S959.37,487.5,961.46,485.18Z" transform="translate(-888.17 -420.9)"/><path class="cls-6" d="M946.31,483.18s.47-4.14,6.46-4.26c1.37,0,1.48,1.73-1.37,1.77C949.62,480.72,946.31,483.18,946.31,483.18Z" transform="translate(-888.17 -420.9)"/><path class="cls-6" d="M974,483.37s-.29-4.16-6.27-4.54c-1.36-.09-1.55,1.66,1.3,1.83C970.75,480.77,974,483.37,974,483.37Z" transform="translate(-888.17 -420.9)"/><path class="cls-13" d="M954.62,498.63a.72.72,0,0,1,.7-.86c2.57,0,10.74.65,10.74,1.57,0,1.09-2.47,5-7.24,3.57A5.4,5.4,0,0,1,954.62,498.63Z" transform="translate(-888.17 -420.9)"/><path class="cls-14" d="M958.82,502.91a5.9,5.9,0,0,0,5-.59,6,6,0,0,0-7.83-1A6.23,6.23,0,0,0,958.82,502.91Z" transform="translate(-888.17 -420.9)"/><path class="cls-15" d="M965.05,499.35a4.72,4.72,0,0,0,.35-.45c-1.91-.66-7.52-1.09-9.82-1.13,0,.31.4.71,1.91,1.12C960,499.59,964.4,500.09,965.05,499.35Z" transform="translate(-888.17 -420.9)"/><circle class="cls-16" cx="60.1" cy="64.16" r="8.56"/><path class="cls-11" d="M948.27,494.38a9.32,9.32,0,1,1,9.32-9.32A9.33,9.33,0,0,1,948.27,494.38Zm0-17.11a7.79,7.79,0,1,0,7.79,7.79A7.79,7.79,0,0,0,948.27,477.27Z" transform="translate(-888.17 -420.9)"/><circle class="cls-16" cx="83.34" cy="64.16" r="8.56"/><path class="cls-11" d="M971.51,494.38a9.32,9.32,0,1,1,9.32-9.32A9.33,9.33,0,0,1,971.51,494.38Zm0-17.11a7.79,7.79,0,1,0,7.79,7.79A7.79,7.79,0,0,0,971.51,477.27Z" transform="translate(-888.17 -420.9)"/><rect class="cls-11" x="68.65" y="63.4" width="6.13" height="1.53"/></g></svg>