<svg id="Layer_1" data-name="Layer 1" xmlns="http://www.w3.org/2000/svg" viewBox="0 0 391.63 391.63"><defs><style>.cls-1{fill:#e0fbfc;}.cls-2{fill:none;}.cls-3{fill:#293241;}.cls-4{fill:#e8505b;}.cls-5{fill:#98c1d9;}.cls-6{fill:#3d5a80;}.cls-7{fill:#001527;}.cls-8{fill:#fff;}</style></defs><title>professional</title><circle class="cls-1" cx="195.81" cy="195.81" r="195.4"/><path class="cls-2" d="M561,505.49h0a59.44,59.44,0,0,1,8.52,20.23A59.44,59.44,0,0,0,561,505.49Z" transform="translate(-469.37 -363.32)"/><path class="cls-2" d="M636.94,512.49a42.46,42.46,0,0,1-2.56-4.33,42.46,42.46,0,0,0,2.56,4.33Z" transform="translate(-469.37 -363.32)"/><path class="cls-2" d="M603.74,425.16a39.93,39.93,0,0,0-2.75-5.32A39.93,39.93,0,0,1,603.74,425.16Z" transform="translate(-469.37 -363.32)"/><path class="cls-2" d="M526.06,430.81A25.45,25.45,0,0,0,523,435.4,26,26,0,0,1,526.06,430.81Z" transform="translate(-469.37 -363.32)"/><path class="cls-2" d="M523,435.4a26,26,0,0,0-2.78,9.45A26,26,0,0,1,523,435.4Z" transform="translate(-469.37 -363.32)"/><path class="cls-2" d="M784.81,611.34c.76-4.74,3.21-9.26,4.43-13.94a80.84,80.84,0,0,0,2.16-14.31l-.14.06c-1.23.54-2.3-1.27-1.06-1.82.46-.2.91-.42,1.37-.64v0a1,1,0,0,1,1.63-.74,64.61,64.61,0,0,0,11.26-7.15q-8-.21-15.87-.89c-5.1-.44-10.28-1-15.48-1.73a25.81,25.81,0,0,0,11.74,8.1.58.58,0,0,1-.3,1.11c-.75-.16-1.47-.36-2.18-.57a.48.48,0,0,1,0,.12c-1.93,8.12-5.85,19.77-12.2,25.73,3.26,1.5,6.46,3.29,9.64,4.77.64.3,1.33.6,2,.89s1.72.58,2.61.83A.8.8,0,0,1,784.81,611.34Z" transform="translate(-469.37 -363.32)"/><path class="cls-2" d="M621.83,408.17a20.79,20.79,0,0,0-5.18-1.91A20.79,20.79,0,0,1,621.83,408.17Z" transform="translate(-469.37 -363.32)"/><path class="cls-2" d="M607.74,406.1a26,26,0,0,0-4.4,1.17A26,26,0,0,1,607.74,406.1Z" transform="translate(-469.37 -363.32)"/><path class="cls-2" d="M607,436.11a49.36,49.36,0,0,0-3.26-10.95A49.36,49.36,0,0,1,607,436.11Z" transform="translate(-469.37 -363.32)"/><path class="cls-2" d="M599.16,485.22a1.3,1.3,0,0,0,1.63-.89A1.3,1.3,0,0,1,599.16,485.22Z" transform="translate(-469.37 -363.32)"/><path class="cls-2" d="M569.06,471.87c3.29,4.89,6.79,9.64,10.39,14.25C575.85,481.51,572.35,476.76,569.06,471.87Z" transform="translate(-469.37 -363.32)"/><path class="cls-2" d="M552,608.93c6.81-4.06,14.19-5,21.95-5.71,10.26-.88,20.55-1.77,30.84-2.18a31.59,31.59,0,0,1-.59-3.59,1.83,1.83,0,0,1-.62-1.72,37.78,37.78,0,0,1-5.41-2.35.72.72,0,0,1-.09.2c-3,3.89-8.33,4.36-12.48,2-5.27-3-8.83-9.76-10.08-15.74-3.69,3.83-9.3,5.25-12-.81-3.48-7.69-.07-19.92,3.88-27.68-3.33,1.39-7,.73-6.57-4.2a19.25,19.25,0,0,1,7.8-13.76c-.1,0-.21-.07-.31-.12a1.14,1.14,0,0,1-.07-.22A75.74,75.74,0,0,0,559.52,506a.72.72,0,0,1,0-.74.91.91,0,0,1-.31-1,.36.36,0,0,1-.13-.42c-19.86-9.09-38.2-28.38-41.33-50.07-2.55-17.46,10.23-37.5,30.29-33.44a.13.13,0,0,0,.08,0c.06-.31.15-.6.22-.91a16.44,16.44,0,0,1,7.17-11.65,24,24,0,0,1,12.38-5,31.28,31.28,0,0,1,18.89,3.51,24.74,24.74,0,0,1,2.28,1.34,34.9,34.9,0,0,1,4.48,3.36c12.24-12.9,33-8.15,40.92,6.78,5,9.37,5,20.05,3.79,30.3-1.51,13.27-4.55,26.37-7.5,39.4,0,.07-.07.12-.08.19a1,1,0,0,1,1.14.85,83.51,83.51,0,0,0,6.76,22.57,37.93,37.93,0,0,1,4.17.13.91.91,0,0,1,.87.67,3.1,3.1,0,0,1-.61,2.44c7.59.88,17.94,5.68,12.74,14-3.49,5.58-11.34,6.11-18.26,4.4,4.77,11.13,16.55,18.1,17.37,31.24.74,11.53-5.62,22.43-15.36,28.39a37.55,37.55,0,0,1-5.3,2.67c0,.11.07.22.11.33.49,1.25,1.08,2.43,1.64,3.65a2.13,2.13,0,0,1,.1.4c19.92-4.34,38-4.07,56.4,5.38,10.33,5.3,20.49,10.92,30.74,16.39,6.59,3.52,13.38,8.47,21,3.86,5.12-3.1,9.48-8.4,12.81-13.29-.35-.35-.69-.71-1-1.07a.61.61,0,0,1,0-.86.67.67,0,0,1-.06-.8c2.66-4,4.87-7.8,9.87-6.12,1.2.4,2.39.88,3.58,1.4,1.33-3.76,3.77-7.14,5.49-10.74a131.17,131.17,0,0,0,5.75-15.11,1.14,1.14,0,0,1,.12-.22,22.57,22.57,0,0,1-10.53-8.47c-18.45-2.78-37-7.67-53.11-16.41a.51.51,0,0,1-.05-.82,2.09,2.09,0,0,1-.59-1.43,3.38,3.38,0,0,1,1-2.43,4.25,4.25,0,0,1,5.2-.28c6.37-28.77,33-49.3,61.51-53.53.8-7.21,9.06-12.06,16-11.28s11.75,6.6,12.46,13.14a56.57,56.57,0,0,1,24.75,15.25c12.71,13.37,19,30.87,23.62,48.42,0-.41,0-.81,0-1.22C861,451,773.33,363.32,665.18,363.32S469.37,451,469.37,559.14a194.86,194.86,0,0,0,30.5,105c4.44-6.14,9-12.19,13.73-18.14C524.46,632.23,536.74,618,552,608.93Z" transform="translate(-469.37 -363.32)"/><path class="cls-2" d="M596.26,534.43a17.69,17.69,0,0,1-2.88,14.27c-1,1.24-2.38,2.32-4,2.15.54,4-1,8.13-5,9.94-4.2,1.86-9.23-.73-9.77-5.23-4.63.74-5.31,7.34-3.28,10.72,2.47,4.1,6.68,3.9,10.71,2.91a1,1,0,0,1,1.12.38,1.34,1.34,0,0,1,1.38,1.15c3.75,28.21,45,32.4,61.23,12.91A26.61,26.61,0,0,0,647,550.37c-4.46-6.13-9.85-11-11.68-18.28a28.83,28.83,0,0,1-4.58-1.88c.88,2.52.17,5.25-3.41,5.54-5,.42-10.39-3.09-12.79-7.36q-2.34,1-4.67,1.85A101.2,101.2,0,0,1,596.26,534.43Zm43.32,38.38c.4-1.14,2.22-.66,1.82.49-2.18,6.15-9.27,9.28-14.93,5.49-.41-.28-.15-1.06.37-.85C632,580,637.61,578.26,639.58,572.81ZM630.2,539.7a.64.64,0,0,1,1.08-.23,1.17,1.17,0,0,1,.73.09,6.69,6.69,0,0,1,3.66,4.33c.38,1.37.51,3.78-1.32,4.14s-3.32-1.69-4-3.07A6.6,6.6,0,0,1,630.2,539.7Zm-11.9.23a86.53,86.53,0,0,1,10.84,17.86,4.8,4.8,0,0,1,6.09,2.17c1.5,3.14-1.51,7.21-4.94,6.63-1.18-.2-.78-1.89.27-2,1.87-.11,4-2.08,2.81-4.08-1-1.69-3.41-1.64-4.88-.7a.62.62,0,0,1-.9-.54,1,1,0,0,1-.29-.38c-3-6.27-6.52-12.19-10-18.19C616.89,540.1,617.82,539.34,618.3,539.93Zm-8.61,17.62c-1.78.32-3.32-1.69-4-3.07a6.6,6.6,0,0,1-.19-5.26.64.64,0,0,1,1.08-.23,1.21,1.21,0,0,1,.72.08A6.75,6.75,0,0,1,611,553.4C611.39,554.78,611.52,557.19,609.69,557.55Z" transform="translate(-469.37 -363.32)"/><path class="cls-2" d="M551,676.26c-5.67-1.29-11.79,2.77-15.42,6.7A21.13,21.13,0,0,0,530,700.84a196.46,196.46,0,0,0,43.49,31.37A204.12,204.12,0,0,0,561.9,689C559.89,684.05,556.72,677.55,551,676.26Z" transform="translate(-469.37 -363.32)"/><path class="cls-2" d="M807.67,572.85a65.68,65.68,0,0,1-14.12,9.23c0,9.43-1.9,22.77-8.47,29.56A30.69,30.69,0,0,1,792,615.3a1.29,1.29,0,0,1,.55,1.36c-.58,2.17-2.34,4.29-4.12,6.1a14.83,14.83,0,0,1-2.89,3.33,1.1,1.1,0,0,1-.58.48h0a.49.49,0,0,1-.67,0l-1.26-.38c-6.46,13.88-15.89,28.45-30.57,34.55-19.51,8.12-41.09.29-61.06-1.22a2,2,0,0,1-.37-.1c-2.23,25.21-2.2,50.23-1.45,75.46.42,1.95.77,3.9,1.13,5.86a1,1,0,0,1,.46.75c.64,3.86,1.44,7.67,2.36,11.44C785,739.65,856,663.11,860.75,569.09A320.94,320.94,0,0,1,807.67,572.85Z" transform="translate(-469.37 -363.32)"/><path class="cls-2" d="M804.08,494.79a5.06,5.06,0,0,0-3.93-4.19c-3.48-1.06-6.37.84-8.27,3.51A64.18,64.18,0,0,1,804.08,494.79Z" transform="translate(-469.37 -363.32)"/><path class="cls-3" d="M793.2,579.92a1,1,0,0,0-1.63.74v0c-.46.22-.91.44-1.37.64-1.24.55-.17,2.36,1.06,1.82l.14-.06a80.84,80.84,0,0,1-2.16,14.31c-1.22,4.68-3.67,9.2-4.43,13.94a.8.8,0,0,0-.36-.21c-.89-.25-1.76-.53-2.61-.83l3.24,1.34c6.57-6.79,8.43-20.13,8.47-29.56a65.68,65.68,0,0,0,14.12-9.23l-3.21-.08A64.61,64.61,0,0,1,793.2,579.92Z" transform="translate(-469.37 -363.32)"/><path class="cls-3" d="M782.37,578.91a.48.48,0,0,0,0-.12c.71.21,1.43.41,2.18.57a.58.58,0,0,0,.3-1.11,25.81,25.81,0,0,1-11.74-8.1l-2.91-.42a22.57,22.57,0,0,0,10.53,8.47,1.14,1.14,0,0,0-.12.22,131.17,131.17,0,0,1-5.75,15.11c-1.72,3.6-4.16,7-5.49,10.74l.8.37C776.52,598.68,780.44,587,782.37,578.91Z" transform="translate(-469.37 -363.32)"/><path class="cls-4" d="M812.61,496.69c-.71-6.54-5.46-12.35-12.46-13.14s-15.23,4.07-16,11.28c-28.5,4.23-55.14,24.76-61.51,53.53a4.25,4.25,0,0,0-5.2.28,3.38,3.38,0,0,0-1,2.43,2.09,2.09,0,0,0,.59,1.43.51.51,0,0,0,.05.82c16.08,8.74,34.66,13.63,53.11,16.41l2.91.42c5.2.72,10.38,1.29,15.48,1.73q7.92.69,15.87.89l3.21.08a320.94,320.94,0,0,0,53.08-3.76c.14-2.89.21-5.8.23-8.73-4.57-17.55-10.91-35.05-23.62-48.42A56.57,56.57,0,0,0,812.61,496.69Zm-8.09,1.25a4.76,4.76,0,0,0,7.48.22c.44-.49,1.23.15.9.7-1.94,3.19-7.42,2.74-9-.57A.35.35,0,0,1,804.52,497.94Zm-4.37-7.34a5.06,5.06,0,0,1,3.93,4.19,64.18,64.18,0,0,0-12.2-.68C793.78,491.44,796.67,489.54,800.15,490.6Zm-15,7.46a3.32,3.32,0,0,0,6.11-.73.44.44,0,0,1,.84.23c-.67,3.77-6,4.26-7.48.81A.31.31,0,0,1,785.13,498.06Zm69.53,65.79a297,297,0,0,1-66.24-.66c-20.89-2.51-42.57-6.63-62.07-14.72-.33-.14-.21-.65.15-.55,21.46,5.72,42.39,11.56,64.56,14a318.79,318.79,0,0,0,63.6.34C855.67,562.19,855.65,563.75,854.66,563.85Z" transform="translate(-469.37 -363.32)"/><path class="cls-5" d="M633.71,659.81a2.16,2.16,0,0,1,1.61,1l.07.07a1.28,1.28,0,0,1,.29,1.1,2.63,2.63,0,0,1,0,.69,2.56,2.56,0,0,0,.14-1.44A1.8,1.8,0,0,0,633.71,659.81Z" transform="translate(-469.37 -363.32)"/><path class="cls-5" d="M690.68,740.72c-.36-2-.71-3.91-1.13-5.86-.75-25.23-.78-50.25,1.45-75.46a2,2,0,0,0,.37.1c20,1.51,41.55,9.34,61.06,1.22,14.68-6.1,24.11-20.67,30.57-34.55l1.26.38a.49.49,0,0,0,.67,0h0a1.1,1.1,0,0,0,.58-.48,14.83,14.83,0,0,0,2.89-3.33c1.78-1.81,3.54-3.93,4.12-6.1a1.29,1.29,0,0,0-.55-1.36,30.69,30.69,0,0,0-6.92-3.66l-3.24-1.34c-.7-.29-1.39-.59-2-.89-3.18-1.48-6.38-3.27-9.64-4.77l-.8-.37c-1.19-.52-2.38-1-3.58-1.4-5-1.68-7.21,2.11-9.87,6.12a.67.67,0,0,0,.06.8.61.61,0,0,0,0,.86c.34.36.68.72,1,1.07-3.33,4.89-7.69,10.19-12.81,13.29-7.61,4.61-14.4-.34-21-3.86-10.25-5.47-20.41-11.09-30.74-16.39-18.4-9.45-36.48-9.72-56.4-5.38a2.13,2.13,0,0,0-.1-.4c-.56-1.22-1.15-2.4-1.64-3.65,0-.11-.08-.22-.11-.33a44.11,44.11,0,0,1-30.65.73,1.83,1.83,0,0,0,.62,1.72,31.59,31.59,0,0,0,.59,3.59c-10.29.41-20.58,1.3-30.84,2.18-7.76.67-15.14,1.65-21.95,5.71C536.74,618,524.46,632.23,513.6,646c-4.69,5.95-9.29,12-13.73,18.14A196.54,196.54,0,0,0,530,700.84,21.13,21.13,0,0,1,535.56,683c3.63-3.93,9.75-8,15.42-6.7s8.91,7.79,10.92,12.73a204.12,204.12,0,0,1,11.63,43.22,194.78,194.78,0,0,0,80.76,22.44,657.24,657.24,0,0,1-9.66-69.74c-1.57-18.63-2.39-37.34-2.35-56,0-4.75,1-10.4.21-15-.89-5.34-5.8-5.58-10.45-6.79-8.79-2.29-17.7-3.29-26.67-4.58-.48-.07-.34-.81.11-.82,12.9,0,25.94,3.22,38.08,7.36a.76.76,0,0,1,.54.72,687.72,687.72,0,0,0,12.24,145c2.94.13,5.88.2,8.84.2a197.28,197.28,0,0,0,28.32-2c-.92-3.77-1.72-7.58-2.36-11.44A1,1,0,0,0,690.68,740.72Zm68.14-128.6a110.27,110.27,0,0,0,24.67,9.51c1.09.27.62,1.93-.47,1.68a75.65,75.65,0,0,1-24.65-10.43A.44.44,0,0,1,758.82,612.12ZM646.23,738.6c-.6,2.93-4.83,4.51-6.92,2.12a3.57,3.57,0,0,1-.75-2.87,3.63,3.63,0,0,1,1.38-3.34C642.81,732.2,646.94,735.12,646.23,738.6ZM640,697.76c2.74,2.79-.25,6.9-3.78,6.07a4.34,4.34,0,0,1-3.15-3.75,3.31,3.31,0,0,1,.46-2.5,3.16,3.16,0,0,1,1.44-.51,12,12,0,0,1,1.67-.33.56.56,0,0,1,.41.11A3.18,3.18,0,0,1,640,697.76Zm-2.29-35.2a4.27,4.27,0,0,1-4.2,3.65,4.17,4.17,0,0,1-4.27-3.69,4,4,0,0,1,1.68-3.38,4.35,4.35,0,0,1,4.16-1.25A4,4,0,0,1,637.75,662.56Zm-10.09-38.1a4.15,4.15,0,0,1,5.63-1.28,4.6,4.6,0,0,1,1.94,5,4.22,4.22,0,0,1-4.54,2.81,3.74,3.74,0,0,1-3.44-3.62c0-.13,0-.27,0-.41A3.41,3.41,0,0,1,627.66,624.46Zm-8,111.89a1.08,1.08,0,0,1,.19,0,3.7,3.7,0,0,1,3.61,3.39,3.46,3.46,0,0,1-3.26,3.83,3.7,3.7,0,0,1-4.11-3.1,4,4,0,0,1,3-4.27A.6.6,0,0,1,619.69,736.35Zm-2-36c2.43,3.25-.85,7.3-4.55,6.4a4.16,4.16,0,0,1-3.22-4,2.91,2.91,0,0,1,2.31-2.7A3.8,3.8,0,0,1,617.71,700.34Zm-2.83-35.1c-.64,2.41-3.29,4-5.58,2.57a4.22,4.22,0,0,1-1-6.24.76.76,0,0,1,.55-.27,3.44,3.44,0,0,1,2.07-1A3.79,3.79,0,0,1,614.88,665.24Zm-5.14-34.74c-.24,3.16-4.43,4.76-6.86,2.89s-1.89-6.13,1-7.15a.55.55,0,0,1,.18,0A4.34,4.34,0,0,1,609.74,630.5Z" transform="translate(-469.37 -363.32)"/><path class="cls-6" d="M574.23,534.27a61.54,61.54,0,0,0,10.38.78A61.54,61.54,0,0,1,574.23,534.27Z" transform="translate(-469.37 -363.32)"/><path class="cls-6" d="M637.84,513.83c-.31-.43-.6-.89-.9-1.34h0C637.24,512.94,637.53,513.4,637.84,513.83Z" transform="translate(-469.37 -363.32)"/><path class="cls-6" d="M654.87,563.94c-.82-13.14-12.6-20.11-17.37-31.24,6.92,1.71,14.77,1.18,18.26-4.4,5.2-8.31-5.15-13.11-12.74-14a3.1,3.1,0,0,0,.61-2.44.91.91,0,0,0-.87-.67,37.93,37.93,0,0,0-4.17-.13c.26.57.51,1.14.77,1.72a110.41,110.41,0,0,1-10.69,8.35,85,85,0,0,1-14.15,7.25c2.4,4.27,7.83,7.78,12.79,7.36,3.58-.29,4.29-3,3.41-5.54a28.83,28.83,0,0,0,4.58,1.88c1.83,7.28,7.22,12.15,11.68,18.28a26.61,26.61,0,0,1-1.21,33.26c-16.2,19.49-57.48,15.3-61.23-12.91a1.34,1.34,0,0,0-1.38-1.15,1,1,0,0,0-1.12-.38c-4,1-8.24,1.19-10.71-2.91-2-3.38-1.35-10,3.28-10.72.54,4.5,5.57,7.09,9.77,5.23,4-1.81,5.58-5.95,5-9.94,1.58.17,3-.91,4-2.15a17.69,17.69,0,0,0,2.88-14.27c-9.24,2.07-18.85,2.43-27.68-1.08a19.25,19.25,0,0,0-7.8,13.76c-.44,4.93,3.24,5.59,6.57,4.2-4,7.76-7.36,20-3.88,27.68,2.73,6.06,8.34,4.64,12,.81,1.25,6,4.81,12.72,10.08,15.74,4.15,2.4,9.47,1.93,12.48-2a.72.72,0,0,0,.09-.2,37.78,37.78,0,0,0,5.41,2.35,44.11,44.11,0,0,0,30.65-.73,37.55,37.55,0,0,0,5.3-2.67C649.25,586.37,655.61,575.47,654.87,563.94Z" transform="translate(-469.37 -363.32)"/><path class="cls-6" d="M637.89,513.86c-4.39,3.11-8.86,6.06-13.42,8.73C629,519.92,633.5,517,637.89,513.86Z" transform="translate(-469.37 -363.32)"/><path class="cls-5" d="M556.94,406.83c8.36-5.17,20.72-5.3,29.86-.55a31.28,31.28,0,0,0-18.89-3.51,24,24,0,0,0-12.38,5q.65-.45,1.35-.87S556.92,406.84,556.94,406.83Z" transform="translate(-469.37 -363.32)"/><path class="cls-5" d="M596.26,534.43a101.2,101.2,0,0,0,13.59-4.19q2.32-.88,4.67-1.85a85,85,0,0,0,14.15-7.25,110.41,110.41,0,0,0,10.69-8.35c-.26-.58-.51-1.15-.77-1.72a83.51,83.51,0,0,1-6.76-22.57,1,1,0,0,0-1.14-.85c0-.07.06-.12.08-.19,3-13,6-26.13,7.5-39.4,1.17-10.25,1.19-20.93-3.79-30.3-8-14.93-28.68-19.68-40.92-6.78a34.9,34.9,0,0,0-4.48-3.36,21.49,21.49,0,0,1,7.71,8.55c3.94,8.13,4.51,18.28,5.2,27.16a339.87,339.87,0,0,1,.43,37.36.51.51,0,0,1-1,0c0-18,.56-36.26-2.83-54.07-1.79-9.42-5.73-16.74-15.16-20.24-8.77-3.25-17.48-2.53-25.9,1a.44.44,0,0,1-.18.27c-16.16,11.24-3.16,34.7,1.8,48.64,0,.09-.11.13-.14,0-4-9.54-12.37-25-10.64-36.93-.07.31-.16.6-.22.91a.13.13,0,0,1-.08,0c-20.06-4.06-32.84,16-30.29,33.44,3.13,21.69,21.47,41,41.33,50.07a.35.35,0,0,1,.33-.25c23.67-1.48,47.09-3.43,67.87-16,.53-.32,1,.52.48.83-20.49,12-44.81,16.23-68.35,15.94a.43.43,0,0,1-.2-.06.91.91,0,0,0,.31,1,.72.72,0,0,0,0,.74A75.74,75.74,0,0,1,568.2,533a1.14,1.14,0,0,0,.07.22c.1,0,.21.08.31.12C577.41,536.86,587,536.5,596.26,534.43ZM523,435.4a26,26,0,0,0-2.78,9.45A26,26,0,0,1,523,435.4a25.45,25.45,0,0,1,3.09-4.59A26,26,0,0,0,523,435.4Zm56.48,50.72c-3.6-4.61-7.1-9.36-10.39-14.25C572.35,476.76,575.85,481.51,579.45,486.12Zm1.67,10.94c-6.73-8.38-9.76-19-16.3-27.48-.16-.21.2-.49.37-.29,6.69,8.39,10.13,18.72,16.59,27.26C582.06,496.93,581.41,497.43,581.12,497.06Zm18-11.84a1.3,1.3,0,0,0,1.63-.89A1.3,1.3,0,0,1,599.16,485.22Zm4.58-60.06a39.93,39.93,0,0,0-2.75-5.32,39.93,39.93,0,0,1,2.75,5.32A49.36,49.36,0,0,1,607,436.11,49.36,49.36,0,0,0,603.74,425.16Zm-.4-17.89a26,26,0,0,1,4.4-1.17A26,26,0,0,0,603.34,407.27Zm13.31-1a20.79,20.79,0,0,1,5.18,1.91A20.79,20.79,0,0,0,616.65,406.26Zm7.82,116.33c4.56-2.67,9-5.62,13.42-8.73C633.5,517,629,519.92,624.47,522.59Zm12.47-10.1c.3.45.59.91.9,1.34-.31-.43-.6-.89-.9-1.34a42.46,42.46,0,0,1-2.56-4.33A42.46,42.46,0,0,0,636.94,512.49Zm-75.91-7h0a59.44,59.44,0,0,1,8.52,20.23A59.44,59.44,0,0,0,561,505.49Zm23.58,29.56a61.54,61.54,0,0,1-10.38-.78A61.54,61.54,0,0,0,584.61,535.05Z" transform="translate(-469.37 -363.32)"/><path class="cls-7" d="M626.84,577.94c-.52-.21-.78.57-.37.85,5.66,3.79,12.75.66,14.93-5.49.4-1.15-1.42-1.63-1.82-.49C637.61,578.26,632,580,626.84,577.94Z" transform="translate(-469.37 -363.32)"/><path class="cls-7" d="M634.35,548c1.83-.36,1.7-2.77,1.32-4.14a6.69,6.69,0,0,0-3.66-4.33,1.17,1.17,0,0,0-.73-.09.64.64,0,0,0-1.08.23,6.6,6.6,0,0,0,.19,5.26C631,546.34,632.57,548.36,634.35,548Z" transform="translate(-469.37 -363.32)"/><path class="cls-7" d="M607.34,549.07a1.21,1.21,0,0,0-.72-.08.64.64,0,0,0-1.08.23,6.6,6.6,0,0,0,.19,5.26c.64,1.38,2.18,3.39,4,3.07s1.7-2.77,1.32-4.15A6.75,6.75,0,0,0,607.34,549.07Z" transform="translate(-469.37 -363.32)"/><path class="cls-7" d="M627.3,558.93a1,1,0,0,0,.29.38.62.62,0,0,0,.9.54c1.47-.94,3.87-1,4.88.7,1.16,2-.94,4-2.81,4.08-1,.07-1.45,1.76-.27,2,3.43.58,6.44-3.49,4.94-6.63a4.8,4.8,0,0,0-6.09-2.17,86.53,86.53,0,0,0-10.84-17.86c-.48-.59-1.41.17-1,.81C620.78,546.74,624.29,552.66,627.3,558.93Z" transform="translate(-469.37 -363.32)"/><path class="cls-3" d="M644.1,609.71a.76.76,0,0,0-.54-.72c-12.14-4.14-25.18-7.4-38.08-7.36-.45,0-.59.75-.11.82,9,1.29,17.88,2.29,26.67,4.58,4.65,1.21,9.56,1.45,10.45,6.79.78,4.65-.2,10.3-.21,15,0,18.7.78,37.41,2.35,56a657.24,657.24,0,0,0,9.66,69.74l2.05.1A687.72,687.72,0,0,1,644.1,609.71Z" transform="translate(-469.37 -363.32)"/><path class="cls-7" d="M627.25,627.36a3.74,3.74,0,0,0,3.44,3.62,4.22,4.22,0,0,0,4.54-2.81,4.6,4.6,0,0,0-1.94-5,4.15,4.15,0,0,0-5.63,1.28,3.41,3.41,0,0,0-.38,2.49C627.27,627.09,627.25,627.23,627.25,627.36Z" transform="translate(-469.37 -363.32)"/><path class="cls-7" d="M603.9,626.24c-2.91,1-3.4,5.31-1,7.15s6.62.27,6.86-2.89a4.34,4.34,0,0,0-5.66-4.28A.55.55,0,0,0,603.9,626.24Z" transform="translate(-469.37 -363.32)"/><path class="cls-7" d="M631,659.14a4,4,0,0,0-1.68,3.38,4.17,4.17,0,0,0,4.27,3.69,4.27,4.27,0,0,0,4.2-3.65,4,4,0,0,0-2.63-4.67A4.35,4.35,0,0,0,631,659.14Zm4.83,2.13a2.56,2.56,0,0,1-.14,1.44,2.63,2.63,0,0,0,0-.69,1.28,1.28,0,0,0-.29-1.1l-.07-.07a2.16,2.16,0,0,0-1.61-1A1.8,1.8,0,0,1,635.79,661.27Z" transform="translate(-469.37 -363.32)"/><path class="cls-7" d="M608.27,661.57a4.22,4.22,0,0,0,1,6.24c2.29,1.48,4.94-.16,5.58-2.57a3.79,3.79,0,0,0-4-4.91,3.44,3.44,0,0,0-2.07,1A.76.76,0,0,0,608.27,661.57Z" transform="translate(-469.37 -363.32)"/><path class="cls-7" d="M636.68,696.74a12,12,0,0,0-1.67.33,3.16,3.16,0,0,0-1.44.51,3.31,3.31,0,0,0-.46,2.5,4.34,4.34,0,0,0,3.15,3.75c3.53.83,6.52-3.28,3.78-6.07a3.18,3.18,0,0,0-2.95-.91A.56.56,0,0,0,636.68,696.74Z" transform="translate(-469.37 -363.32)"/><path class="cls-7" d="M609.94,702.7a4.16,4.16,0,0,0,3.22,4c3.7.9,7-3.15,4.55-6.4a3.8,3.8,0,0,0-5.46-.34A2.91,2.91,0,0,0,609.94,702.7Z" transform="translate(-469.37 -363.32)"/><path class="cls-7" d="M638.56,737.85a3.57,3.57,0,0,0,.75,2.87c2.09,2.39,6.32.81,6.92-2.12.71-3.48-3.42-6.4-6.29-4.09A3.63,3.63,0,0,0,638.56,737.85Z" transform="translate(-469.37 -363.32)"/><path class="cls-7" d="M616.12,740.44a3.7,3.7,0,0,0,4.11,3.1,3.46,3.46,0,0,0,3.26-3.83,3.7,3.7,0,0,0-3.61-3.39,1.08,1.08,0,0,0-.19,0,.6.6,0,0,0-.61-.18A4,4,0,0,0,616.12,740.44Z" transform="translate(-469.37 -363.32)"/><path class="cls-3" d="M758.37,612.88A75.65,75.65,0,0,0,783,623.31c1.09.25,1.56-1.41.47-1.68a110.27,110.27,0,0,1-24.67-9.51A.44.44,0,0,0,758.37,612.88Z" transform="translate(-469.37 -363.32)"/><path class="cls-8" d="M791.06,561.94c-22.17-2.46-43.1-8.3-64.56-14-.36-.1-.48.41-.15.55,19.5,8.09,41.18,12.21,62.07,14.72a297,297,0,0,0,66.24.66c1-.1,1-1.66,0-1.57A318.79,318.79,0,0,1,791.06,561.94Z" transform="translate(-469.37 -363.32)"/><path class="cls-8" d="M792.08,497.56a.44.44,0,0,0-.84-.23,3.32,3.32,0,0,1-6.11.73.31.31,0,0,0-.53.31C786.08,501.82,791.41,501.33,792.08,497.56Z" transform="translate(-469.37 -363.32)"/><path class="cls-8" d="M803.92,498.29c1.56,3.31,7,3.76,9,.57.33-.55-.46-1.19-.9-.7a4.76,4.76,0,0,1-7.48-.22A.35.35,0,0,0,803.92,498.29Z" transform="translate(-469.37 -363.32)"/><path class="cls-7" d="M627.78,488.31c.53-.31.05-1.15-.48-.83-20.78,12.61-44.2,14.56-67.87,16a.35.35,0,0,0-.33.25.36.36,0,0,0,.13.42.43.43,0,0,0,.2.06C583,504.54,607.29,500.29,627.78,488.31Z" transform="translate(-469.37 -363.32)"/><path class="cls-7" d="M559,456.31c0,.09.17.05.14,0-5-13.94-18-37.4-1.8-48.64a.44.44,0,0,0,.18-.27c8.42-3.51,17.13-4.23,25.9-1,9.43,3.5,13.37,10.82,15.16,20.24,3.39,17.81,2.78,36,2.83,54.07a.51.51,0,0,0,1,0,339.87,339.87,0,0,0-.43-37.36c-.69-8.88-1.26-19-5.2-27.16a21.49,21.49,0,0,0-7.71-8.55,24.74,24.74,0,0,0-2.28-1.34c-9.14-4.75-21.5-4.62-29.86.55,0,0,0,0-.06,0q-.71.42-1.35.87a16.44,16.44,0,0,0-7.17,11.65C546.63,431.35,555,446.77,559,456.31Z" transform="translate(-469.37 -363.32)"/><path class="cls-7" d="M565.19,469.29c-.17-.2-.53.08-.37.29,6.54,8.5,9.57,19.1,16.3,27.48.29.37.94-.13.66-.51C575.32,488,571.88,477.68,565.19,469.29Z" transform="translate(-469.37 -363.32)"/></svg>