<svg id="Layer_1" data-name="Layer 1" xmlns="http://www.w3.org/2000/svg" viewBox="0 0 391.63 391.63"><defs><style>.cls-1{fill:none;}.cls-2{fill:#fff;}.cls-3{fill:#293241;}.cls-4{fill:#e8505b;}.cls-5{fill:#98c1d9;}.cls-6{fill:#3d5a80;}.cls-7{fill:#001527;}</style></defs><title>Untitled-1</title><path class="cls-1" d="M710.86,463.65c0-107.92,87.49-195.4,195.4-195.4,107.08,0,194,86.14,195.37,192.91l.54,2c0-.41,0-.81,0-1.22,0-108.15-87.67-195.82-195.81-195.82S710.55,353.84,710.55,462a196.13,196.13,0,0,0,4,39.49A196.48,196.48,0,0,1,710.86,463.65Z" transform="translate(-710.55 -266.17)"/><path class="cls-1" d="M1091.8,525.05a194.89,194.89,0,0,0,10.13-53.11l-.46.07A194.62,194.62,0,0,1,1091.8,525.05Z" transform="translate(-710.55 -266.17)"/><path class="cls-2" d="M848.92,309a26.21,26.21,0,0,0-4.4,1.17A26.21,26.21,0,0,1,848.92,309Z" transform="translate(-710.55 -266.17)"/><path class="cls-2" d="M863,311a21.09,21.09,0,0,0-5.17-1.9A21.09,21.09,0,0,1,863,311Z" transform="translate(-710.55 -266.17)"/><path class="cls-2" d="M878.13,415.34a42.54,42.54,0,0,1-2.57-4.33,42.54,42.54,0,0,0,2.57,4.33Z" transform="translate(-710.55 -266.17)"/><path class="cls-2" d="M837.45,437.27a17.72,17.72,0,0,1-2.88,14.27c-1,1.25-2.39,2.33-4,2.16.53,4-1,8.13-5,9.94-4.2,1.85-9.24-.73-9.78-5.23-4.63.74-5.31,7.34-3.28,10.72,2.47,4.1,6.69,3.9,10.72,2.91a1,1,0,0,1,1.12.38,1.33,1.33,0,0,1,1.37,1.15c3.75,28.21,45,32.4,61.24,12.91a26.61,26.61,0,0,0,1.2-33.26c-4.45-6.13-9.85-11-11.68-18.28a28.31,28.31,0,0,1-4.58-1.89c.88,2.53.17,5.25-3.41,5.55-5,.42-10.38-3.09-12.79-7.36q-2.33,1-4.67,1.85A100,100,0,0,1,837.45,437.27Zm43.32,38.38c.4-1.13,2.21-.65,1.82.5-2.19,6.15-9.27,9.28-14.93,5.49-.41-.28-.16-1.06.37-.85C873.16,482.84,878.8,481.1,880.77,475.65Zm-9.38-33.1a.64.64,0,0,1,1.08-.23,1.14,1.14,0,0,1,.72.09,6.67,6.67,0,0,1,3.66,4.32c.39,1.38.51,3.79-1.32,4.15s-3.32-1.69-4-3.07A6.6,6.6,0,0,1,871.39,442.55Zm-11.91.22a86.21,86.21,0,0,1,10.85,17.87,4.78,4.78,0,0,1,6.08,2.17c1.51,3.14-1.5,7.21-4.94,6.63-1.17-.2-.78-1.89.27-2,1.88-.11,4-2.09,2.81-4.09-1-1.68-3.4-1.63-4.88-.69a.61.61,0,0,1-.89-.54,1.08,1.08,0,0,1-.3-.38c-3-6.28-6.51-12.19-10-18.2C858.08,443,859,442.19,859.48,442.77Zm-8.61,17.62c-1.77.33-3.32-1.68-4-3.06a6.6,6.6,0,0,1-.18-5.26.64.64,0,0,1,1.08-.23,1.22,1.22,0,0,1,.72.08,6.71,6.71,0,0,1,3.66,4.33C852.57,457.63,852.7,460,850.87,460.39Z" transform="translate(-710.55 -266.17)"/><path class="cls-2" d="M802.22,408.34h0a59.49,59.49,0,0,1,8.53,20.22A59.67,59.67,0,0,0,802.22,408.34Z" transform="translate(-710.55 -266.17)"/><path class="cls-2" d="M810.24,374.72c3.29,4.89,6.79,9.64,10.39,14.25C817,384.36,813.53,379.61,810.24,374.72Z" transform="translate(-710.55 -266.17)"/><path class="cls-2" d="M848.18,339a49.57,49.57,0,0,0-3.25-11A49.57,49.57,0,0,1,848.18,339Z" transform="translate(-710.55 -266.17)"/><path class="cls-2" d="M767.25,333.66a25.45,25.45,0,0,0-3.09,4.59A25.45,25.45,0,0,1,767.25,333.66Z" transform="translate(-710.55 -266.17)"/><path class="cls-2" d="M840.34,388.07a1.31,1.31,0,0,0,1.64-.89A1.31,1.31,0,0,1,840.34,388.07Z" transform="translate(-710.55 -266.17)"/><path class="cls-2" d="M844.93,328a40.49,40.49,0,0,0-2.76-5.31A40.49,40.49,0,0,1,844.93,328Z" transform="translate(-710.55 -266.17)"/><path class="cls-2" d="M1045.27,397.64a5.08,5.08,0,0,0-3.93-4.19c-3.48-1.06-6.38.84-8.28,3.5A65.07,65.07,0,0,1,1045.27,397.64Z" transform="translate(-710.55 -266.17)"/><path class="cls-2" d="M792.17,579.11c-5.68-1.29-11.79,2.77-15.43,6.7a21.16,21.16,0,0,0-5.52,17.88,196.69,196.69,0,0,0,43.49,31.37,203.36,203.36,0,0,0-11.63-43.22C801.08,586.9,797.9,580.4,792.17,579.11Z" transform="translate(-710.55 -266.17)"/><path class="cls-2" d="M793.16,511.78c6.81-4.06,14.19-5,22-5.71,10.26-.88,20.55-1.77,30.84-2.18a31.56,31.56,0,0,1-.58-3.59,1.83,1.83,0,0,1-.62-1.72,37.9,37.9,0,0,1-5.42-2.35,1.19,1.19,0,0,1-.08.2c-3,3.89-8.33,4.36-12.49,2-5.26-3-8.83-9.76-10.08-15.74-3.69,3.83-9.29,5.25-12-.81-3.48-7.69-.07-19.92,3.89-27.68-3.34,1.39-7,.73-6.57-4.2a19.32,19.32,0,0,1,7.79-13.77l-.3-.11a.81.81,0,0,1-.07-.22,76.13,76.13,0,0,0-8.68-27.05.72.72,0,0,1,0-.74.9.9,0,0,1-.3-1,.37.37,0,0,1-.14-.42c-19.85-9.09-38.19-28.39-41.33-50.07-2.54-17.46,10.23-37.5,30.3-33.44,0,0,0,0,.07,0,.07-.31.15-.6.23-.91a16.41,16.41,0,0,1,7.17-11.65,24.11,24.11,0,0,1,12.38-5A31.41,31.41,0,0,1,828,309.12c.79.41,1.55.86,2.29,1.34a37.47,37.47,0,0,1,4.48,3.37c12.24-12.9,33-8.16,40.91,6.78,5,9.37,5,20.05,3.8,30.3-1.51,13.27-4.56,26.36-7.51,39.4,0,.07-.06.12-.08.19a1,1,0,0,1,1.15.85,83.15,83.15,0,0,0,6.76,22.57,35.75,35.75,0,0,1,4.17.13.9.9,0,0,1,.86.67,3.1,3.1,0,0,1-.61,2.44c7.6.88,17.94,5.68,12.75,14-3.49,5.58-11.34,6.1-18.27,4.4,4.77,11.13,16.55,18.1,17.37,31.24.74,11.53-5.62,22.43-15.35,28.39a37.67,37.67,0,0,1-5.31,2.67l.12.33c.48,1.25,1.08,2.43,1.63,3.65a1.24,1.24,0,0,1,.1.4c19.92-4.35,38-4.08,56.41,5.38,10.33,5.3,20.49,10.92,30.74,16.39,6.58,3.51,13.38,8.47,21,3.86,5.13-3.1,9.48-8.41,12.82-13.29-.36-.35-.7-.71-1-1.08a.6.6,0,0,1,0-.85.67.67,0,0,1-.06-.81c2.65-4,4.87-7.79,9.86-6.11,1.2.4,2.4.88,3.58,1.4,1.34-3.76,3.77-7.14,5.5-10.74a131.12,131.12,0,0,0,5.74-15.11,1.14,1.14,0,0,1,.12-.22,22.61,22.61,0,0,1-10.53-8.47c-18.44-2.78-37-7.67-53.1-16.41a.51.51,0,0,1-.06-.82,2.09,2.09,0,0,1-.58-1.43,3.37,3.37,0,0,1,1-2.43,4.26,4.26,0,0,1,5.21-.28c6.37-28.77,33-49.3,61.5-53.53.81-7.21,9.07-12.06,16-11.28s11.75,6.6,12.46,13.14a56.53,56.53,0,0,1,24.74,15.25c12.22,12.84,18.55,29.51,23.09,46.37-1.34-106.77-88.29-192.91-195.37-192.91-107.91,0-195.4,87.48-195.4,195.4a196.48,196.48,0,0,0,3.68,37.83A194.44,194.44,0,0,0,741.05,567c4.44-6.15,9-12.19,13.74-18.14C765.65,535.08,777.92,520.83,793.16,511.78Z" transform="translate(-710.55 -266.17)"/><path class="cls-2" d="M764.16,338.25a25.76,25.76,0,0,0-2.78,9.45A25.76,25.76,0,0,1,764.16,338.25Z" transform="translate(-710.55 -266.17)"/><path class="cls-2" d="M1048.86,475.7a66.31,66.31,0,0,1-14.12,9.23c0,9.43-1.91,22.77-8.48,29.55a30.9,30.9,0,0,1,6.92,3.67,1.28,1.28,0,0,1,.56,1.36c-.59,2.17-2.35,4.29-4.12,6.1a14.37,14.37,0,0,1-2.9,3.32,1,1,0,0,1-.58.49h0a.48.48,0,0,1-.66,0l-1.27-.38c-6.45,13.88-15.89,28.45-30.56,34.55-19.51,8.12-41.1.29-61.06-1.22a1.64,1.64,0,0,1-.37-.1c-2.23,25.21-2.2,50.22-1.45,75.46.41,1.95.77,3.9,1.12,5.86a1,1,0,0,1,.47.75c.64,3.86,1.44,7.67,2.36,11.44A193.4,193.4,0,0,0,1101.47,472,320.74,320.74,0,0,1,1048.86,475.7Z" transform="translate(-710.55 -266.17)"/><path class="cls-2" d="M1026,481.1a.58.58,0,0,1-.31,1.11c-.75-.16-1.46-.36-2.17-.58,0,.05,0,.08,0,.12-1.93,8.13-5.85,19.78-12.2,25.74,3.26,1.5,6.47,3.29,9.64,4.77.65.3,1.33.6,2,.89.86.29,1.72.58,2.61.83a.75.75,0,0,1,.36.21c.77-4.74,3.22-9.26,4.44-13.94a80.83,80.83,0,0,0,2.15-14.31l-.13.06c-1.23.54-2.3-1.27-1.06-1.82.46-.2.91-.42,1.37-.64v0a1,1,0,0,1,1.63-.75,63.89,63.89,0,0,0,11.25-7.14c-5.29-.14-10.59-.43-15.87-.89-5.09-.44-10.27-1-15.47-1.73A25.88,25.88,0,0,0,1026,481.1Z" transform="translate(-710.55 -266.17)"/><path class="cls-3" d="M1032.76,483.51v0c-.46.22-.91.44-1.37.64-1.24.55-.17,2.36,1.06,1.82l.13-.06a80.83,80.83,0,0,1-2.15,14.31c-1.22,4.68-3.67,9.2-4.44,13.94a.75.75,0,0,0-.36-.21c-.89-.25-1.75-.54-2.61-.83l3.24,1.33c6.57-6.78,8.43-20.12,8.48-29.55a66.31,66.31,0,0,0,14.12-9.23l-3.22-.08a63.89,63.89,0,0,1-11.25,7.14A1,1,0,0,0,1032.76,483.51Z" transform="translate(-710.55 -266.17)"/><path class="cls-3" d="M1021.91,481.05a1.14,1.14,0,0,0-.12.22,131.12,131.12,0,0,1-5.74,15.11c-1.73,3.6-4.16,7-5.5,10.74l.8.37c6.35-6,10.27-17.61,12.2-25.74,0,0,0-.07,0-.12.71.22,1.42.42,2.17.58a.58.58,0,0,0,.31-1.11,25.88,25.88,0,0,1-11.74-8.1l-2.92-.42A22.61,22.61,0,0,0,1021.91,481.05Z" transform="translate(-710.55 -266.17)"/><path class="cls-4" d="M1078.54,414.79a56.53,56.53,0,0,0-24.74-15.25c-.71-6.54-5.47-12.35-12.46-13.14s-15.23,4.07-16,11.28c-28.49,4.23-55.13,24.76-61.5,53.53a4.26,4.26,0,0,0-5.21.28,3.37,3.37,0,0,0-1,2.43,2.09,2.09,0,0,0,.58,1.43.51.51,0,0,0,.06.82c16.07,8.74,34.66,13.63,53.1,16.41l2.92.42c5.2.72,10.38,1.29,15.47,1.73,5.28.46,10.58.75,15.87.89l3.22.08a320.74,320.74,0,0,0,52.61-3.69l.46-.07c.15-2.89.22-5.8.24-8.73l-.54-2C1097.09,444.3,1090.76,427.63,1078.54,414.79Zm-32.84-14a4.77,4.77,0,0,0,7.48.22.57.57,0,0,1,.9.69c-1.94,3.2-7.42,2.75-9-.57A.34.34,0,0,1,1045.7,400.79Zm-4.36-7.34a5.08,5.08,0,0,1,3.93,4.19,65.07,65.07,0,0,0-12.21-.69C1035,394.29,1037.86,392.39,1041.34,393.45Zm-15,7.46a3.31,3.31,0,0,0,6.1-.74.44.44,0,0,1,.85.24c-.68,3.77-6,4.26-7.49.81A.31.31,0,0,1,1026.32,400.91Zm69.52,65.79a297,297,0,0,1-66.24-.66c-20.88-2.51-42.56-6.63-62.06-14.72-.33-.14-.22-.65.15-.55,21.45,5.72,42.38,11.56,64.55,14a318.8,318.8,0,0,0,63.6.35C1096.86,465,1096.84,466.6,1095.84,466.7Z" transform="translate(-710.55 -266.17)"/><path class="cls-5" d="M931.86,643.57c-.35-2-.71-3.91-1.12-5.86-.75-25.24-.78-50.25,1.45-75.46a1.64,1.64,0,0,0,.37.1c20,1.51,41.55,9.34,61.06,1.22,14.67-6.1,24.11-20.67,30.56-34.55l1.27.38a.48.48,0,0,0,.66,0h0a1,1,0,0,0,.58-.49,14.37,14.37,0,0,0,2.9-3.32c1.77-1.81,3.53-3.93,4.12-6.1a1.28,1.28,0,0,0-.56-1.36,30.9,30.9,0,0,0-6.92-3.67l-3.24-1.33c-.7-.29-1.38-.59-2-.89-3.17-1.48-6.38-3.27-9.64-4.77l-.8-.37c-1.18-.52-2.38-1-3.58-1.4-5-1.68-7.21,2.11-9.86,6.11a.67.67,0,0,0,.06.81.6.6,0,0,0,0,.85c.34.37.68.73,1,1.08-3.34,4.88-7.69,10.19-12.82,13.29-7.6,4.61-14.4-.35-21-3.86-10.25-5.47-20.41-11.09-30.74-16.39-18.41-9.46-36.49-9.73-56.41-5.38a1.24,1.24,0,0,0-.1-.4c-.55-1.22-1.15-2.4-1.63-3.65l-.12-.33a44.2,44.2,0,0,1-30.64.73,1.83,1.83,0,0,0,.62,1.72,31.56,31.56,0,0,0,.58,3.59c-10.29.41-20.58,1.3-30.84,2.18-7.76.67-15.14,1.65-22,5.71-15.24,9.05-27.51,23.3-38.37,37.05-4.7,5.95-9.3,12-13.74,18.14a196.94,196.94,0,0,0,30.17,36.72,21.16,21.16,0,0,1,5.52-17.88c3.64-3.93,9.75-8,15.43-6.7s8.91,7.79,10.91,12.73a203.36,203.36,0,0,1,11.63,43.22,194.78,194.78,0,0,0,80.77,22.44,657.27,657.27,0,0,1-9.67-69.74c-1.56-18.63-2.39-37.34-2.35-56,0-4.75,1-10.4.22-15.06-.89-5.33-5.8-5.57-10.45-6.78-8.8-2.3-17.71-3.29-26.68-4.58-.48-.07-.34-.82.11-.82,12.91,0,25.94,3.22,38.08,7.36a.77.77,0,0,1,.55.72,686.91,686.91,0,0,0,12.24,145c2.93.13,5.87.21,8.84.21a197.39,197.39,0,0,0,28.32-2c-.92-3.77-1.72-7.58-2.36-11.44A1,1,0,0,0,931.86,643.57ZM1000,515a109.94,109.94,0,0,0,24.67,9.5.88.88,0,0,1-.46,1.69,75.78,75.78,0,0,1-24.65-10.43A.44.44,0,0,1,1000,515ZM887.42,641.45c-.6,2.93-4.84,4.51-6.93,2.12a3.6,3.6,0,0,1-.75-2.87,3.65,3.65,0,0,1,1.38-3.34C884,635.05,888.13,638,887.42,641.45Zm-6.2-40.84c2.75,2.79-.25,6.9-3.77,6.07a4.35,4.35,0,0,1-3.15-3.75,3.35,3.35,0,0,1,.45-2.5,3,3,0,0,1,1.45-.51,11.74,11.74,0,0,1,1.67-.33.53.53,0,0,1,.4.11A3.15,3.15,0,0,1,881.22,600.61Zm-2.28-35.2a4.28,4.28,0,0,1-4.21,3.65,4.18,4.18,0,0,1-4.27-3.69,4,4,0,0,1,1.69-3.38,4.33,4.33,0,0,1,4.15-1.25A4,4,0,0,1,878.94,565.41ZM868.85,527.3a4.14,4.14,0,0,1,5.62-1.27,4.6,4.6,0,0,1,1.95,5,4.22,4.22,0,0,1-4.55,2.81,3.73,3.73,0,0,1-3.43-3.62c0-.13,0-.27,0-.41A3.45,3.45,0,0,1,868.85,527.3Zm-8,111.9a1.38,1.38,0,0,1,.2,0,3.69,3.69,0,0,1,3.6,3.39,3.44,3.44,0,0,1-3.26,3.82,3.68,3.68,0,0,1-4.1-3.09,3.94,3.94,0,0,1,3-4.27A.59.59,0,0,1,860.87,639.2Zm-2-36c2.42,3.25-.86,7.3-4.55,6.4a4.15,4.15,0,0,1-3.22-4,2.92,2.92,0,0,1,2.3-2.71A3.82,3.82,0,0,1,858.9,603.19Zm-2.84-35.1c-.64,2.41-3.28,4-5.57,2.57a4.22,4.22,0,0,1-1-6.24.76.76,0,0,1,.54-.27,3.44,3.44,0,0,1,2.07-1A3.78,3.78,0,0,1,856.06,568.09Zm-5.14-34.74c-.24,3.15-4.43,4.75-6.85,2.89s-1.89-6.13,1-7.15a.55.55,0,0,1,.18,0A4.32,4.32,0,0,1,850.92,533.35Z" transform="translate(-710.55 -266.17)"/><path class="cls-5" d="M874.89,562.66a2.17,2.17,0,0,1,1.62,1l.07.06a1.37,1.37,0,0,1,.29,1.11,3.16,3.16,0,0,1,0,.69,2.66,2.66,0,0,0,.15-1.44A1.81,1.81,0,0,0,874.89,562.66Z" transform="translate(-710.55 -266.17)"/><path class="cls-6" d="M879,416.68c-.32-.43-.6-.89-.9-1.34h0C878.43,415.79,878.71,416.25,879,416.68Z" transform="translate(-710.55 -266.17)"/><path class="cls-6" d="M879.07,416.71c-4.38,3.11-8.85,6.06-13.42,8.73C870.22,422.77,874.69,419.82,879.07,416.71Z" transform="translate(-710.55 -266.17)"/><path class="cls-6" d="M815.42,437.12a61.43,61.43,0,0,0,10.37.78A61.43,61.43,0,0,1,815.42,437.12Z" transform="translate(-710.55 -266.17)"/><path class="cls-6" d="M896.05,466.79c-.82-13.14-12.6-20.11-17.37-31.24,6.93,1.7,14.78,1.18,18.27-4.4,5.19-8.31-5.15-13.11-12.75-14a3.1,3.1,0,0,0,.61-2.44.9.9,0,0,0-.86-.67,35.75,35.75,0,0,0-4.17-.13c.25.57.5,1.14.77,1.72a110.88,110.88,0,0,1-10.7,8.35,84.58,84.58,0,0,1-14.15,7.25c2.41,4.27,7.84,7.78,12.79,7.36,3.58-.3,4.29-3,3.41-5.55a28.31,28.31,0,0,0,4.58,1.89c1.83,7.28,7.23,12.15,11.68,18.28a26.61,26.61,0,0,1-1.2,33.26c-16.21,19.49-57.49,15.3-61.24-12.91a1.33,1.33,0,0,0-1.37-1.15,1,1,0,0,0-1.12-.38c-4,1-8.25,1.19-10.72-2.91-2-3.38-1.35-10,3.28-10.72.54,4.5,5.58,7.08,9.78,5.23,4-1.81,5.57-5.95,5-9.94,1.57.17,3-.91,4-2.16a17.72,17.72,0,0,0,2.88-14.27c-9.24,2.08-18.86,2.44-27.69-1.08A19.32,19.32,0,0,0,802,450c-.44,4.93,3.23,5.59,6.57,4.2-4,7.76-7.37,20-3.89,27.68,2.74,6.06,8.34,4.64,12,.81,1.25,6,4.82,12.72,10.08,15.74,4.16,2.4,9.48,1.93,12.49-2a1.19,1.19,0,0,0,.08-.2,37.9,37.9,0,0,0,5.42,2.35,44.2,44.2,0,0,0,30.64-.73,37.67,37.67,0,0,0,5.31-2.67C890.43,489.22,896.79,478.32,896.05,466.79Z" transform="translate(-710.55 -266.17)"/><path class="cls-5" d="M798.13,309.68c8.36-5.18,20.72-5.3,29.85-.56a31.41,31.41,0,0,0-18.88-3.51,24.11,24.11,0,0,0-12.38,5c.43-.3.87-.6,1.35-.87Z" transform="translate(-710.55 -266.17)"/><path class="cls-5" d="M837.45,437.27A100,100,0,0,0,851,433.09q2.34-.88,4.67-1.85A84.58,84.58,0,0,0,869.85,424a110.88,110.88,0,0,0,10.7-8.35c-.27-.58-.52-1.15-.77-1.72A83.15,83.15,0,0,1,873,391.35a1,1,0,0,0-1.15-.85c0-.07.06-.12.08-.19,2.95-13,6-26.13,7.51-39.4,1.17-10.25,1.18-20.93-3.8-30.3-7.94-14.94-28.67-19.68-40.91-6.78a37.47,37.47,0,0,0-4.48-3.37A21.48,21.48,0,0,1,838,319c3.94,8.13,4.51,18.28,5.2,27.16a337.41,337.41,0,0,1,.44,37.36.51.51,0,0,1-1,0c-.05-18,.55-36.26-2.83-54.07C838,320,834,312.73,824.6,309.23c-8.76-3.25-17.48-2.53-25.89,1a.45.45,0,0,1-.19.28c-16.15,11.24-3.15,34.7,1.81,48.64,0,.09-.11.12-.15,0-4-9.54-12.36-25-10.63-36.93-.08.31-.16.6-.23.91,0,0,0,0-.07,0-20.07-4.06-32.84,16-30.3,33.44,3.14,21.68,21.48,41,41.33,50.07a.35.35,0,0,1,.33-.25c23.67-1.48,47.09-3.44,67.87-16a.48.48,0,0,1,.48.83c-20.49,12-44.8,16.22-68.35,15.94a.47.47,0,0,1-.19-.06.9.9,0,0,0,.3,1,.72.72,0,0,0,0,.74,76.13,76.13,0,0,1,8.68,27.05.81.81,0,0,0,.07.22l.3.11C818.59,439.71,828.21,439.35,837.45,437.27Zm-73.29-99a25.76,25.76,0,0,0-2.78,9.45,25.76,25.76,0,0,1,2.78-9.45,25.45,25.45,0,0,1,3.09-4.59A25.45,25.45,0,0,0,764.16,338.25ZM820.63,389c-3.6-4.61-7.1-9.36-10.39-14.25C813.53,379.61,817,384.36,820.63,389Zm1.67,10.94c-6.73-8.38-9.76-19-16.3-27.48-.16-.22.21-.49.37-.29,6.69,8.39,10.13,18.71,16.59,27.26C823.25,399.78,822.6,400.27,822.3,399.91Zm18-11.84a1.31,1.31,0,0,0,1.64-.89A1.31,1.31,0,0,1,840.34,388.07ZM844.93,328a40.49,40.49,0,0,0-2.76-5.31,40.49,40.49,0,0,1,2.76,5.31,49.57,49.57,0,0,1,3.25,11A49.57,49.57,0,0,0,844.93,328Zm-.41-17.88a26.21,26.21,0,0,1,4.4-1.17A26.21,26.21,0,0,0,844.52,310.12Zm13.32-1A21.09,21.09,0,0,1,863,311,21.09,21.09,0,0,0,857.84,309.11Zm7.81,116.33c4.57-2.67,9-5.62,13.42-8.73C874.69,419.82,870.22,422.77,865.65,425.44Zm12.48-10.1c.3.45.58.91.9,1.34-.32-.43-.6-.89-.9-1.34a42.54,42.54,0,0,1-2.57-4.33A42.54,42.54,0,0,0,878.13,415.34Zm-75.92-7h0a59.67,59.67,0,0,1,8.52,20.22A59.49,59.49,0,0,0,802.21,408.34Zm23.58,29.56a61.43,61.43,0,0,1-10.37-.78A61.43,61.43,0,0,0,825.79,437.9Z" transform="translate(-710.55 -266.17)"/><path class="cls-7" d="M868,480.79c-.53-.21-.78.57-.37.85,5.66,3.79,12.74.66,14.93-5.49.39-1.15-1.42-1.63-1.82-.5C878.8,481.1,873.16,482.84,868,480.79Z" transform="translate(-710.55 -266.17)"/><path class="cls-7" d="M875.53,450.88c1.83-.36,1.71-2.77,1.32-4.15a6.67,6.67,0,0,0-3.66-4.32,1.14,1.14,0,0,0-.72-.09.64.64,0,0,0-1.08.23,6.6,6.6,0,0,0,.18,5.26C872.21,449.19,873.76,451.2,875.53,450.88Z" transform="translate(-710.55 -266.17)"/><path class="cls-7" d="M848.53,451.92a1.22,1.22,0,0,0-.72-.08.64.64,0,0,0-1.08.23,6.6,6.6,0,0,0,.18,5.26c.64,1.38,2.19,3.39,4,3.06s1.7-2.76,1.32-4.14A6.71,6.71,0,0,0,848.53,451.92Z" transform="translate(-710.55 -266.17)"/><path class="cls-7" d="M868.48,461.78a1.08,1.08,0,0,0,.3.38.61.61,0,0,0,.89.54c1.48-.94,3.88-1,4.88.69,1.17,2-.93,4-2.81,4.09-1,.07-1.44,1.76-.27,2,3.44.58,6.45-3.49,4.94-6.63a4.78,4.78,0,0,0-6.08-2.17,86.21,86.21,0,0,0-10.85-17.87c-.48-.58-1.4.18-1,.81C862,449.59,865.47,455.5,868.48,461.78Z" transform="translate(-710.55 -266.17)"/><path class="cls-3" d="M885.29,512.56a.77.77,0,0,0-.55-.72c-12.14-4.14-25.17-7.4-38.08-7.36-.45,0-.59.75-.11.82,9,1.29,17.88,2.28,26.68,4.58,4.65,1.21,9.56,1.45,10.45,6.78.77,4.66-.21,10.31-.22,15.06,0,18.7.79,37.41,2.35,56a657.27,657.27,0,0,0,9.67,69.74l2,.09A686.91,686.91,0,0,1,885.29,512.56Z" transform="translate(-710.55 -266.17)"/><path class="cls-7" d="M868.44,530.21a3.73,3.73,0,0,0,3.43,3.62,4.22,4.22,0,0,0,4.55-2.81,4.6,4.6,0,0,0-1.95-5,4.14,4.14,0,0,0-5.62,1.27,3.45,3.45,0,0,0-.39,2.5C868.45,529.94,868.44,530.08,868.44,530.21Z" transform="translate(-710.55 -266.17)"/><path class="cls-7" d="M845.09,529.09c-2.91,1-3.41,5.31-1,7.15s6.61.26,6.85-2.89a4.32,4.32,0,0,0-5.65-4.28A.55.55,0,0,0,845.09,529.09Z" transform="translate(-710.55 -266.17)"/><path class="cls-7" d="M872.15,562a4,4,0,0,0-1.69,3.38,4.18,4.18,0,0,0,4.27,3.69,4.28,4.28,0,0,0,4.21-3.65,4,4,0,0,0-2.64-4.67A4.33,4.33,0,0,0,872.15,562Zm4.83,2.13a2.66,2.66,0,0,1-.15,1.44,3.16,3.16,0,0,0,0-.69,1.37,1.37,0,0,0-.29-1.11l-.07-.06a2.17,2.17,0,0,0-1.62-1A1.81,1.81,0,0,1,877,564.12Z" transform="translate(-710.55 -266.17)"/><path class="cls-7" d="M849.46,564.42a4.22,4.22,0,0,0,1,6.24c2.29,1.47,4.93-.16,5.57-2.57a3.78,3.78,0,0,0-4-4.91,3.44,3.44,0,0,0-2.07,1A.76.76,0,0,0,849.46,564.42Z" transform="translate(-710.55 -266.17)"/><path class="cls-7" d="M877.87,599.59a11.74,11.74,0,0,0-1.67.33,3,3,0,0,0-1.45.51,3.35,3.35,0,0,0-.45,2.5,4.35,4.35,0,0,0,3.15,3.75c3.52.83,6.52-3.28,3.77-6.07a3.15,3.15,0,0,0-3-.91A.53.53,0,0,0,877.87,599.59Z" transform="translate(-710.55 -266.17)"/><path class="cls-7" d="M851.13,605.55a4.15,4.15,0,0,0,3.22,4c3.69.9,7-3.15,4.55-6.4a3.82,3.82,0,0,0-5.47-.35A2.92,2.92,0,0,0,851.13,605.55Z" transform="translate(-710.55 -266.17)"/><path class="cls-7" d="M879.74,640.7a3.6,3.6,0,0,0,.75,2.87c2.09,2.39,6.33.81,6.93-2.12.71-3.48-3.42-6.4-6.3-4.09A3.65,3.65,0,0,0,879.74,640.7Z" transform="translate(-710.55 -266.17)"/><path class="cls-7" d="M857.31,643.29a3.68,3.68,0,0,0,4.1,3.09,3.44,3.44,0,0,0,3.26-3.82,3.69,3.69,0,0,0-3.6-3.39,1.38,1.38,0,0,0-.2,0,.59.59,0,0,0-.61-.18A3.94,3.94,0,0,0,857.31,643.29Z" transform="translate(-710.55 -266.17)"/><path class="cls-3" d="M999.56,515.73a75.78,75.78,0,0,0,24.65,10.43.88.88,0,0,0,.46-1.69A109.94,109.94,0,0,1,1000,515,.44.44,0,0,0,999.56,515.73Z" transform="translate(-710.55 -266.17)"/><path class="cls-2" d="M1095.84,465.13a318.8,318.8,0,0,1-63.6-.35c-22.17-2.45-43.1-8.29-64.55-14-.37-.1-.48.41-.15.55,19.5,8.09,41.18,12.21,62.06,14.72a297,297,0,0,0,66.24.66C1096.84,466.6,1096.86,465,1095.84,465.13Z" transform="translate(-710.55 -266.17)"/><path class="cls-2" d="M1033.27,400.41a.44.44,0,0,0-.85-.24,3.31,3.31,0,0,1-6.1.74.31.31,0,0,0-.54.31C1027.27,404.67,1032.59,404.18,1033.27,400.41Z" transform="translate(-710.55 -266.17)"/><path class="cls-2" d="M1045.11,401.13c1.55,3.32,7,3.77,9,.57a.57.57,0,0,0-.9-.69,4.77,4.77,0,0,1-7.48-.22A.34.34,0,0,0,1045.11,401.13Z" transform="translate(-710.55 -266.17)"/><path class="cls-7" d="M869,391.16a.48.48,0,0,0-.48-.83c-20.78,12.6-44.2,14.56-67.87,16a.35.35,0,0,0-.33.25.37.37,0,0,0,.14.42.47.47,0,0,0,.19.06C824.16,407.38,848.47,403.14,869,391.16Z" transform="translate(-710.55 -266.17)"/><path class="cls-7" d="M800.18,359.16c0,.08.18,0,.15,0-5-13.94-18-37.4-1.81-48.64a.45.45,0,0,0,.19-.28c8.41-3.5,17.13-4.22,25.89-1C834,312.73,838,320,839.77,329.47c3.38,17.81,2.78,36,2.83,54.07a.51.51,0,0,0,1,0,337.41,337.41,0,0,0-.44-37.36c-.69-8.88-1.26-19-5.2-27.16a21.48,21.48,0,0,0-7.7-8.56c-.74-.48-1.5-.93-2.29-1.34-9.13-4.74-21.49-4.62-29.85.56l-.06,0c-.48.27-.92.57-1.35.87a16.41,16.41,0,0,0-7.17,11.65C787.82,334.2,796.19,349.62,800.18,359.16Z" transform="translate(-710.55 -266.17)"/><path class="cls-7" d="M806.37,372.14c-.16-.2-.53.07-.37.29,6.54,8.5,9.57,19.1,16.3,27.48.3.36,1-.13.66-.51C816.5,390.85,813.06,380.53,806.37,372.14Z" transform="translate(-710.55 -266.17)"/></svg>