<svg id="Layer_1" data-name="Layer 1" xmlns="http://www.w3.org/2000/svg" viewBox="0 0 67 67"><defs><style>.cls-1{fill:#98c1d9;}.cls-2{fill:#3d5a80;}</style></defs><title>step1</title><circle class="cls-1" cx="33.5" cy="33.5" r="33.5"/><path class="cls-2" d="M973.84,583.33c-4.86-3.9-6.22-2-8.42.22-1.54,1.54-5.44-1.67-8.81-5s-6.58-7.26-5-8.8c2.21-2.2,4.13-3.56.22-8.42s-6.51-1.13-8.64,1c-2.47,2.46-.13,11.65,9,20.73s18.16,11.26,20.73,9C975.08,590,978.7,587.24,973.84,583.33Zm-25.55-19.41L948,564l-.82.32c-.14.07-.3.15-.45.24a2.59,2.59,0,0,0-.44.32,2.83,2.83,0,0,0-.4.44,3.16,3.16,0,0,0-.3.58,3.81,3.81,0,0,0-.2.68c0,.24,0,.49-.08.73a8.23,8.23,0,0,0,.08,1.36,8.58,8.58,0,0,0,.17,1l.08.38-.2-.33a8.83,8.83,0,0,1-.51-.88,9.68,9.68,0,0,1-.59-1.38c-.07-.27-.16-.55-.21-.85a6,6,0,0,1-.07-1,5,5,0,0,1,.12-1,5.3,5.3,0,0,1,.37-1,4.65,4.65,0,0,1,.51-.81,7.52,7.52,0,0,1,.55-.64,11.44,11.44,0,0,1,.86-.76l.19-.18.06-.06,1.67,2.61Zm25,24.77c-.16.2-.42.52-.77.88a6.84,6.84,0,0,1-.61.54,6.1,6.1,0,0,1-.77.52,5.67,5.67,0,0,1-.91.39,5.39,5.39,0,0,1-1,.2l-.48,0-.46,0a7.57,7.57,0,0,1-.87-.13c-.27-.05-.52-.16-.76-.22s-.45-.19-.65-.26a8.94,8.94,0,0,1-.9-.46l-.33-.18a1.74,1.74,0,0,0,.57.25,6.68,6.68,0,0,0,1,.12c.2,0,.41,0,.64,0s.46,0,.7,0a4.27,4.27,0,0,0,.71-.15l.34-.1.31-.15a3.24,3.24,0,0,0,1.55-1.71c.13-.3.23-.57.3-.79s.12-.35.12-.35l2.5,1.32Z" transform="translate(-926 -541)"/><path class="cls-2" d="M960.84,566.4c-.37-.18-.73-.33-1.09-.47l-.9,2.32c.3.12.6.25.91.4a10.52,10.52,0,0,1,5.53,6.32l2.24-1.15A13.08,13.08,0,0,0,960.84,566.4Z" transform="translate(-926 -541)"/><path class="cls-2" d="M968,557.62a19.45,19.45,0,0,0-4.4-1.46l-.91,2.35c3.43.58,10.07,2.84,11.84,11.74l2.29-1.18A16.17,16.17,0,0,0,968,557.62Z" transform="translate(-926 -541)"/><path class="cls-2" d="M964.86,562.39a15.41,15.41,0,0,0-3.29-1.14l-.92,2.35a13,13,0,0,1,3.13,1,10.89,10.89,0,0,1,6,8l2.29-1.17A13.27,13.27,0,0,0,964.86,562.39Z" transform="translate(-926 -541)"/></svg>