<svg id="Layer_1" data-name="Layer 1" xmlns="http://www.w3.org/2000/svg" viewBox="0 0 67 67"><defs><style>.cls-1{fill:#98c1d9;}.cls-2{fill:#3d5a80;}</style></defs><title>step3</title><circle class="cls-1" cx="33.5" cy="33.5" r="33.5"/><circle class="cls-1" cx="33.5" cy="33.5" r="33.5"/><path class="cls-2" d="M940.26,566.91c-.08-1.25-.67-9.81-.67-9.81h-.08L939.1,565a.12.12,0,0,1-.12.12.12.12,0,0,1-.13-.12l-.45-7.92,0,0,0,0-.43,7.91s0,.13-.12.13-.11-.13-.11-.13l-.44-7.91,0,0,0,0-.45,7.92a.12.12,0,0,1-.12.12.13.13,0,0,1-.13-.12L936,557.1H936s-.59,8.56-.66,9.81a.2.2,0,0,0,.16.23,3.19,3.19,0,0,1,1.8,2c.6,1.4-.6,17.94-.92,21.52a3.25,3.25,0,0,0,1.44,2.95h0a3.24,3.24,0,0,0,1.45-2.95c-.32-3.58-1.53-20.12-.93-21.52a3.22,3.22,0,0,1,1.8-2A.22.22,0,0,0,940.26,566.91Z" transform="translate(-926.26 -541.82)"/><path class="cls-2" d="M985.34,569a7.79,7.79,0,0,0,1.9-5.37c0-3.59-2-6.5-4.36-6.5s-4.37,2.91-4.37,6.5a7.75,7.75,0,0,0,1.89,5.35c0,.11,0,.2,0,.27a.22.22,0,0,0,.17.23,3,3,0,0,1,1.8,1.9c.6,1.4-.61,15.69-.93,19.27a3.24,3.24,0,0,0,1.45,2.94h0a3.21,3.21,0,0,0,1.44-2.94c-.32-3.58-1.52-17.87-.92-19.27a3,3,0,0,1,1.8-1.9.2.2,0,0,0,.16-.23C985.35,569.15,985.34,569.06,985.34,569Z" transform="translate(-926.26 -541.82)"/><path class="cls-2" d="M978,575.32a18.26,18.26,0,1,1-18.26-18.26A18.25,18.25,0,0,1,978,575.32Z" transform="translate(-926.26 -541.82)"/><path class="cls-1" d="M959.7,588.32A13.33,13.33,0,1,1,973,575,13.34,13.34,0,0,1,959.7,588.32Zm0-26.26A12.93,12.93,0,1,0,972.63,575,12.94,12.94,0,0,0,959.7,562.06Z" transform="translate(-926.26 -541.82)"/></svg>